<svg width="142" height="58" viewBox="0 0 142 58" fill="none" xmlns="http://www.w3.org/2000/svg">
<rect width="142" height="43.5" fill="url(#paint0_linear)"/>
<rect y="43.5" width="142" height="14.5" fill="#C40000"/>
<path fill-rule="evenodd" clip-rule="evenodd" d="M21.4253 11.3422H13.3379V34.1929H18.2716V25.8452H21.4253C26.0221 25.8452 28.8753 22.4714 28.8753 18.6319C28.8753 14.7924 26.0221 11.3422 21.4253 11.3422ZM23.8789 18.6452C23.8789 20.5018 22.8387 21.7195 21.2635 21.7195H18.2914V15.5676H21.2635C22.8387 15.5676 23.8789 16.7887 23.8789 18.6452Z" fill="white"/>
<path fill-rule="evenodd" clip-rule="evenodd" d="M40.4471 10.903C35.5167 10.903 31.4912 14.0804 31.4912 20.3687V25.203C31.4912 31.5246 35.4804 34.6354 40.4471 34.6354C45.4138 34.6354 49.4394 31.5246 49.4394 25.203V20.3687C49.4394 14.0804 45.3775 10.903 40.4471 10.903ZM44.509 20.7081V24.8304C44.509 29.0558 42.8215 30.4067 40.4471 30.4067C38.0727 30.4067 36.4216 29.0558 36.4216 24.8304V20.7081C36.4216 16.5824 38.0992 15.1285 40.4471 15.1285C42.7951 15.1285 44.509 16.5824 44.509 20.7081Z" fill="white"/>
<path d="M68.7943 33.5841C66.6829 34.2824 64.4746 34.6373 62.2524 34.6354C56.9686 34.6354 53.0059 31.5578 53.0059 25.2363V20.2955C53.0059 13.974 56.9686 10.8964 62.2524 10.8964C64.4743 10.895 66.6824 11.2488 68.7943 11.9444L67.8564 16.0002C66.0537 15.4272 64.1756 15.1311 62.2854 15.1218C59.6006 15.1218 57.923 16.5758 57.923 20.7014V24.7971C57.923 28.956 59.6006 30.4067 62.2854 30.4067C64.1801 30.4207 66.0635 30.1125 67.8564 29.495L68.7943 33.5841Z" fill="white"/>
<path d="M87.8812 33.5841C85.7698 34.2824 83.5615 34.6373 81.3393 34.6354C76.0391 34.6354 72.0928 31.5578 72.0928 25.2363V20.2955C72.0928 13.974 76.0556 10.8964 81.3393 10.8964C83.5612 10.895 85.7693 11.2488 87.8812 11.9444L86.9433 16.0002C85.1418 15.4272 83.2648 15.1311 81.3756 15.1218C78.6908 15.1218 77.0099 16.5758 77.0099 20.7014V24.7971C77.0099 28.956 78.6908 30.4067 81.3756 30.4067C83.2692 30.4203 85.1515 30.1121 86.9433 29.495L87.8812 33.5841Z" fill="white"/>
<path d="M108.917 34.1929H103.983V24.4577C103.983 23.443 104.016 22.1953 104.119 20.8744L95.7638 34.1829H91.7383V11.3422H96.6687V21.2471C96.6687 22.2452 96.6356 23.443 96.5696 24.7306L104.924 11.3422H108.917V34.1929Z" fill="white"/>
<path fill-rule="evenodd" clip-rule="evenodd" d="M123.276 34.1929H128.206L128.213 11.3422H119.994C115.397 11.3422 112.543 14.7924 112.543 18.6452C112.543 21.4167 113.957 23.9853 116.506 25.1332L112.279 34.1929H117.764L121.397 25.8452H123.276V34.1929ZM123.276 15.5676V21.7195H120.221C118.643 21.7195 117.504 20.4718 117.504 18.6452C117.504 16.8187 118.643 15.5676 120.221 15.5676H123.276Z" fill="white"/>
<path d="M14.0511 47.9107H12.2744V46.5466H17.426V47.9107H15.6461V53.9328H14.0511V47.9107Z" fill="white"/>
<path d="M18.4531 46.5599H22.8353V47.9107H20.0481V49.5743H22.3895L22.3268 50.8852H20.0481V52.5687H22.9344V53.9361H18.4531V46.5599Z" fill="white"/>
<path d="M23.4727 52.7217C24.7308 52.4822 25.2196 51.9033 25.2196 46.5599H30.0047V53.9461H28.3997V47.8907H26.7486C26.7486 53.4204 25.6093 53.9461 23.5585 54.0559L23.4727 52.7217Z" fill="white"/>
<path d="M31.5205 46.5599H35.8994V47.9107H33.1155V49.5743H35.4569L35.3908 50.8852H33.1155V52.5687H35.9952V53.9361H31.5205V46.5599Z" fill="white"/>
<path fill-rule="evenodd" clip-rule="evenodd" d="M37.2969 53.9461V46.5599H39.6944C41.2465 46.5599 42.2107 47.4216 42.2107 48.636C42.2305 49.26 41.8631 49.8306 41.2894 50.0667C42.0059 50.2755 42.4945 50.9423 42.4815 51.6936C42.4815 52.9413 41.3653 53.9461 39.7505 53.9461H37.2969ZM39.5755 49.511C40.2359 49.511 40.5959 49.1783 40.5959 48.7125C40.5959 48.2467 40.3251 47.924 39.6514 47.924H38.8919V49.511H39.5755ZM40.8667 51.6936C40.8667 52.196 40.444 52.5787 39.7373 52.5787L38.8919 52.5687V50.8086H39.8264C40.5364 50.8086 40.8667 51.1912 40.8667 51.6936Z" fill="white"/>
<path d="M49.1718 53.9461H47.5768V50.7986C47.5768 50.4659 47.5768 50.0667 47.6197 49.6408L44.9118 53.9461H43.6074V46.5599H45.2024V49.7606C45.2024 50.0767 45.2024 50.4693 45.1694 50.8852L47.8707 46.5599H49.1619L49.1718 53.9461Z" fill="white"/>
<path fill-rule="evenodd" clip-rule="evenodd" d="M51.8798 46.5599C51.8501 48.7558 51.3944 51.7269 50.6877 52.6119H50.0371V55.3768L51.4901 55.1605V53.9461H55.8096V55.3768L57.2626 55.1605V52.6119H56.5031V46.5599H51.8798ZM54.918 47.8907V52.6119H52.4115C52.8045 51.9232 53.204 49.7706 53.313 47.8907H54.918Z" fill="white"/>
<path d="M58.2432 46.5599H62.6253V47.9107H59.8382V49.5743H62.1828L62.1168 50.8852H59.8382V52.5687H62.7244V53.9361H58.2432V46.5599Z" fill="white"/>
<path d="M64.0225 46.5599H65.6175V49.521H67.873V46.5599H69.468V53.9461H67.873V50.8519H65.6175V53.9461H64.0225L64.0225 46.5599Z" fill="white"/>
<path d="M76.5347 53.9461H74.943V50.7986C74.943 50.4659 74.943 50.0667 74.9859 49.6408L72.2846 53.9461H71V46.5599H72.595V49.7606C72.595 50.0767 72.595 50.4693 72.562 50.8852L75.2633 46.5599H76.5512L76.5347 53.9461Z" fill="white"/>
<path d="M78.0537 46.5599H82.4326V47.9107H79.6487V49.5743H81.9901L81.9273 50.8852H79.6487V52.5687H82.5317V53.9361H78.0537V46.5599Z" fill="white"/>
<path d="M91.7714 53.9461H90.1764V50.7986C90.1764 50.4659 90.1764 50.0667 90.2194 49.6408L87.5114 53.9461H86.207V46.5599H87.8021V49.7606C87.8021 50.0767 87.8021 50.4693 87.769 50.8852L90.4703 46.5599H91.7615L91.7714 53.9461Z" fill="white"/>
<path fill-rule="evenodd" clip-rule="evenodd" d="M98.284 46.5599H95.6719V53.9461H97.2636V51.2478H98.284C98.9156 51.2819 99.5329 51.0508 99.9892 50.6095C100.445 50.1681 100.7 49.556 100.691 48.9188C100.7 48.2789 100.447 47.6635 99.9917 47.2173C99.5363 46.7711 98.9187 46.5333 98.284 46.5599ZM99.0766 48.9088C99.0766 49.5144 98.7397 49.907 98.2312 49.907H97.2636V47.9107H98.2312C98.7463 47.9107 99.0766 48.3033 99.0766 48.9088Z" fill="white"/>
<path fill-rule="evenodd" clip-rule="evenodd" d="M105.225 46.5599H103.379L101.18 53.9461H102.795L103.283 52.1661H105.321L105.81 53.9461H107.424L105.225 46.5599ZM104.584 49.4645L104.964 50.8652H103.64L104.02 49.4645C104.109 49.1284 104.215 48.6693 104.3 48.2101C104.39 48.6693 104.485 49.1318 104.584 49.4645Z" fill="white"/>
<path fill-rule="evenodd" clip-rule="evenodd" d="M109.591 46.5599C109.561 48.7558 109.105 51.7269 108.399 52.6119H107.738V55.3768L109.195 55.1605V53.9461H113.521V55.3768L114.974 55.1605V52.6119H114.214V46.5599H109.591ZM112.629 47.8907V52.6119H110.123C110.516 51.9232 110.915 49.7706 111.024 47.8907H112.629Z" fill="white"/>
<path d="M121.526 53.9461H119.931V50.7986C119.931 50.4659 119.931 50.0667 119.974 49.6408L117.276 53.9461H115.975V46.5599H117.563V49.7606C117.563 50.0767 117.563 50.4693 117.533 50.8852L120.231 46.5599H121.526V53.9461Z" fill="white"/>
<path fill-rule="evenodd" clip-rule="evenodd" d="M125.743 46.4168C124.151 46.4168 122.847 47.4449 122.847 49.4778V51.0382C122.847 53.091 124.138 54.0892 125.743 54.0892C127.348 54.0892 128.652 53.0811 128.652 51.0382V49.4778C128.652 47.4449 127.335 46.4168 125.743 46.4168ZM127.051 49.5743V50.9051C127.051 52.2859 126.499 52.7084 125.73 52.7084C124.96 52.7084 124.429 52.2726 124.429 50.9051V49.5743C124.429 48.2434 124.96 47.7743 125.73 47.7743C126.499 47.7743 127.051 48.2434 127.051 49.5743Z" fill="white"/>
<defs>
<linearGradient id="paint0_linear" x1="-77.656" y1="-23.558" x2="-77.656" y2="68.0332" gradientUnits="userSpaceOnUse">
<stop stop-color="#0085FF"/>
<stop offset="0.16" stop-color="#0076F0"/>
<stop offset="0.48" stop-color="#004DC8"/>
<stop offset="0.92" stop-color="#000C87"/>
<stop offset="1" stop-color="#00007B"/>
</linearGradient>
</defs>
</svg>
