<svg xmlns="http://www.w3.org/2000/svg" width="232.63" height="152.63" viewBox="0 0 232.63 152.63"><defs><style>.cls-1{fill:#fff;stroke:#fff;stroke-miterlimit:10;stroke-width:0.63px;opacity:0;}.cls-2{fill:#46aa28;}</style></defs><g id="Layer_2" data-name="Layer 2"><g id="Layer_1-2" data-name="Layer 1"><g id="u"><rect class="cls-1" x="0.31" y="0.31" width="232" height="152"/><rect class="cls-2" x="64.11" y="35.17" width="3.51" height="83.32"/><rect class="cls-2" x="71.13" y="35.22" width="3.51" height="83.23"/><rect class="cls-2" x="57.08" y="35.22" width="3.51" height="83.23"/><rect class="cls-2" x="78.16" y="35.22" width="3.51" height="32.52"/><rect class="cls-2" x="78.16" y="85.84" width="3.51" height="32.61"/><path class="cls-2" d="M130.79,100.07a23.3,23.3,0,0,0,21.44-14.23h-3.9a19.71,19.71,0,0,1-35.08,0h-3.89A23.3,23.3,0,0,0,130.79,100.07Z"/><path class="cls-2" d="M130.79,57.07a19.75,19.75,0,0,1,17.52,10.67h3.9a23.26,23.26,0,0,0-42.83,0h3.9A19.74,19.74,0,0,1,130.79,57.07Z"/><path class="cls-2" d="M130.79,89.06a12.16,12.16,0,0,1-8.24-3.22h-4.66a15.73,15.73,0,0,0,25.8,0H139A12.2,12.2,0,0,1,130.79,89.06Z"/><path class="cls-2" d="M130.79,61.06a15.71,15.71,0,0,0-12.86,6.68h4.67a12.18,12.18,0,0,1,16.39,0h4.67A15.75,15.75,0,0,0,130.79,61.06Z"/><path class="cls-2" d="M130.79,107.57A30.76,30.76,0,1,0,101.4,67.74h3.71a27.24,27.24,0,1,1,0,18.1h-3.7A30.8,30.8,0,0,0,130.79,107.57Z"/><path class="cls-2" d="M130.79,115.07A38.26,38.26,0,1,0,93.63,67.74h3.63a34.74,34.74,0,1,1,0,18.1H93.62A38.31,38.31,0,0,0,130.79,115.07Z"/><path class="cls-2" d="M130.79,31.06a45.81,45.81,0,0,0-42.08,27.8V35.22H85.19V67.74h4.36a42.24,42.24,0,1,1,0,18.1H85.19v32.61h3.52V94.76a45.75,45.75,0,1,0,42.08-63.7Z"/><path class="cls-2" d="M93.55,71.25a5.16,5.16,0,0,1,3.12,1A3.06,3.06,0,0,1,98,74.86v3.92a3.06,3.06,0,0,1-1.33,2.65,5.57,5.57,0,0,1-6.25,0,3.1,3.1,0,0,1-1.31-2.65v-1h-1.9v4.44H85V71.4h2.25v4.33h1.9v-.87a3.15,3.15,0,0,1,.66-2,3.81,3.81,0,0,1,1.63-1.23A6,6,0,0,1,93.55,71.25Zm0,2.14a2.91,2.91,0,0,0-1.53.42,1.27,1.27,0,0,0-.64,1.13v3.79A1.24,1.24,0,0,0,92,79.84a2.83,2.83,0,0,0,1.54.41,3,3,0,0,0,1.54-.4,1.25,1.25,0,0,0,.66-1.12V74.94a1.27,1.27,0,0,0-.66-1.15A3,3,0,0,0,93.53,73.39Z"/><path class="cls-2" d="M102.12,78v4.29H99.87V71.4h2.25v4.3h4V71.4h2.25V82.24h-2.25V78Z"/><path class="cls-2" d="M110.25,78.78V74.86a3.13,3.13,0,0,1,.65-2,3.72,3.72,0,0,1,1.64-1.24,5.93,5.93,0,0,1,2.13-.38,5.16,5.16,0,0,1,3.12,1,3.08,3.08,0,0,1,1.32,2.65v3.92a3.1,3.1,0,0,1-1.31,2.65,5.11,5.11,0,0,1-3.11,1,5.17,5.17,0,0,1-3.13-1A3.1,3.1,0,0,1,110.25,78.78Zm2.23-3.92v3.92a1.23,1.23,0,0,0,.65,1.11,3,3,0,0,0,1.56.39,2.82,2.82,0,0,0,1.53-.4,1.21,1.21,0,0,0,.65-1.1V74.86a1.26,1.26,0,0,0-.65-1.14,3,3,0,0,0-1.56-.39,2.83,2.83,0,0,0-1.54.41A1.27,1.27,0,0,0,112.48,74.86Z"/><path class="cls-2" d="M127,79l2,1.08a4.69,4.69,0,0,1-1.71,1.69,4.31,4.31,0,0,1-2.15.58,4.79,4.79,0,0,1-3-1,3.09,3.09,0,0,1-1.27-2.64V74.85a3.11,3.11,0,0,1,1.26-2.64,4.8,4.8,0,0,1,3-1,4.33,4.33,0,0,1,2.19.6,3.67,3.67,0,0,1,1.57,1.73l-1.8,1a2,2,0,0,0-.89-.88,2.54,2.54,0,0,0-1.24-.29,2.23,2.23,0,0,0-1.31.42,1.23,1.23,0,0,0-.54,1v3.94a1.22,1.22,0,0,0,.53,1,2.24,2.24,0,0,0,1.28.4,2.59,2.59,0,0,0,1.23-.29A2,2,0,0,0,127,79Z"/><path class="cls-2" d="M135,82.24h-2.27V73.55h-3.07V71.39h8.43v2.16H135Z"/><path class="cls-2" d="M142,75.23h2a4.23,4.23,0,0,1,2.94.86,3.37,3.37,0,0,1,.93,2.58,3.41,3.41,0,0,1-1,2.6,3.87,3.87,0,0,1-2.77,1h-4.33V71.4H142Zm0,5h2a1.58,1.58,0,1,0,0-3.16h-2Z"/></g></g></g></svg>