<svg width="129" height="58" viewBox="0 0 129 58" fill="none" xmlns="http://www.w3.org/2000/svg">
<g id="smotrim">
<path id="smotrim_2" fill-rule="evenodd" clip-rule="evenodd" d="M70.6858 6.97285L66.763 5.92202V56.4151L64.1493 57.1186L61.5356 56.4151V5.92202L57.595 6.9773V1.75434L64.1449 0L70.6858 1.75434V6.97285ZM100.572 9.75575L94.1468 34.2097V8.04148L88.9105 6.63445V50.4841L94.1379 49.0637L100.572 26.2216L100.581 47.3539L105.804 45.9558V11.1628L100.572 9.75575ZM86.3012 43.3421V5.90866L71.9904 2.1061V55.0125L77.2178 53.6143V45.7732L86.3012 43.3421ZM81.0916 9.76466V39.5306L77.2223 40.5681V8.72719L81.0916 9.76466ZM123.062 15.7846L118.574 29.4988L113.654 13.2466L108.413 11.8619V45.2567L113.64 43.8541V25.1842L115.733 35.4653L120.961 34.0316L123.049 26.3419V41.3161L128.294 39.9269L128.276 17.1872L123.062 15.7846ZM31.596 8.73164L36.8234 7.32015V49.794L31.596 48.3914V25.1174L28.9823 39.869L23.7549 38.4531L21.1412 26.1103V45.5951L15.9138 44.1925V12.9216L21.1412 11.519L26.2973 30.9637L31.596 8.73164ZM39.4371 6.62109L56.2859 2.10165V55.008L39.4371 50.4975V6.62109ZM44.6645 10.4459V46.6771L51.0585 48.3869V8.73164L44.6645 10.4459ZM0 17.1872L13.3001 13.6207V24.0577L8.07265 25.4602V20.2506L5.22741 21.012V36.1065L8.07265 36.8724V31.6583L13.3001 33.0609V43.4935L0 39.9313V17.1872Z" fill="black"/>
</g>
</svg>
