<svg xmlns="http://www.w3.org/2000/svg" width="232.63" height="152.63" viewBox="0 0 232.63 152.63"><defs><style>.cls-1{fill:#fff;stroke:#fff;stroke-miterlimit:10;stroke-width:0.63px;opacity:0;}</style></defs><g id="Layer_2" data-name="Layer 2"><g id="Layer_1-2" data-name="Layer 1"><g id="v"><rect class="cls-1" x="0.31" y="0.31" width="232" height="152"/><rect x="78.22" y="46.09" width="3.51" height="61.45"/><rect x="63.48" y="56.92" width="3.51" height="39.79"/><rect x="70.85" y="56.92" width="3.51" height="39.79"/><rect x="159.26" y="46.32" width="3.51" height="60.98"/><rect x="166.63" y="35.21" width="3.51" height="83.2"/><rect x="181.37" y="13.51" width="3.51" height="126.6"/><rect x="174" y="24.36" width="3.51" height="104.9"/><rect x="56.11" y="71.39" width="3.51" height="10.85"/><rect x="48.74" y="71.4" width="3.51" height="10.82"/><rect x="137.16" y="85.87" width="3.51" height="21.69"/><rect x="137.16" y="46.07" width="3.51" height="21.7"/><rect x="129.79" y="85.87" width="3.51" height="32.54"/><rect x="129.79" y="35.21" width="3.51" height="32.55"/><rect x="122.42" y="85.87" width="3.51" height="21.67"/><rect x="122.42" y="46.09" width="3.51" height="21.68"/><rect x="144.53" y="85.87" width="3.51" height="32.54"/><rect x="144.53" y="35.21" width="3.51" height="32.55"/><rect x="151.9" y="85.87" width="3.51" height="43.39"/><rect x="151.9" y="24.36" width="3.51" height="43.41"/><rect x="100.32" y="85.87" width="3.51" height="10.84"/><rect x="100.32" y="56.92" width="3.51" height="10.85"/><rect x="92.95" y="85.87" width="3.51" height="10.84"/><rect x="92.95" y="56.92" width="3.51" height="10.85"/><rect x="85.58" y="85.87" width="3.51" height="21.69"/><rect x="85.58" y="46.07" width="3.51" height="21.7"/><rect x="107.69" y="85.87" width="3.51" height="21.69"/><rect x="107.69" y="46.07" width="3.51" height="21.7"/><rect x="115.06" y="35.21" width="3.51" height="32.55"/><rect x="115.06" y="85.87" width="3.51" height="32.54"/><polygon points="128.66 71.39 128.66 71.39 124.08 78.61 124.08 71.39 122.13 71.39 122.13 82.25 124.08 82.25 124.08 82.25 124.08 82.25 128.66 75.02 128.66 82.25 130.61 82.25 130.61 71.39 128.66 71.39"/><polygon points="99.52 80.3 99.52 77.37 103.11 77.37 103.11 75.42 99.52 75.42 99.52 73.33 104.02 73.33 104.02 71.39 97.57 71.39 97.57 82.25 97.57 82.25 97.57 82.25 104.02 82.25 104.02 80.3 99.52 80.3"/><polygon points="120.94 71.39 113.19 71.39 113.19 73.34 116.09 73.34 116.09 82.25 118.04 82.25 118.04 73.34 120.94 73.34 120.94 71.39"/><path d="M95.17,76.29A2.94,2.94,0,0,0,93,71.39H88.71V82.25H93a3.38,3.38,0,0,0,2.2-6Zm-4.51-3h2.28a1,1,0,1,1,0,2.08H90.66Zm2.3,7h-2.3V77.37H93a1.47,1.47,0,1,1,0,2.93Z"/><path d="M108.72,80.3a1.83,1.83,0,0,1-1.83-1.83v-3.3a1.84,1.84,0,0,1,1.83-1.84H112V71.39h-3.36a3.7,3.7,0,0,0-3.7,3.69h0v3.48a3.7,3.7,0,0,0,3.7,3.69H112v-2Z"/><path d="M135.15,72.69v3.79h5v1.29h-5v4.47h-1.29V71.4h6.93v1.29Z"/><path d="M143.69,73.82v8.42H142.4V71.4H144L147.36,79l3.35-7.56h1.6V82.24H151V73.81l-3.12,7h-1.09Z"/></g></g></g></svg>