<svg xmlns="http://www.w3.org/2000/svg" width="232.63" height="152.63" viewBox="0 0 232.63 152.63"><defs><style>.cls-1{fill:#fff;stroke:#fff;stroke-miterlimit:10;stroke-width:0.63px;opacity:0;}.cls-2{fill:#960096;}</style></defs><g id="Layer_2" data-name="Layer 2"><g id="Layer_1-2" data-name="Layer 1"><g id="k"><rect class="cls-1" x="0.31" y="0.31" width="232" height="152"/><rect class="cls-2" x="90.53" y="24.38" width="3.51" height="43.47"/><rect class="cls-2" x="90.53" y="85.92" width="3.51" height="43.42"/><rect class="cls-2" x="104.58" y="85.92" width="3.51" height="6.07"/><rect class="cls-2" x="104.58" y="62.01" width="3.51" height="5.84"/><rect class="cls-2" x="111.61" y="47.73" width="3.51" height="20.13"/><rect class="cls-2" x="111.61" y="85.92" width="3.51" height="8.76"/><rect class="cls-2" x="55.38" y="24.38" width="3.51" height="27.45"/><rect class="cls-2" x="62.41" y="24.38" width="3.51" height="29.79"/><rect class="cls-2" x="41.18" y="24.38" width="3.51" height="23.35"/><rect class="cls-2" x="48.36" y="24.38" width="3.51" height="25.69"/><rect class="cls-2" x="83.5" y="24.38" width="3.51" height="43.47"/><rect class="cls-2" x="83.5" y="85.92" width="3.51" height="43.42"/><rect class="cls-2" x="76.47" y="85.92" width="3.51" height="43.42"/><rect class="cls-2" x="76.47" y="24.38" width="3.51" height="43.47"/><rect class="cls-2" x="69.44" y="85.92" width="3.51" height="43.42"/><rect class="cls-2" x="69.44" y="24.38" width="3.51" height="43.47"/><rect class="cls-2" x="97.56" y="85.92" width="3.51" height="43.42"/><rect class="cls-2" x="97.56" y="24.38" width="3.51" height="43.47"/><rect class="cls-2" x="125.68" y="85.92" width="3.51" height="25.5"/><rect class="cls-2" x="125.68" y="27.11" width="3.51" height="36"/><rect class="cls-2" x="118.65" y="85.92" width="3.51" height="14.86"/><rect class="cls-2" x="118.65" y="36.2" width="3.51" height="31.65"/><rect class="cls-2" x="132.7" y="85.92" width="3.51" height="35.55"/><rect class="cls-2" x="132.7" y="20.56" width="3.51" height="37.23"/><rect class="cls-2" x="139.73" y="85.92" width="3.51" height="45.55"/><rect class="cls-2" x="146.76" y="85.92" width="3.51" height="53.06"/><rect class="cls-2" x="153.79" y="85.92" width="3.51" height="56.66"/><rect class="cls-2" x="160.82" y="93.24" width="3.51" height="52.26"/><rect class="cls-2" x="167.85" y="100.67" width="3.51" height="44.83"/><rect class="cls-2" x="174.88" y="106.63" width="3.51" height="35.94"/><rect class="cls-2" x="181.9" y="106.63" width="3.51" height="32.35"/><rect class="cls-2" x="188.93" y="103.74" width="3.51" height="28.29"/><rect class="cls-2" x="139.73" y="16.86" width="3.51" height="36.76"/><rect class="cls-2" x="146.76" y="12.62" width="3.51" height="37.6"/><rect class="cls-2" x="153.79" y="9.47" width="3.51" height="38.5"/><rect class="cls-2" x="160.82" y="8.13" width="3.51" height="38.24"/><rect class="cls-2" x="167.85" y="8.13" width="3.51" height="38.24"/><path class="cls-2" d="M54.34,82.31V71.48h4.13a3.49,3.49,0,0,1,2.69,1,3.43,3.43,0,0,1,1,2.44,3.39,3.39,0,0,1-1,2.43,3.46,3.46,0,0,1-2.67,1H55.61v3.9Zm1.27-5.19h2.86a2.35,2.35,0,0,0,1.76-.64A2.12,2.12,0,0,0,60.86,75a2.15,2.15,0,0,0-.63-1.54,2.36,2.36,0,0,0-1.76-.65H55.61Z"/><path class="cls-2" d="M67.48,71.48l3.91,10.83H70.05l-1.26-3.47H64.61l-.52,1.48c-.31.88-.55,1.54-.7,2H62l3.89-10.83ZM65,77.55h3.31q-.34-.92-.87-2.46l-.78-2.24C66.1,74.56,65.55,76.12,65,77.55Z"/><path class="cls-2" d="M71.94,84.22V81h.3a1.66,1.66,0,0,0,1.43-1.23,20.06,20.06,0,0,0,.61-4.39l.24-3.94h6.24V81h1.06v3.18H80.53V82.31H73.22v1.91ZM74.55,81h4.93V72.75H75.85l-.23,3.44A11.18,11.18,0,0,1,74.55,81Z"/><path class="cls-2" d="M85.4,82.31H83.81V71.48h1.28v9l5.53-9H92.1V82.31H90.82V73.68Z"/><path class="cls-2" d="M94.68,79.05V74.72A2.89,2.89,0,0,1,96,72.22a5.18,5.18,0,0,1,3.05-.9,5.91,5.91,0,0,1,2.08.37,3.73,3.73,0,0,1,1.6,1.16,2.86,2.86,0,0,1,.65,1.87v4.33a2.9,2.9,0,0,1-.65,1.88,3.65,3.65,0,0,1-1.6,1.16,5.69,5.69,0,0,1-2.08.37,5.18,5.18,0,0,1-3.05-.9A2.91,2.91,0,0,1,94.68,79.05ZM96,74.72V79a1.77,1.77,0,0,0,.9,1.58,4.36,4.36,0,0,0,4.31,0,1.78,1.78,0,0,0,.91-1.58V74.72a1.75,1.75,0,0,0-.91-1.6A4.13,4.13,0,0,0,99,72.58a4.21,4.21,0,0,0-2.15.56A1.75,1.75,0,0,0,96,74.72Z"/><path class="cls-2" d="M114.75,71.48l-4.6,5.29,4.57,5.54h-2.85l-3.33-4.15-.45.45v3.7h-2.24V71.48h2.24V76l3.83-4.5Z"/><path class="cls-2" d="M118.74,78.82l-3.58-7.34h2.55l1.52,3.3.6,1.56h.06l.65-1.63L122,71.48h2.48l-4.89,10.83h-2.42Z"/><path class="cls-2" d="M131.14,73.62h-2.6l-.2,3.35a13.43,13.43,0,0,1-.21,1.73,6.59,6.59,0,0,1-.46,1.49,3.67,3.67,0,0,1-.81,1.2,3.09,3.09,0,0,1-1.24.73,4.51,4.51,0,0,1-1.73.19V80.2A1.71,1.71,0,0,0,125.72,79a12.12,12.12,0,0,0,.43-3.08c0-.29,0-.52,0-.67l.24-3.73h7V82.31h-2.27Z"/><path class="cls-2" d="M138.15,75.3h2a4.21,4.21,0,0,1,3,.87,3.36,3.36,0,0,1,.92,2.57,3.4,3.4,0,0,1-1,2.61,3.9,3.9,0,0,1-2.76,1h-4.33V71.48h2.26Zm0,5h2a1.41,1.41,0,0,0,1.6-1.58c0-1-.54-1.57-1.63-1.57h-2Z"/><path class="cls-2" d="M148.79,82.31h-2.26V73.62h-3.07V71.46h8.43v2.16h-3.1Z"/><path class="cls-2" d="M156,78.82l-3.58-7.34H155l1.51,3.3.6,1.56h.06l.66-1.63,1.44-3.23h2.48l-4.9,10.83h-2.42Z"/><path class="cls-2" d="M162.8,82.31V71.48h4.27a4.17,4.17,0,0,1,1.53.26,3.18,3.18,0,0,1,1.15.69,4,4,0,0,1,.77,1,3,3,0,0,1,.37,1.19,5.62,5.62,0,0,1,0,1.23A2.93,2.93,0,0,1,170.5,77a4.19,4.19,0,0,1-.76,1,3.31,3.31,0,0,1-1.14.69,4.61,4.61,0,0,1-1.52.25H165v3.35ZM165,76.85h2a1.58,1.58,0,0,0,1.22-.48,1.55,1.55,0,0,0,.44-1.08,1.52,1.52,0,0,0-.44-1.07,1.58,1.58,0,0,0-1.22-.48h-2Z"/><path class="cls-2" d="M176.62,71.48l3.89,10.83h-2.36l-.94-2.48H174l-.91,2.48h-2.4l3.8-10.83Zm-1.46,3.94-.62,2.35h2.08l-.68-2.36-.34-1.55h-.11Z"/></g></g></g></svg>