<svg width="48" height="48" viewBox="0 0 48 48" fill="none" xmlns="http://www.w3.org/2000/svg">
<path fill-rule="evenodd" clip-rule="evenodd" d="M48 24C48 10.7452 37.2548 0 24 0C10.7452 0 0 10.7452 0 24C0 37.2548 10.7452 48 24 48C37.2548 48 48 37.2548 48 24ZM18.9228 18.5413C18.7027 18.5125 19.0629 18.0123 19.5298 17.7884C20.2314 17.4519 21.4693 17.4323 22.9326 17.4467C24.0731 17.4585 24.4012 17.5279 24.8467 17.6339C25.8807 17.8789 25.8485 18.6638 25.7788 20.3579C25.758 20.8645 25.7338 21.4524 25.7338 22.1316C25.7338 22.2842 25.7292 22.4469 25.7246 22.6142C25.7004 23.4821 25.6727 24.476 26.2553 24.8459C26.5541 25.0344 27.2838 24.8734 29.1099 21.8304C29.9756 20.3875 30.6239 18.6919 30.6239 18.6919C30.6239 18.6919 30.7666 18.3894 30.9867 18.2598C31.2122 18.1276 31.5163 18.1681 31.5163 18.1681L35.6167 18.1433C35.6167 18.1433 36.8493 17.9979 37.048 18.5452C37.2574 19.1174 36.5878 20.4556 34.9124 22.6475C33.3232 24.7272 32.5498 25.493 32.6208 26.1702C32.6726 26.665 33.1754 27.1126 34.1401 27.991C36.154 29.8264 36.6938 30.792 36.8235 31.024C36.8343 31.0432 36.8422 31.0574 36.8479 31.0667C37.751 32.5371 35.8462 32.6523 35.8462 32.6523L32.2032 32.7021C32.2032 32.7021 31.4216 32.8539 30.3918 32.16C29.8524 31.7968 29.3252 31.2036 28.8232 30.6385C28.0564 29.7756 27.3481 28.9785 26.7436 29.1668C25.8167 29.4561 25.7617 31.2703 25.7591 31.5836L25.7591 31.6428C25.7583 31.7195 25.7441 32.1136 25.5364 32.3328C25.2843 32.5986 24.792 32.6523 24.792 32.6523L23.1567 32.6526C23.0024 32.66 19.4954 32.7925 16.3977 29.6277C12.9429 26.0963 9.89227 19.0899 9.89227 19.0899C9.89227 19.0899 9.71619 18.6304 9.90694 18.4091C10.1217 18.159 10.7073 18.1433 10.7073 18.1433L14.6036 18.1184C14.6036 18.1184 14.9705 18.1773 15.2332 18.3672C15.4507 18.5243 15.5721 18.8163 15.5721 18.8163C15.5721 18.8163 16.2017 20.3797 17.0354 21.7938C18.6641 24.5552 19.4217 25.1588 19.974 24.8629C20.7796 24.4321 20.5382 20.9597 20.5382 20.9597C20.5382 20.9597 20.5529 19.7001 20.1327 19.1384C19.8072 18.7037 19.1936 18.5767 18.9228 18.5413Z" fill="#0602FF"/>
</svg>
