<?xml version="1.0" standalone="no"?>
<!DOCTYPE svg PUBLIC "-//W3C//DTD SVG 1.1//EN" "http://www.w3.org/Graphics/SVG/1.1/DTD/svg11.dtd" >
<svg xmlns="http://www.w3.org/2000/svg" xmlns:xlink="http://www.w3.org/1999/xlink" version="1.1">
<metadata>
Created by FontForge 20170924 at Mon May 25 23:05:12 2015
 By www-data
Copyright (c) 2015 by Contrast Type. All rights reserved.
</metadata>
<defs>
<font id="VestiSans-Reg" horiz-adv-x="640" >
  <font-face 
    font-family="VestiSans"
    font-weight="400"
    font-stretch="normal"
    units-per-em="1000"
    panose-1="2 0 0 0 0 0 0 0 0 0"
    ascent="800"
    descent="-200"
    x-height="590"
    cap-height="720"
    bbox="-52 -197 1438 950"
    underline-thickness="50"
    underline-position="-100"
    stemh="106"
    stemv="117"
    unicode-range="U+0020-2265"
  />
<missing-glyph horiz-adv-x="802" 
d="M707 -180h-611v950h611v-950zM594 -78v746h-386v-746h386z" />
    <glyph glyph-name=".notdef" horiz-adv-x="802" 
d="M707 -180h-611v950h611v-950zM594 -78v746h-386v-746h386z" />
    <glyph glyph-name="A" unicode="A" horiz-adv-x="697" 
d="M555 0l-60 177h-292l-60 -177h-121l253 720h152l252 -720h-124zM350 611l-111 -326h220z" />
    <glyph glyph-name="uni0410" unicode="&#x410;" horiz-adv-x="697" 
d="M555 0l-60 177h-292l-60 -177h-121l253 720h152l252 -720h-124zM350 611l-111 -326h220z" />
    <glyph glyph-name="B" unicode="B" horiz-adv-x="683" 
d="M92 0v720h267c182 0 241 -64 241 -176c0 -73 -29 -122 -86 -163c84 -29 115 -82 115 -170c0 -147 -66 -211 -249 -211h-288zM211 106h165c106 0 134 28 134 106c0 80 -28 104 -127 104h-172v-210zM211 419h169c71 0 103 26 103 98c0 75 -31 97 -122 97h-150v-195z" />
    <glyph glyph-name="uni0412" unicode="&#x412;" horiz-adv-x="683" 
d="M92 0v720h267c182 0 241 -64 241 -176c0 -73 -29 -122 -86 -163c84 -29 115 -82 115 -170c0 -147 -66 -211 -249 -211h-288zM211 106h165c106 0 134 28 134 106c0 80 -28 104 -127 104h-172v-210zM211 419h169c71 0 103 26 103 98c0 75 -31 97 -122 97h-150v-195z" />
    <glyph glyph-name="C" unicode="C" horiz-adv-x="602" 
d="M380 621c-151 0 -196 -73 -196 -261c0 -196 42 -261 195 -261c53 0 110 9 162 24l20 -101c-48 -20 -119 -33 -194 -33c-221 0 -305 104 -305 371c0 254 77 371 307 371c75 0 143 -14 191 -35l-20 -101c-50 16 -104 26 -160 26z" />
    <glyph glyph-name="uni0421" unicode="&#x421;" horiz-adv-x="602" 
d="M380 621c-151 0 -196 -73 -196 -261c0 -196 42 -261 195 -261c53 0 110 9 162 24l20 -101c-48 -20 -119 -33 -194 -33c-221 0 -305 104 -305 371c0 254 77 371 307 371c75 0 143 -14 191 -35l-20 -101c-50 16 -104 26 -160 26z" />
    <glyph glyph-name="D" unicode="D" horiz-adv-x="712" 
d="M339 110c88 0 135 20 161 81c19 42 28 100 28 169c0 66 -8 123 -22 161c-24 68 -73 89 -168 89h-125v-500h126zM339 0h-247v720h246c151 0 236 -41 278 -140c23 -55 34 -121 34 -219c0 -104 -14 -175 -43 -234c-42 -86 -117 -127 -268 -127z" />
    <glyph glyph-name="E" unicode="E" horiz-adv-x="616" 
d="M92 0v720h462v-113h-342v-185h294v-107h-294v-202h351v-113h-471z" />
    <glyph glyph-name="uni0415" unicode="&#x415;" horiz-adv-x="616" 
d="M92 0v720h462v-113h-342v-185h294v-107h-294v-202h351v-113h-471z" />
    <glyph glyph-name="Euro" unicode="&#x20ac;" horiz-adv-x="658" 
d="M493 395h-253c-1 -11 -1 -23 -1 -35v-33h254v-85h-246c18 -105 71 -142 188 -142c47 0 109 8 162 23l19 -101c-47 -20 -119 -33 -193 -33c-185 0 -274 73 -298 253h-90v85h83v33v35h-83v84h90c24 172 109 252 300 252c74 0 144 -13 191 -35l-19 -101
c-53 18 -105 25 -161 25c-114 0 -168 -41 -188 -141h245v-84z" />
    <glyph glyph-name="F" unicode="F" horiz-adv-x="599" 
d="M92 0v720h464v-113h-344v-210h291v-108h-291v-289h-120z" />
    <glyph glyph-name="G" unicode="G" horiz-adv-x="671" 
d="M373 -11c-226 0 -311 103 -311 371c0 280 98 371 325 371c80 0 157 -15 204 -36l-20 -101c-51 16 -112 27 -174 27c-154 0 -212 -57 -212 -261c0 -189 44 -261 189 -261c35 0 73 2 101 7v249h117v-331c-47 -21 -142 -35 -219 -35z" />
    <glyph glyph-name="H" unicode="H" horiz-adv-x="748" 
d="M537 430v290h120v-720h-120v316h-325v-316h-120v720h120v-290h325z" />
    <glyph glyph-name="uni041D" unicode="&#x41d;" horiz-adv-x="748" 
d="M537 430v290h120v-720h-120v316h-325v-316h-120v720h120v-290h325z" />
    <glyph glyph-name="I" unicode="I" horiz-adv-x="305" 
d="M213 720v-720h-121v720h121z" />
    <glyph glyph-name="J" unicode="J" horiz-adv-x="416" 
d="M99 97c89 0 116 38 116 159v464h118v-461c0 -188 -49 -270 -212 -270c-40 0 -82 7 -108 15l15 101c22 -5 47 -8 71 -8z" />
    <glyph glyph-name="K" unicode="K" horiz-adv-x="684" 
d="M527 0l-216 319l-99 -35v-284h-120v720h120v-327l110 39l203 288h139l-254 -347l260 -373h-143z" />
    <glyph glyph-name="uni041A" unicode="&#x41a;" horiz-adv-x="682" 
d="M527 0l-216 319l-99 -35v-284h-120v720h120v-327l110 39l203 288h139l-254 -347l260 -373h-143z" />
    <glyph glyph-name="L" unicode="L" horiz-adv-x="589" 
d="M92 0v720h120v-607h347v-113h-467z" />
    <glyph glyph-name="Lira" unicode="&#x20a4;" horiz-adv-x="619" 
d="M583 107v-107h-531v103c61 12 99 62 102 135h-87v85h83c-1 22 -3 44 -5 67h-78v85h73v9c0 191 102 247 265 247c58 0 114 -9 155 -25l-20 -101c-32 7 -80 14 -121 14c-113 0 -161 -37 -164 -144h240v-85h-238l4 -67h234v-85h-232c-2 -59 -18 -98 -48 -131h368z" />
    <glyph glyph-name="M" unicode="M" horiz-adv-x="921" 
d="M206 0h-114v720h149l219 -416l221 416h148v-720h-115v563l-210 -388h-91l-207 388v-563z" />
    <glyph glyph-name="uni041C" unicode="&#x41c;" horiz-adv-x="921" 
d="M206 0h-114v720h149l219 -416l221 416h148v-720h-115v563l-210 -388h-91l-207 388v-563z" />
    <glyph glyph-name="N" unicode="N" horiz-adv-x="754" 
d="M92 0v720h127l329 -525v525h114v-720h-122l-334 537v-537h-114z" />
    <glyph glyph-name="O" unicode="O" horiz-adv-x="727" 
d="M363 99c97 0 141 34 164 106c12 39 16 92 16 155c0 64 -4 116 -16 155c-23 72 -67 106 -164 106c-96 0 -140 -34 -162 -106c-13 -39 -17 -91 -17 -155c0 -63 4 -116 17 -155c22 -72 66 -106 162 -106zM363 731c151 0 232 -49 273 -161c21 -56 29 -128 29 -210
c0 -81 -8 -154 -29 -210c-41 -112 -122 -161 -273 -161c-149 0 -231 49 -272 161c-20 56 -29 129 -29 210c0 82 9 154 29 210c41 112 123 161 272 161z" />
    <glyph glyph-name="uni041E" unicode="&#x41e;" horiz-adv-x="727" 
d="M363 99c97 0 141 34 164 106c12 39 16 92 16 155c0 64 -4 116 -16 155c-23 72 -67 106 -164 106c-96 0 -140 -34 -162 -106c-13 -39 -17 -91 -17 -155c0 -63 4 -116 17 -155c22 -72 66 -106 162 -106zM363 731c151 0 232 -49 273 -161c21 -56 29 -128 29 -210
c0 -81 -8 -154 -29 -210c-41 -112 -122 -161 -273 -161c-149 0 -231 49 -272 161c-20 56 -29 129 -29 210c0 82 9 154 29 210c41 112 123 161 272 161z" />
    <glyph glyph-name="P" unicode="P" horiz-adv-x="661" 
d="M212 365c31 -2 107 -3 133 -3c113 0 153 30 153 126c0 94 -37 122 -142 122h-144v-245zM92 0v720h269c180 0 255 -62 255 -231c0 -165 -79 -236 -265 -236c-24 0 -109 1 -139 3v-256h-120z" />
    <glyph glyph-name="uni0420" unicode="&#x420;" horiz-adv-x="661" 
d="M212 365c31 -2 107 -3 133 -3c113 0 153 30 153 126c0 94 -37 122 -142 122h-144v-245zM92 0v720h269c180 0 255 -62 255 -231c0 -165 -79 -236 -265 -236c-24 0 -109 1 -139 3v-256h-120z" />
    <glyph glyph-name="Q" unicode="Q" horiz-adv-x="727" 
d="M363 731c151 0 232 -49 273 -161c21 -56 29 -128 29 -210c0 -81 -8 -154 -29 -210c-26 -70 -67 -115 -131 -139l107 -140h-142l-84 119c-8 -1 -15 -1 -23 -1c-149 0 -231 49 -272 161c-20 56 -29 129 -29 210c0 82 9 154 29 210c41 112 123 161 272 161zM363 99
c97 0 141 34 164 106c12 39 16 92 16 155c0 64 -4 116 -16 155c-23 72 -67 106 -164 106c-96 0 -140 -34 -162 -106c-13 -39 -17 -91 -17 -155c0 -63 4 -116 17 -155c22 -72 66 -106 162 -106z" />
    <glyph glyph-name="R" unicode="R" horiz-adv-x="678" 
d="M92 0v720h272c186 0 256 -65 256 -230c0 -121 -50 -191 -152 -218l172 -272h-139l-155 260h-134v-260h-120zM212 368h139c110 0 150 35 150 121c0 89 -37 122 -142 122h-147v-243z" />
    <glyph glyph-name="S" unicode="S" horiz-adv-x="625" 
d="M348 731c83 0 162 -15 209 -36l-20 -103c-51 16 -122 28 -192 28c-105 0 -157 -36 -157 -98c0 -50 31 -75 84 -88c55 -14 96 -24 150 -39c111 -29 158 -84 158 -192c0 -142 -98 -214 -282 -214c-82 0 -181 14 -241 39l19 109c63 -22 140 -37 216 -37c101 0 169 27 169 99
c0 53 -27 76 -84 90c-56 14 -96 24 -148 38c-106 27 -161 81 -161 189c0 154 108 215 280 215z" />
    <glyph glyph-name="T" unicode="T" horiz-adv-x="647" 
d="M384 0h-120v607h-234v113h587v-113h-233v-607z" />
    <glyph glyph-name="uni0422" unicode="&#x422;" horiz-adv-x="647" 
d="M384 0h-120v607h-234v113h587v-113h-233v-607z" />
    <glyph glyph-name="U" unicode="U" horiz-adv-x="737" 
d="M369 99c125 0 168 57 168 210v411h118v-411c0 -216 -71 -320 -286 -320c-214 0 -287 103 -287 319v412h120v-411c0 -152 42 -210 167 -210z" />
    <glyph glyph-name="V" unicode="V" horiz-adv-x="685" 
d="M275 0l-262 720h127l209 -603l208 603h122l-260 -720h-144z" />
    <glyph glyph-name="W" unicode="W" horiz-adv-x="1053" 
d="M227 0l-192 720h121l150 -590l152 590h145l158 -593l144 593h119l-186 -720h-150l-158 587l-154 -587h-149z" />
    <glyph glyph-name="X" unicode="X" horiz-adv-x="684" 
d="M530 0l-185 294l-182 -294h-138l239 367l-235 353h141l176 -279l172 279h136l-229 -349l244 -371h-139z" />
    <glyph glyph-name="uni0425" unicode="&#x425;" horiz-adv-x="679" 
d="M524 0l-185 294l-182 -294h-138l239 367l-235 353h141l176 -279l172 279h136l-229 -349l244 -371h-139z" />
    <glyph glyph-name="Y" unicode="Y" horiz-adv-x="648" 
d="M385 0h-121v295l-255 425h136l183 -313l182 313h132l-257 -423v-297z" />
    <glyph glyph-name="Z" unicode="Z" horiz-adv-x="656" 
d="M599 608l-400 -496h409v-112h-549v112l399 496h-399v112h540v-112z" />
    <glyph glyph-name="a" unicode="a" horiz-adv-x="604" 
d="M399 370v38c0 69 -34 87 -118 87c-62 0 -131 -13 -198 -35l-19 100c69 26 156 41 226 41c156 0 224 -51 224 -190v-276c0 -33 15 -46 48 -47c12 -1 21 0 25 0v-89c-13 -4 -37 -8 -64 -8c-63 0 -97 19 -115 70c-66 -46 -121 -72 -201 -72c-103 0 -164 59 -164 165
c0 105 56 151 162 178c62 15 130 27 194 38zM400 281c-53 -9 -113 -21 -164 -36c-49 -14 -77 -34 -77 -85c0 -50 30 -69 75 -69c55 0 104 22 166 58v132z" />
    <glyph glyph-name="uni0430" unicode="&#x430;" horiz-adv-x="604" 
d="M399 370v38c0 69 -34 87 -118 87c-62 0 -131 -13 -198 -35l-19 100c69 26 156 41 226 41c156 0 224 -51 224 -190v-276c0 -33 15 -46 48 -47c12 -1 21 0 25 0v-89c-13 -4 -37 -8 -64 -8c-63 0 -97 19 -115 70c-66 -46 -121 -72 -201 -72c-103 0 -164 59 -164 165
c0 105 56 151 162 178c62 15 130 27 194 38zM400 281c-53 -9 -113 -21 -164 -36c-49 -14 -77 -34 -77 -85c0 -50 30 -69 75 -69c55 0 104 22 166 58v132z" />
    <glyph glyph-name="acute" unicode="&#xb4;" horiz-adv-x="348" 
d="M248 829l52 -88l-210 -106l-37 63z" />
    <glyph glyph-name="acute.cap" horiz-adv-x="348" 
d="M255 949l47 -90l-226 -99l-33 66z" />
    <glyph glyph-name="ampersand" unicode="&#x26;" horiz-adv-x="728" 
d="M583 377l99 -12c-8 -104 -35 -188 -79 -249l111 -116h-142l-43 45c-55 -38 -123 -56 -203 -56c-169 0 -269 63 -269 210c0 99 53 155 148 189c-42 50 -65 97 -65 156c0 122 84 187 221 187c129 0 207 -64 207 -183c0 -102 -56 -162 -189 -198l152 -159
c28 46 45 107 52 186zM327 91c51 0 95 9 130 29c-67 71 -146 152 -191 200c-64 -25 -96 -59 -96 -116c0 -75 54 -113 157 -113zM466 543c0 58 -35 90 -106 90c-69 0 -110 -32 -110 -90c0 -39 18 -73 53 -111c3 -4 7 -8 12 -13c100 28 151 65 151 124z" />
    <glyph glyph-name="approxequal" unicode="&#x2248;" horiz-adv-x="615" 
d="M412 374c-85 0 -141 78 -201 78c-42 0 -63 -29 -83 -79l-85 22c22 110 82 158 161 158c85 0 145 -77 200 -77c41 0 62 24 82 81l84 -25c-28 -113 -79 -158 -158 -158zM411 154c-91 0 -145 79 -205 79c-42 0 -57 -30 -74 -79l-85 21c17 110 78 159 156 159
c83 0 143 -80 198 -80c44 0 67 27 87 85l84 -25c-26 -116 -82 -160 -161 -160z" />
    <glyph glyph-name="asciicircum" unicode="^" horiz-adv-x="558" 
d="M34 379l186 341h116l187 -341h-115l-128 247l-132 -247h-114z" />
    <glyph glyph-name="asciitilde" unicode="~" horiz-adv-x="636" 
d="M498 433h94c1 -130 -59 -204 -150 -204c-54 0 -89 20 -133 54c-38 28 -64 53 -97 53c-43 0 -69 -37 -75 -105h-93c2 138 72 204 162 204c55 0 97 -28 141 -63c40 -31 58 -45 84 -45c48 0 63 44 67 106z" />
    <glyph glyph-name="asterisk" unicode="*" horiz-adv-x="444" 
d="M182 568l-131 -42l-20 97l137 16l-81 111l85 49l58 -125l81 111l73 -66l-100 -93l130 -43l-41 -90l-119 68l-2 -137l-97 10z" />
    <glyph glyph-name="at" unicode="@" horiz-adv-x="909" 
d="M554 425c-24 6 -45 8 -65 8c-72 0 -115 -30 -115 -135c0 -89 27 -124 82 -124c40 0 68 13 98 33v218zM652 7l21 -95c-44 -20 -131 -32 -197 -32c-282 0 -418 129 -418 420c0 295 174 425 424 425c235 0 379 -115 379 -361c0 -164 -57 -282 -184 -282
c-41 0 -83 10 -110 56c-33 -30 -68 -54 -132 -54c-111 0 -162 78 -162 214c0 161 84 224 216 224c54 0 107 -9 160 -27v-272c0 -34 11 -47 32 -47h3c47 0 76 61 76 186c0 191 -104 262 -279 262c-192 0 -313 -97 -313 -323c0 -229 96 -319 312 -319c55 0 120 9 172 25z" />
    <glyph glyph-name="b" unicode="b" horiz-adv-x="632" 
d="M313 -11c-83 0 -167 13 -237 32v749h117v-227c67 35 113 57 189 57c136 0 202 -90 202 -291c0 -227 -74 -320 -271 -320zM315 94c116 0 153 56 153 213c0 142 -36 186 -123 186c-56 0 -108 -20 -152 -44v-341c35 -9 71 -14 122 -14z" />
    <glyph glyph-name="backslash" unicode="\" horiz-adv-x="413" 
d="M1 770h111l300 -950h-111z" />
    <glyph glyph-name="backslash.cap" horiz-adv-x="374" 
d="M1 779h111l261 -843h-112z" />
    <glyph glyph-name="bar" unicode="|" horiz-adv-x="334" 
d="M112 770h110v-950h-110v950z" />
    <glyph glyph-name="bar.cap" horiz-adv-x="336" 
d="M112 779h112v-843h-112v843z" />
    <glyph glyph-name="braceleft" unicode="{" horiz-adv-x="389" 
d="M70 247h-34v94h34c54 0 66 29 66 83v162c0 136 65 185 187 185c8 0 45 -1 51 -1v-97h-45c-54 0 -84 -23 -84 -92v-153c0 -62 -19 -113 -71 -134c52 -21 71 -72 71 -133v-149c0 -70 30 -96 84 -96c7 0 38 0 45 1v-97c-6 -1 -38 -2 -47 -2c-128 0 -191 50 -191 186v161
c0 54 -12 82 -66 82z" />
    <glyph glyph-name="braceleft.cap" horiz-adv-x="382" 
d="M60 306h-30v93h30c54 0 68 25 68 78v138c0 131 54 182 173 182c12 0 47 0 56 -1v-93h-44c-48 0 -75 -20 -75 -85v-137c0 -63 -19 -109 -72 -128c53 -20 72 -68 72 -130v-132c0 -65 27 -87 75 -87h44v-93c-10 -1 -37 -1 -50 -1c-125 0 -179 50 -179 181v139
c0 53 -14 76 -68 76z" />
    <glyph glyph-name="braceright" unicode="}" horiz-adv-x="389" 
d="M319 248c-54 0 -66 -29 -66 -83v-161c0 -136 -63 -186 -191 -186c-8 0 -41 1 -47 2v97c6 -1 39 -1 45 -1c54 0 84 26 84 95v150c0 62 19 112 71 133c-52 21 -71 72 -71 134v152c0 69 -30 93 -84 93h-45v96c6 1 42 2 51 2c122 0 187 -49 187 -186v-161
c0 -54 12 -83 66 -83h34v-93h-34z" />
    <glyph glyph-name="braceright.cap" horiz-adv-x="382" 
d="M322 401h30v-93h-30c-54 0 -67 -24 -67 -77v-140c0 -131 -55 -181 -174 -181c-13 0 -46 0 -55 1v93h44c48 0 75 20 75 85v138c0 63 18 109 71 128c-53 19 -71 67 -71 130v131c0 65 -27 87 -75 87h-44v93c8 1 38 1 50 1c124 0 179 -51 179 -182v-137c0 -53 13 -77 67 -77z
" />
    <glyph glyph-name="bracketleft" unicode="[" horiz-adv-x="355" 
d="M93 -180v950h224v-96h-116v-758h116v-96h-224z" />
    <glyph glyph-name="bracketleft.cap" horiz-adv-x="352" 
d="M93 -88v882h226v-97h-117v-688h117v-97h-226z" />
    <glyph glyph-name="bracketright" unicode="]" horiz-adv-x="355" 
d="M262 770v-950h-224v96h117v758h-117v96h224z" />
    <glyph glyph-name="bracketright.cap" horiz-adv-x="352" 
d="M259 794v-882h-226v97h117v688h-117v97h226z" />
    <glyph glyph-name="brokenbar" unicode="&#xa6;" horiz-adv-x="334" 
d="M112 770h110v-411h-110v411zM112 252h110v-432h-110v432z" />
    <glyph glyph-name="brokenbar.cap" horiz-adv-x="336" 
d="M112 779h112v-360h-112v360zM112 312h112v-376h-112v376z" />
    <glyph glyph-name="bullet" unicode="&#x2022;" horiz-adv-x="307" 
d="M153 255c-57 0 -97 36 -97 97c0 62 40 98 97 98c60 0 99 -36 99 -98c0 -60 -39 -97 -99 -97z" />
    <glyph glyph-name="c" unicode="c" horiz-adv-x="531" 
d="M327 493c-113 0 -162 -46 -162 -198c0 -138 35 -198 160 -198c52 0 110 10 151 25l17 -100c-43 -20 -115 -33 -179 -33c-193 0 -266 100 -266 306c0 211 79 306 269 306c62 0 133 -13 176 -33l-17 -100c-41 14 -98 25 -149 25z" />
    <glyph glyph-name="uni0441" unicode="&#x441;" horiz-adv-x="531" 
d="M327 493c-113 0 -162 -46 -162 -198c0 -138 35 -198 160 -198c52 0 110 10 151 25l17 -100c-43 -20 -115 -33 -179 -33c-193 0 -266 100 -266 306c0 211 79 306 269 306c62 0 133 -13 176 -33l-17 -100c-41 14 -98 25 -149 25z" />
    <glyph glyph-name="cent" unicode="&#xa2;" horiz-adv-x="563" 
d="M275 -18v79c-156 17 -216 117 -216 304c0 190 64 286 216 303v70h94v-69c50 -4 101 -16 135 -31l-17 -100c-41 14 -98 25 -149 25c-113 0 -162 -46 -162 -198c0 -138 35 -198 160 -198c52 0 110 10 151 25l17 -100c-34 -16 -84 -27 -135 -31v-79h-94z" />
    <glyph glyph-name="colon" unicode=":" horiz-adv-x="240" 
d="M120 128c44 0 68 -16 68 -69s-24 -70 -68 -70s-68 17 -68 70s24 69 68 69zM120 587c44 0 68 -16 68 -69s-24 -70 -68 -70s-68 17 -68 70s24 69 68 69z" />
    <glyph glyph-name="period" unicode="." horiz-adv-x="240" 
d="M120 128c44 0 68 -16 68 -69s-24 -70 -68 -70s-68 17 -68 70s24 69 68 69z" />
    <glyph glyph-name="comma" unicode="," horiz-adv-x="244" 
d="M79 -143l-43 55c29 26 59 56 78 82h-1c-48 2 -64 26 -64 65c0 48 26 69 72 69c51 0 69 -31 69 -86c0 -41 -11 -75 -30 -104s-45 -56 -81 -81z" />
    <glyph glyph-name="copyright" unicode="&#xa9;" horiz-adv-x="808" 
d="M405 46c182 0 291 115 291 314c0 195 -106 313 -291 313c-188 0 -292 -118 -292 -313c0 -197 107 -314 292 -314zM406 -12c-224 0 -356 147 -356 372c0 226 132 371 356 371c221 0 352 -147 352 -371c0 -225 -131 -372 -352 -372zM427 502c-80 0 -122 -35 -122 -140
c0 -103 40 -139 119 -139c39 0 81 6 113 18l14 -84c-32 -16 -82 -26 -135 -26c-127 0 -207 60 -207 229c0 168 79 233 210 233c50 0 100 -10 132 -26l-15 -83c-32 11 -72 18 -109 18z" />
    <glyph glyph-name="currency" unicode="&#xa4;" horiz-adv-x="769" 
d="M726 107l-68 -71l-109 103c-39 -34 -93 -50 -159 -50c-70 0 -127 18 -167 54l-112 -109l-69 70l128 122c-12 34 -18 74 -18 121c0 45 6 84 18 117l-128 122l69 72l113 -110c41 37 97 56 166 56c66 0 120 -18 159 -52l109 106l68 -71l-123 -114c13 -35 21 -77 21 -126
s-7 -91 -20 -126zM511 347c0 104 -38 151 -121 151c-86 0 -125 -47 -125 -151c0 -109 40 -152 124 -152s122 46 122 152z" />
    <glyph glyph-name="cyrbreve" horiz-adv-x="456" 
d="M228 642c-109 0 -161 44 -166 136h95c6 -47 26 -63 71 -63c46 0 66 16 72 63h95c-5 -92 -57 -136 -167 -136z" />
    <glyph glyph-name="cyrbreve.cap" horiz-adv-x="464" 
d="M233 774c-129 0 -169 52 -177 139h97c7 -40 19 -66 80 -66s72 26 79 66h98c-8 -87 -49 -139 -177 -139z" />
    <glyph glyph-name="d" unicode="d" horiz-adv-x="632" 
d="M332 495c-110 0 -168 -43 -168 -206c0 -153 43 -192 124 -192c55 0 105 16 150 44v341c-32 9 -65 13 -106 13zM441 46c-55 -35 -112 -56 -180 -56c-143 0 -213 89 -213 298c0 227 95 312 269 312c38 0 78 -5 121 -14v184h118v-770h-115v46z" />
    <glyph glyph-name="dagger" unicode="&#x2020;" horiz-adv-x="539" 
d="M317 450l8 -505h-111l8 505h-182l4 104l178 -10l-7 187h109l-7 -187l178 10l4 -104h-182z" />
    <glyph glyph-name="daggerdbl" unicode="&#x2021;" horiz-adv-x="570" 
d="M510 142l-178 10l8 -207h-110l8 207l-178 -10l-4 103l180 2v203h-180l4 104l178 -10l-8 187h110l-8 -187l178 10l5 -104h-181v-203l181 -2z" />
    <glyph glyph-name="degree" unicode="&#xb0;" horiz-adv-x="390" 
d="M195 651c-44 0 -66 -27 -66 -81c0 -55 22 -81 66 -81c43 0 66 27 66 81s-22 81 -66 81zM195 731c102 0 154 -58 154 -161c0 -100 -51 -162 -154 -162c-104 0 -154 62 -154 162c0 103 50 161 154 161z" />
    <glyph glyph-name="dieresis" unicode="&#xa8;" horiz-adv-x="420" 
d="M114 785c38 0 63 -17 63 -63c0 -47 -25 -63 -63 -63c-39 0 -64 16 -64 63c0 46 25 63 64 63zM306 785c39 0 63 -17 63 -63c0 -47 -24 -63 -63 -63c-38 0 -63 16 -63 63c0 46 25 63 63 63z" />
    <glyph glyph-name="dieresis.cap" horiz-adv-x="425" 
d="M114 901c39 0 64 -17 64 -63c0 -47 -25 -63 -64 -63c-38 0 -63 16 -63 63c0 46 25 63 63 63zM309 901c39 0 63 -17 63 -63c0 -47 -24 -63 -63 -63c-38 0 -63 16 -63 63c0 46 25 63 63 63z" />
    <glyph glyph-name="divide" unicode="&#xf7;" horiz-adv-x="625" 
d="M54 408v-105h517v105h-517zM312 621c42 0 68 -18 68 -68c0 -51 -26 -69 -68 -69s-68 18 -68 69c0 50 26 68 68 68zM312 228c42 0 68 -19 68 -69s-26 -69 -68 -69s-68 19 -68 69s26 69 68 69z" />
    <glyph glyph-name="dollar" unicode="$" horiz-adv-x="610" 
d="M370 -55h-110v63c-72 2 -158 16 -205 36l19 105c54 -18 142 -31 205 -31c117 0 166 26 166 87c0 52 -25 72 -78 85c-54 13 -94 21 -145 34c-104 26 -164 72 -164 181c0 130 83 185 202 200v70h110v-67c64 -4 126 -18 164 -34l-20 -103c-51 17 -116 28 -180 28
c-86 0 -158 -15 -158 -87c0 -46 28 -65 80 -79c55 -15 88 -21 145 -36c117 -30 160 -84 160 -187c0 -119 -68 -179 -191 -197v-68z" />
    <glyph glyph-name="dotlessj" horiz-adv-x="278" 
d="M40 -191c-31 0 -62 4 -92 12l12 95c16 -3 35 -5 53 -5c45 0 71 15 71 73v606h118v-606c0 -126 -52 -175 -162 -175z" />
    <glyph glyph-name="e" unicode="e" horiz-adv-x="576" 
d="M508 123l16 -100c-54 -24 -126 -34 -203 -34c-207 0 -273 98 -273 308c0 221 101 304 277 304c136 0 212 -60 212 -174v-7c0 -87 -30 -129 -125 -148c-66 -14 -162 -27 -248 -37c11 -105 51 -140 168 -140c65 0 131 11 176 28zM323 502c-98 0 -159 -35 -163 -178
c84 11 174 26 223 37c34 9 45 26 45 57v5c0 53 -32 79 -105 79z" />
    <glyph glyph-name="uni0435" unicode="&#x435;" horiz-adv-x="576" 
d="M508 123l16 -100c-54 -24 -126 -34 -203 -34c-207 0 -273 98 -273 308c0 221 101 304 277 304c136 0 212 -60 212 -174v-7c0 -87 -30 -129 -125 -148c-66 -14 -162 -27 -248 -37c11 -105 51 -140 168 -140c65 0 131 11 176 28zM323 502c-98 0 -159 -35 -163 -178
c84 11 174 26 223 37c34 9 45 26 45 57v5c0 53 -32 79 -105 79z" />
    <glyph glyph-name="eight" unicode="8" horiz-adv-x="660" 
d="M604 204c0 -139 -86 -217 -273 -217c-183 0 -275 75 -275 212c0 89 39 145 118 172c-64 24 -101 71 -101 161c0 140 103 201 259 201c161 0 256 -60 256 -199c0 -90 -36 -134 -103 -161c83 -26 119 -75 119 -169zM331 93c102 0 155 33 155 114c0 83 -45 114 -154 114
c-103 0 -157 -31 -157 -114c0 -81 55 -114 156 -114zM189 519c0 -74 50 -101 143 -101c90 0 143 25 143 103c0 79 -54 106 -141 106c-84 0 -145 -27 -145 -108z" />
    <glyph glyph-name="eight.tnum_lnum" 
d="M593 204c0 -139 -85 -217 -272 -217c-183 0 -273 75 -273 212c0 89 39 145 119 172c-64 24 -102 71 -102 161c0 140 101 201 258 201c161 0 254 -60 254 -199c0 -89 -37 -134 -103 -161c83 -26 119 -75 119 -169zM322 93c101 0 152 33 152 114c0 83 -43 114 -151 114
c-104 0 -155 -31 -155 -114c0 -81 53 -114 154 -114zM181 519c0 -74 48 -101 141 -101c90 0 141 25 141 103c0 79 -52 106 -139 106c-84 0 -143 -27 -143 -108z" />
    <glyph glyph-name="ellipsis" unicode="&#x2026;" horiz-adv-x="687" 
d="M120 128c44 0 68 -16 68 -69s-24 -70 -68 -70s-68 17 -68 70s24 69 68 69zM343 128c44 0 68 -16 68 -69s-24 -70 -68 -70s-68 17 -68 70s24 69 68 69zM567 128c44 0 68 -16 68 -69s-24 -70 -68 -70s-68 17 -68 70s24 69 68 69z" />
    <glyph glyph-name="emdash" unicode="&#x2014;" horiz-adv-x="854" 
d="M56 361h741v-103h-741v103z" />
    <glyph glyph-name="emdash.cap" horiz-adv-x="854" 
d="M56 419h741v-103h-741v103z" />
    <glyph glyph-name="endash" unicode="&#x2013;" horiz-adv-x="564" 
d="M56 361h451v-103h-451v103z" />
    <glyph glyph-name="endash.cap" horiz-adv-x="564" 
d="M56 419h451v-103h-451v103z" />
    <glyph glyph-name="equal" unicode="=" horiz-adv-x="575" 
d="M54 191v105h467v-105h-467zM54 415v105h467v-105h-467z" />
    <glyph glyph-name="exclam" unicode="!" horiz-adv-x="310" 
d="M200 217h-93l-6 93c-2 42 -5 76 -6 105c-2 95 -3 210 -3 311h123c0 -101 0 -216 -3 -311c-1 -29 -3 -63 -6 -104zM153 128c44 0 68 -16 68 -69s-24 -70 -68 -70s-68 17 -68 70s24 69 68 69z" />
    <glyph glyph-name="f" unicode="f" horiz-adv-x="389" 
d="M371 570v-101h-150v-469h-115v469h-79v101h79v33c0 145 77 178 186 178c39 0 70 -6 95 -12l-13 -97c-16 3 -40 7 -64 7c-56 0 -89 -13 -89 -83v-26h150z" />
    <glyph glyph-name="five" unicode="5" horiz-adv-x="604" 
d="M537 609h-340l-6 -184c41 11 89 19 138 19c164 0 236 -61 236 -219c0 -155 -84 -236 -276 -236c-85 0 -171 15 -233 41l21 108c51 -20 132 -37 204 -37c117 0 167 33 167 122c0 84 -39 115 -142 115c-46 0 -99 -8 -140 -20l-84 35l11 367h444v-111z" />
    <glyph glyph-name="five.tnum_lnum" 
d="M550 609h-345l-6 -184c42 11 92 19 140 19c164 0 239 -61 239 -219c0 -155 -87 -236 -278 -236c-86 0 -174 15 -236 41l21 108c51 -20 134 -37 206 -37c120 0 170 33 170 122c0 84 -39 115 -144 115c-47 0 -101 -8 -143 -20l-84 35l11 367h449v-111z" />
    <glyph glyph-name="four" unicode="4" horiz-adv-x="641" 
d="M414 0v151h-375v102l325 467h158v-467h85v-102h-85v-151h-108zM159 253h255v364z" />
    <glyph glyph-name="four.tnum_lnum" 
d="M412 0v151h-375v102l325 467h158v-467h85v-102h-85v-151h-108zM157 253h255v364z" />
    <glyph glyph-name="franc" unicode="&#x20a3;" horiz-adv-x="739" 
d="M89 0v720h470v-113h-350v-188h317v-52c15 11 26 18 41 27c36 23 66 33 108 33c13 0 27 -2 39 -5l-9 -106c-9 1 -16 1 -28 1c-32 0 -60 -5 -96 -21c-17 -7 -33 -16 -52 -28v-268h-109v314h-211v-314h-120z" />
    <glyph glyph-name="g" unicode="g" horiz-adv-x="632" 
d="M332 497c-111 0 -168 -46 -168 -179c0 -119 33 -169 117 -169c63 0 111 16 159 42v294c-34 8 -69 12 -108 12zM289 -86c107 0 152 27 152 126v58c-56 -33 -111 -52 -186 -52c-139 0 -207 84 -207 272c0 198 98 283 286 283c78 0 157 -11 222 -30v-524
c0 -181 -90 -238 -258 -238c-69 0 -150 12 -204 33l17 102c52 -19 124 -30 178 -30z" />
    <glyph glyph-name="grave" unicode="`" horiz-adv-x="348" 
d="M104 829l196 -131l-38 -63l-209 106z" />
    <glyph glyph-name="grave.cap" horiz-adv-x="348" 
d="M89 949l213 -123l-34 -66l-225 99z" />
    <glyph glyph-name="greater" unicode="&#x3e;" horiz-adv-x="553" 
d="M503 424v-131l-443 -179v111l353 132l-353 132v112z" />
    <glyph glyph-name="greaterequal" unicode="&#x2265;" horiz-adv-x="556" 
d="M498 492v-126l-436 -161v106l350 118l-350 121v106zM62 163h436v-98h-436v98z" />
    <glyph glyph-name="guillemotleft" unicode="&#xab;" horiz-adv-x="487" 
d="M144 76l-115 227l115 226h105l-111 -226l111 -227h-105zM347 76l-115 227l115 226h105l-111 -226l111 -227h-105z" />
    <glyph glyph-name="guillemotleft.cap" horiz-adv-x="487" 
d="M144 138l-115 227l115 226h105l-111 -226l111 -227h-105zM347 138l-115 227l115 226h105l-111 -226l111 -227h-105z" />
    <glyph glyph-name="guillemotright" unicode="&#xbb;" horiz-adv-x="486" 
d="M342 529l115 -227l-115 -226h-105l111 226l-111 227h105zM140 529l115 -227l-115 -226h-105l111 226l-111 227h105z" />
    <glyph glyph-name="guillemotright.cap" horiz-adv-x="486" 
d="M342 591l115 -227l-115 -226h-105l111 226l-111 227h105zM140 591l115 -227l-115 -226h-105l111 226l-111 227h105z" />
    <glyph glyph-name="guilsinglleft" unicode="&#x2039;" horiz-adv-x="316" 
d="M168 76l-139 227l138 226h113l-139 -226l139 -227h-112z" />
    <glyph glyph-name="guilsinglleft.cap" horiz-adv-x="316" 
d="M168 138l-139 227l138 226h113l-139 -226l139 -227h-112z" />
    <glyph glyph-name="guilsinglright" unicode="&#x203a;" horiz-adv-x="316" 
d="M149 529l138 -227l-138 -226h-113l139 226l-139 227h113z" />
    <glyph glyph-name="guilsinglright.cap" horiz-adv-x="316" 
d="M149 591l138 -227l-138 -226h-113l139 226l-139 227h113z" />
    <glyph glyph-name="h" unicode="h" horiz-adv-x="646" 
d="M193 0h-117v770h117v-228c62 35 123 58 194 58c117 0 187 -56 187 -197v-403h-118v392c0 76 -35 101 -110 101c-48 0 -104 -17 -153 -44v-449z" />
    <glyph glyph-name="n" unicode="n" horiz-adv-x="646" 
d="M193 0h-117v590h116v-48c63 35 124 58 195 58c117 0 187 -56 187 -197v-403h-118v392c0 76 -35 101 -110 101c-48 0 -104 -17 -153 -44v-449z" />
    <glyph glyph-name="hyphen" unicode="-" horiz-adv-x="394" 
d="M56 361h281v-103h-281v103z" />
    <glyph glyph-name="hyphen.cap" horiz-adv-x="394" 
d="M56 419h281v-103h-281v103z" />
    <glyph glyph-name="i" unicode="i" horiz-adv-x="269" 
d="M193 590v-590h-117v590h117zM135 650c-43 0 -70 21 -70 67s27 66 70 66s69 -20 69 -66s-26 -67 -69 -67z" />
    <glyph glyph-name="infinity" unicode="&#x221e;" horiz-adv-x="893" 
d="M657 146c-92 0 -142 38 -209 125c-54 -72 -112 -125 -205 -125c-105 0 -192 69 -192 212c0 141 90 209 191 209c92 0 145 -51 207 -139c51 78 111 139 205 139c106 0 191 -70 191 -207c0 -144 -85 -214 -188 -214zM248 243c63 0 106 46 147 106c-48 78 -92 121 -147 121
c-52 0 -97 -36 -97 -112c0 -78 42 -115 97 -115zM650 470c-67 0 -106 -61 -148 -120c47 -63 84 -107 147 -107c58 0 96 37 96 116c0 74 -41 111 -95 111z" />
    <glyph glyph-name="j" unicode="j" horiz-adv-x="282" 
d="M148 650c-43 0 -70 21 -70 67s27 66 70 66s69 -20 69 -66s-26 -67 -69 -67zM44 -191c-31 0 -62 4 -92 12l12 95c16 -3 35 -5 53 -5c45 0 71 15 71 73v606h118v-606c0 -126 -52 -175 -162 -175z" />
    <glyph glyph-name="k" unicode="k" horiz-adv-x="594" 
d="M76 0v770h117v-435l98 38l154 217h135l-204 -275l203 -315h-137l-164 267l-85 -33v-234h-117z" />
    <glyph glyph-name="l" unicode="l" horiz-adv-x="268" 
d="M193 770v-770h-117v770h117z" />
    <glyph glyph-name="less" unicode="&#x3c;" horiz-adv-x="553" 
d="M50 288v131l443 182v-113l-354 -135l354 -130v-109z" />
    <glyph glyph-name="lessequal" unicode="&#x2264;" horiz-adv-x="556" 
d="M58 492l436 164v-106l-348 -122l348 -117v-106l-436 161v126zM494 163v-98h-436v98h436z" />
    <glyph glyph-name="logicalnot" unicode="&#xac;" horiz-adv-x="592" 
d="M421 171v186h-370v106h471v-292h-101z" />
    <glyph glyph-name="m" unicode="m" horiz-adv-x="1006" 
d="M193 0h-117v590h116v-48c59 33 123 58 190 58c65 0 117 -21 148 -67c74 43 142 67 217 67c116 0 187 -55 187 -201v-399h-118v393c0 71 -34 100 -107 100c-44 0 -88 -11 -150 -39c2 -16 4 -34 4 -53v-401h-117v393c0 71 -32 100 -100 100c-52 0 -103 -17 -153 -44v-449z
" />
    <glyph glyph-name="minus" unicode="&#x2212;" horiz-adv-x="569" 
d="M54 410h461v-110h-461v110z" />
    <glyph glyph-name="multiply" unicode="&#xd7;" horiz-adv-x="579" 
d="M120 119l-67 67l169 169l-166 166l70 69l165 -166l168 168l67 -67l-168 -168l168 -169l-69 -68l-168 168z" />
    <glyph glyph-name="nine" unicode="9" horiz-adv-x="641" 
d="M265 100c142 0 193 47 201 209c-55 -23 -110 -36 -184 -36c-153 0 -229 70 -229 219c0 169 103 239 258 239c207 0 271 -119 271 -363c0 -267 -80 -379 -314 -379c-73 0 -138 15 -191 36l21 102c51 -17 114 -27 167 -27zM303 380c61 0 109 9 164 29
c-6 168 -49 216 -155 216c-93 0 -144 -39 -144 -130c0 -79 31 -115 135 -115z" />
    <glyph glyph-name="nine.tnum_lnum" 
d="M263 100c142 0 197 47 206 208c-55 -22 -112 -35 -186 -35c-153 0 -228 70 -228 219c0 169 102 239 257 239c207 0 274 -119 274 -363c0 -267 -86 -379 -319 -379c-69 0 -138 15 -191 36l21 102c52 -17 117 -27 166 -27zM304 379c62 0 112 10 166 29
c-6 169 -49 217 -157 217c-92 0 -144 -38 -144 -130c0 -79 32 -116 135 -116z" />
    <glyph glyph-name="notequal" unicode="&#x2260;" horiz-adv-x="605" 
d="M64 515h313l90 123l59 -42l-59 -81h74v-100h-147l-94 -128h241v-100h-314l-95 -131l-58 41l65 90h-75v100h148l93 128h-241v100z" />
    <glyph glyph-name="numbersign" unicode="#" horiz-adv-x="720" 
d="M71 453l13 101h115l22 177h98l-22 -177h166l22 177h98l-22 -177h117l-12 -101h-117l-23 -185h116l-12 -101h-116l-22 -178h-98l22 178h-166l-22 -178h-99l22 178h-117l14 101h115l23 185h-115zM285 453l-23 -185h166l23 185h-166z" />
    <glyph glyph-name="o" unicode="o" horiz-adv-x="621" 
d="M310 -12c-109 0 -185 34 -222 105c-27 51 -40 114 -40 202s13 151 40 202c37 71 113 105 222 105c110 0 186 -34 223 -105c27 -51 40 -114 40 -202s-13 -151 -40 -202c-37 -71 -113 -105 -223 -105zM310 94c58 0 98 16 119 53c19 33 28 81 28 148s-9 115 -28 148
c-21 37 -61 53 -119 53s-97 -16 -118 -53c-19 -33 -28 -81 -28 -148s9 -115 28 -148c21 -37 60 -53 118 -53z" />
    <glyph glyph-name="uni043E" unicode="&#x43e;" horiz-adv-x="621" 
d="M310 -12c-109 0 -185 34 -222 105c-27 51 -40 114 -40 202s13 151 40 202c37 71 113 105 222 105c110 0 186 -34 223 -105c27 -51 40 -114 40 -202s-13 -151 -40 -202c-37 -71 -113 -105 -223 -105zM310 94c58 0 98 16 119 53c19 33 28 81 28 148s-9 115 -28 148
c-21 37 -61 53 -119 53s-97 -16 -118 -53c-19 -33 -28 -81 -28 -148s9 -115 28 -148c21 -37 60 -53 118 -53z" />
    <glyph glyph-name="one" unicode="1" horiz-adv-x="412" 
d="M18 621l200 99h100v-720h-116v589l-161 -68z" />
    <glyph glyph-name="one.tnum_lnum" 
d="M80 0v110h222v475l-205 -91l-26 105l247 121h99v-610h192v-110h-529z" />
    <glyph glyph-name="p" unicode="p" horiz-adv-x="632" 
d="M323 -10c-41 0 -88 7 -130 16v-186h-117v770h115v-48c65 37 117 58 181 58c148 0 212 -88 212 -292c0 -226 -75 -318 -261 -318zM319 94c111 0 149 58 149 212c0 131 -27 187 -125 187c-49 0 -103 -17 -150 -44v-341c40 -9 82 -14 126 -14z" />
    <glyph glyph-name="uni0440" unicode="&#x440;" horiz-adv-x="632" 
d="M323 -10c-41 0 -88 7 -130 16v-186h-117v770h115v-48c65 37 117 58 181 58c148 0 212 -88 212 -292c0 -226 -75 -318 -261 -318zM319 94c111 0 149 58 149 212c0 131 -27 187 -125 187c-49 0 -103 -17 -150 -44v-341c40 -9 82 -14 126 -14z" />
    <glyph glyph-name="paragraph" unicode="&#xb6;" horiz-adv-x="758" 
d="M544 611h-110v-791h-108v293c-13 -1 -27 -2 -39 -2c-152 1 -243 52 -243 305c0 255 96 304 243 304h438v-109h-69v-791h-112v791z" />
    <glyph glyph-name="parenleft" unicode="(" horiz-adv-x="362" 
d="M69 295c0 234 92 393 220 492l58 -76c-92 -85 -166 -218 -166 -416c0 -202 71 -331 166 -416l-58 -76c-128 99 -220 253 -220 492z" />
    <glyph glyph-name="parenleft.cap" horiz-adv-x="346" 
d="M262 -96c-114 90 -204 224 -204 449c0 216 90 358 204 448l60 -78c-83 -74 -151 -197 -151 -370c0 -174 64 -300 150 -371z" />
    <glyph glyph-name="parenright" unicode=")" horiz-adv-x="362" 
d="M294 295c0 -234 -93 -393 -220 -492l-59 76c92 85 166 218 166 416c0 202 -70 331 -166 416l59 76c127 -99 220 -253 220 -492z" />
    <glyph glyph-name="parenright.cap" horiz-adv-x="346" 
d="M83 801c115 -90 205 -224 205 -450c0 -215 -90 -357 -205 -447l-60 78c83 74 152 197 152 369c0 175 -64 301 -151 371z" />
    <glyph glyph-name="percent" unicode="%" horiz-adv-x="893" 
d="M695 720l-382 -720h-113l382 720h113zM209 447c58 0 78 37 78 99c0 64 -20 99 -78 99c-57 0 -77 -35 -77 -99c0 -62 20 -99 77 -99zM209 730c111 0 171 -58 171 -184c0 -124 -60 -183 -171 -183s-170 59 -170 183c0 126 59 184 170 184zM684 74c58 0 78 36 78 99
s-20 99 -78 99c-57 0 -77 -36 -77 -99s20 -99 77 -99zM684 356c111 0 171 -58 171 -183s-60 -184 -171 -184s-170 59 -170 184s59 183 170 183z" />
    <glyph glyph-name="perthousand" unicode="&#x2030;" horiz-adv-x="1288" 
d="M1085 74c57 0 77 36 77 99s-20 99 -77 99s-78 -36 -78 -99s21 -99 78 -99zM1085 356c111 0 170 -58 170 -183s-59 -184 -171 -184c-110 0 -170 59 -170 184s60 183 171 183zM695 720l-382 -720h-113l382 720h113zM209 447c58 0 78 37 78 99c0 64 -20 99 -78 99
c-57 0 -77 -35 -77 -99c0 -62 20 -99 77 -99zM209 730c111 0 171 -58 171 -184c0 -124 -60 -183 -171 -183s-170 59 -170 183c0 126 59 184 170 184zM684 74c58 0 78 36 78 99s-20 99 -78 99c-57 0 -77 -36 -77 -99s20 -99 77 -99zM684 356c111 0 171 -58 171 -183
s-60 -184 -171 -184s-170 59 -170 184s59 183 170 183z" />
    <glyph glyph-name="plus" unicode="+" horiz-adv-x="622" 
d="M361 99h-100v205h-207v104h207v203h100v-203h207v-104h-207v-205z" />
    <glyph glyph-name="plusminus" unicode="&#xb1;" horiz-adv-x="604" 
d="M253 211v169h-193v100h193v169h98v-169h193v-100h-193v-169h-98zM544 162v-97h-484v97h484z" />
    <glyph glyph-name="q" unicode="q" horiz-adv-x="632" 
d="M339 494c-117 0 -175 -43 -175 -203c0 -145 34 -194 124 -194c56 0 108 17 151 44v342c-35 8 -65 11 -100 11zM556 -180h-117v224c-51 -32 -102 -54 -181 -54c-137 0 -210 87 -210 299c0 229 94 312 295 312c85 0 146 -12 213 -30v-751z" />
    <glyph glyph-name="question" unicode="?" horiz-adv-x="482" 
d="M20 692c55 24 132 39 200 39c151 0 232 -61 232 -195c0 -64 -18 -112 -75 -165c-24 -22 -61 -59 -81 -79c-23 -23 -32 -40 -33 -82l-95 -1c-2 13 -3 26 -3 39c0 40 20 75 45 102c34 34 67 64 86 84c32 34 41 58 41 95c0 66 -42 93 -124 93c-55 0 -118 -12 -172 -32z
M216 128c44 0 68 -16 68 -69s-24 -70 -68 -70s-68 17 -68 70s24 69 68 69z" />
    <glyph glyph-name="quotedbl" unicode="&#x22;" horiz-adv-x="404" 
d="M159 467h-95l-8 309h112zM340 467h-95l-8 309h112z" />
    <glyph glyph-name="quotesingle" unicode="'" horiz-adv-x="223" 
d="M159 467h-95l-8 309h112z" />
    <glyph glyph-name="quotedbl.cap" horiz-adv-x="404" 
d="M159 422h-95l-8 309h112zM340 422h-95l-8 309h112z" />
    <glyph glyph-name="quotedblbase" unicode="&#x201e;" horiz-adv-x="413" 
d="M85 -143l-45 52c29 29 56 57 75 82h-1c-49 3 -64 28 -64 66c0 45 26 68 72 68c49 0 69 -31 69 -86c0 -41 -12 -76 -31 -104c-20 -29 -43 -53 -75 -78zM268 -143l-45 52c29 29 56 57 75 82h-1c-49 3 -64 28 -64 66c0 45 26 68 72 68c49 0 69 -31 69 -86
c0 -41 -12 -76 -31 -104c-20 -29 -43 -53 -75 -78z" />
    <glyph glyph-name="quotesinglbase" unicode="&#x201a;" horiz-adv-x="230" 
d="M85 -143l-45 52c29 29 56 57 75 82h-1c-49 3 -64 28 -64 66c0 45 26 68 72 68c49 0 69 -31 69 -86c0 -41 -12 -76 -31 -104c-20 -29 -43 -53 -75 -78z" />
    <glyph glyph-name="quotedblleft" unicode="&#x201c;" horiz-adv-x="416" 
d="M146 786l45 -52c-29 -30 -56 -56 -74 -82c49 -2 64 -27 64 -65c0 -46 -25 -69 -70 -69c-51 0 -70 32 -70 88c0 41 11 74 30 103c20 28 43 53 75 77zM332 786l45 -52c-29 -30 -56 -56 -74 -82c49 -2 64 -27 64 -65c0 -46 -25 -69 -70 -69c-51 0 -70 32 -70 88
c0 41 11 74 30 103c20 28 43 53 75 77z" />
    <glyph glyph-name="quoteleft" unicode="&#x2018;" horiz-adv-x="230" 
d="M146 786l45 -52c-29 -30 -56 -56 -74 -82c49 -2 64 -27 64 -65c0 -46 -25 -69 -70 -69c-51 0 -70 32 -70 88c0 41 11 74 30 103c20 28 43 53 75 77z" />
    <glyph glyph-name="quotedblleft.cap" horiz-adv-x="416" 
d="M146 740l45 -52c-29 -30 -56 -56 -74 -82c49 -2 64 -27 64 -65c0 -46 -25 -69 -70 -69c-51 0 -70 32 -70 88c0 41 11 74 30 103c20 28 43 53 75 77zM332 740l45 -52c-29 -30 -56 -56 -74 -82c49 -2 64 -27 64 -65c0 -46 -25 -69 -70 -69c-51 0 -70 32 -70 88
c0 41 11 74 30 103c20 28 43 53 75 77z" />
    <glyph glyph-name="quotedblright" unicode="&#x201d;" horiz-adv-x="415" 
d="M85 513l-45 52c29 29 56 57 75 82h-1c-49 3 -64 28 -64 66c0 45 26 68 72 68c49 0 69 -31 69 -86c0 -41 -12 -76 -31 -104c-20 -29 -43 -53 -75 -78zM271 513l-45 52c29 29 56 57 75 82h-1c-49 3 -64 28 -64 66c0 45 26 68 72 68c49 0 69 -31 69 -86
c0 -41 -12 -76 -31 -104c-20 -29 -43 -53 -75 -78z" />
    <glyph glyph-name="quotedblright.cap" horiz-adv-x="416" 
d="M85 467l-45 52c29 29 56 57 75 82h-1c-49 3 -64 28 -64 66c0 45 26 68 72 68c49 0 69 -31 69 -86c0 -41 -12 -76 -31 -104c-20 -29 -43 -53 -75 -78zM272 467l-45 52c29 29 56 57 75 82h-1c-49 3 -64 28 -64 66c0 45 26 68 72 68c49 0 69 -31 69 -86
c0 -41 -12 -76 -31 -104c-20 -29 -43 -53 -75 -78z" />
    <glyph glyph-name="quoteleft.cap" horiz-adv-x="230" 
d="M146 740l45 -52c-29 -30 -56 -56 -74 -82c49 -2 64 -27 64 -65c0 -46 -25 -69 -70 -69c-51 0 -70 32 -70 88c0 41 11 74 30 103c20 28 43 53 75 77z" />
    <glyph glyph-name="quoteright" unicode="&#x2019;" horiz-adv-x="230" 
d="M85 513l-45 52c29 29 56 57 75 82h-1c-49 3 -64 28 -64 66c0 45 26 68 72 68c49 0 69 -31 69 -86c0 -41 -12 -76 -31 -104c-20 -29 -43 -53 -75 -78z" />
    <glyph glyph-name="quoteright.cap" horiz-adv-x="230" 
d="M85 467l-45 52c29 29 56 57 75 82h-1c-49 3 -64 28 -64 66c0 45 26 68 72 68c49 0 69 -31 69 -86c0 -41 -12 -76 -31 -104c-20 -29 -43 -53 -75 -78z" />
    <glyph glyph-name="quotesingle.cap" horiz-adv-x="223" 
d="M159 422h-95l-8 309h112z" />
    <glyph glyph-name="r" unicode="r" horiz-adv-x="413" 
d="M193 0h-117v590h117v-56c17 13 32 24 48 34c36 22 68 31 112 31c20 0 36 -3 47 -5l-9 -106c-5 1 -18 1 -33 1c-35 0 -67 -6 -99 -20c-20 -9 -43 -22 -66 -37v-432z" />
    <glyph glyph-name="registered" unicode="&#xae;" horiz-adv-x="609" 
d="M306 227c-154 0 -258 96 -258 264s104 264 258 264c151 0 255 -96 255 -264s-104 -264 -255 -264zM305 277c118 0 202 72 202 214c0 141 -84 214 -202 214c-121 0 -202 -73 -202 -214c0 -142 81 -214 202 -214zM266 351h-61v288h109c74 0 106 -28 106 -91
c0 -47 -20 -76 -59 -86l67 -111h-68l-59 101h-35v-101zM266 505h49c31 0 47 10 47 40c0 28 -11 40 -50 40h-46v-80z" />
    <glyph glyph-name="rubel" unicode="&#x20bd;" horiz-adv-x="703" 
d="M46 375h88v345h260c190 0 263 -63 263 -224c0 -155 -72 -222 -260 -222h-145v-66h335v-90h-335v-118h-118v118h-88v90h88v69h-88v98zM252 376h142c111 0 143 32 143 119c0 86 -35 112 -144 112h-141v-231z" />
    <glyph glyph-name="s" unicode="s" horiz-adv-x="533" 
d="M45 24l17 101c50 -18 130 -31 187 -31c94 0 137 19 137 75c0 39 -20 54 -67 66l-120 28c-86 21 -145 57 -145 163c0 131 97 175 236 175c78 0 140 -13 186 -32l-17 -97c-43 14 -108 26 -172 26c-76 0 -120 -19 -120 -70c0 -37 23 -53 71 -66l118 -29
c96 -24 144 -66 144 -161c0 -132 -88 -183 -248 -183c-74 1 -159 15 -207 35z" />
    <glyph glyph-name="section" unicode="&#xa7;" horiz-adv-x="575" 
d="M516 284c0 -70 -33 -121 -80 -152c53 -26 79 -68 79 -139c0 -131 -88 -184 -245 -184c-71 0 -160 12 -203 31l17 101c42 -16 120 -28 181 -28c91 0 137 22 137 77c0 40 -22 56 -64 65c-54 12 -75 16 -126 28c-96 24 -149 77 -149 177c0 84 34 130 84 157
c-56 28 -81 73 -81 140c0 133 107 174 245 174c67 0 140 -13 184 -32l-18 -96c-41 14 -112 24 -166 24c-86 0 -133 -16 -133 -70c0 -37 21 -52 67 -66c47 -13 80 -20 129 -32c97 -24 142 -70 142 -175zM340 364c-33 9 -68 17 -100 24c-44 -21 -72 -60 -72 -115
c0 -51 26 -78 84 -92l94 -21c41 25 65 67 65 113c0 52 -24 78 -71 91z" />
    <glyph glyph-name="semicolon" unicode=";" horiz-adv-x="240" 
d="M120 587c44 0 68 -16 68 -69s-24 -70 -68 -70s-68 17 -68 70s24 69 68 69zM83 -143l-43 55c29 26 59 56 78 82h-1c-48 2 -64 26 -64 65c0 48 26 69 72 69c51 0 69 -31 69 -86c0 -41 -11 -75 -30 -104s-45 -56 -81 -81z" />
    <glyph glyph-name="seven" unicode="7" horiz-adv-x="571" 
d="M40 720h497v-105l-286 -615h-126l290 609h-375v111z" />
    <glyph glyph-name="seven.tnum_lnum" 
d="M60 720h516v-105l-292 -615h-125l297 609h-396v111z" />
    <glyph glyph-name="six" unicode="6" horiz-adv-x="635" 
d="M380 620c-128 0 -194 -43 -205 -207c59 20 127 31 183 31c160 0 231 -67 231 -215c0 -167 -91 -240 -252 -240c-219 0 -278 122 -278 373c0 272 108 369 321 369c66 0 137 -16 183 -35l-21 -102c-45 15 -97 26 -162 26zM342 341c-55 0 -117 -11 -167 -28
c6 -164 45 -217 157 -217c104 0 144 43 144 127c0 86 -38 118 -134 118z" />
    <glyph glyph-name="six.tnum_lnum" 
d="M377 620c-126 0 -193 -43 -204 -206c59 20 127 32 183 32c160 0 233 -69 233 -217c0 -167 -91 -240 -254 -240c-216 0 -279 116 -279 373c0 272 106 369 322 369c70 0 139 -16 184 -35l-21 -102c-45 14 -99 26 -164 26zM340 342c-54 0 -117 -11 -168 -28
c6 -165 46 -218 158 -218c105 0 146 43 146 127c0 86 -40 119 -136 119z" />
    <glyph glyph-name="slash" unicode="/" horiz-adv-x="414" 
d="M413 770l-300 -950h-112l300 950h112z" />
    <glyph glyph-name="slash.cap" horiz-adv-x="374" 
d="M373 779l-261 -843h-111l261 843h111z" />
    <glyph glyph-name="space" unicode=" " horiz-adv-x="237" 
 />
    <glyph glyph-name="sterling" unicode="&#xa3;" horiz-adv-x="619" 
d="M583 107v-107h-531v103c63 13 102 65 102 142c0 20 -1 42 -3 64h-84v95h77c-2 28 -4 55 -4 80c0 191 102 247 265 247c58 0 114 -9 155 -25l-20 -101c-32 7 -80 14 -121 14c-117 0 -164 -39 -164 -155c0 -17 0 -38 1 -60h229v-95h-224c1 -21 2 -40 2 -56
c0 -67 -16 -110 -48 -146h368z" />
    <glyph glyph-name="t" unicode="t" horiz-adv-x="395" 
d="M218 178c0 -66 25 -85 82 -85c24 0 48 3 66 7l12 -95c-27 -8 -62 -14 -102 -14c-109 0 -173 39 -173 183v295h-83v101h83v120h115v-120h148v-101h-148v-291z" />
    <glyph glyph-name="three" unicode="3" horiz-adv-x="610" 
d="M540 609l-230 -193c10 0 20 1 27 1c143 0 229 -43 229 -198c0 -156 -95 -230 -286 -230c-87 0 -178 17 -237 42l21 106c60 -19 132 -36 211 -36c122 0 173 34 173 118c0 80 -38 104 -143 104c-37 0 -74 -4 -110 -9l-25 95l227 200h-340v111h483v-111z" />
    <glyph glyph-name="three.tnum_lnum" 
d="M550 609l-233 -193c10 0 20 1 27 1c144 0 232 -43 232 -198c0 -156 -95 -230 -286 -230c-87 0 -182 17 -242 42l22 106c59 -19 137 -36 215 -36c123 0 173 34 173 118c0 80 -40 104 -145 104c-37 0 -77 -4 -112 -9l-26 95l233 200h-346v111h488v-111z" />
    <glyph glyph-name="trademark" unicode="&#x2122;" horiz-adv-x="888" 
d="M496 344h-81v376h102l104 -182l104 182h103v-376h-83v264l-95 -162h-60l-94 160v-262zM149 344v295h-122v81h331v-81h-123v-295h-86z" />
    <glyph glyph-name="two" unicode="2" horiz-adv-x="601" 
d="M284 731c163 0 254 -59 254 -205c0 -92 -42 -150 -113 -215l-220 -199h359v-112h-516v102c45 43 266 249 297 279c53 52 72 85 72 134c0 70 -38 104 -147 104c-63 0 -136 -17 -197 -40l-20 105c60 27 151 47 231 47z" />
    <glyph glyph-name="two.tnum_lnum" 
d="M296 731c164 0 255 -59 255 -205c0 -92 -43 -150 -113 -215c-25 -22 -149 -135 -221 -199h360v-112h-518v102l299 279c53 52 72 85 72 134c0 70 -39 104 -147 104c-63 0 -138 -17 -199 -40l-21 105c61 27 154 47 233 47z" />
    <glyph glyph-name="u" unicode="u" horiz-adv-x="646" 
d="M453 590h118v-590h-117v48c-54 -31 -122 -58 -192 -58c-122 0 -190 56 -190 204v396h118v-390c0 -74 32 -103 107 -103c57 0 110 20 156 44v449z" />
    <glyph glyph-name="underscore" unicode="_" horiz-adv-x="491" 
d="M0 -180v102h491v-102h-491z" />
    <glyph glyph-name="uni0400" unicode="&#x400;" horiz-adv-x="616" 
d="M229 950l213 -123l-34 -66l-225 99zM92 0v720h462v-113h-342v-185h294v-107h-294v-202h351v-113h-471z" />
    <glyph glyph-name="uni0401" unicode="&#x401;" horiz-adv-x="616" 
d="M92 0v720h462v-113h-342v-185h294v-107h-294v-202h351v-113h-471zM225 900c39 0 64 -17 64 -63c0 -47 -25 -63 -64 -63c-38 0 -63 16 -63 63c0 46 25 63 63 63zM420 900c39 0 63 -17 63 -63c0 -47 -24 -63 -63 -63c-38 0 -63 16 -63 63c0 46 25 63 63 63z" />
    <glyph glyph-name="uni0402" unicode="&#x402;" horiz-adv-x="839" 
d="M363 0h-119v608h-208v112h581v-112h-254v-194c58 17 126 28 185 28c149 0 222 -52 222 -215v-241c0 -121 -42 -176 -156 -176c-31 0 -63 3 -93 10l12 94c16 -2 34 -4 50 -4c47 0 70 15 70 74v234c0 92 -36 121 -128 121c-51 0 -110 -9 -162 -25v-314z" />
    <glyph glyph-name="uni0403" unicode="&#x403;" horiz-adv-x="570" 
d="M92 720h448v-113h-328v-607h-120v720zM430 948l47 -90l-226 -99l-33 66z" />
    <glyph glyph-name="uni0413" unicode="&#x413;" horiz-adv-x="570" 
d="M92 720h448v-113h-328v-607h-120v720z" />
    <glyph glyph-name="uni0404" unicode="&#x404;" horiz-adv-x="618" 
d="M381 621c-134 0 -187 -55 -197 -204h288v-103h-288c8 -162 61 -215 201 -215c61 0 117 8 169 23l20 -100c-52 -19 -122 -33 -200 -33c-227 0 -312 100 -312 371c0 260 88 371 314 371c82 0 151 -14 199 -35l-20 -100c-53 17 -111 25 -174 25z" />
    <glyph glyph-name="uni0405" unicode="&#x405;" horiz-adv-x="625" 
d="M348 731c83 0 162 -15 209 -36l-20 -103c-51 16 -122 28 -192 28c-105 0 -157 -36 -157 -98c0 -50 31 -75 84 -88c55 -14 96 -24 150 -39c111 -29 158 -84 158 -192c0 -142 -98 -214 -282 -214c-82 0 -181 14 -241 39l19 109c63 -22 140 -37 216 -37c101 0 169 27 169 99
c0 53 -27 76 -84 90c-56 14 -96 24 -148 38c-106 27 -161 81 -161 189c0 154 108 215 280 215z" />
    <glyph glyph-name="uni0406" unicode="&#x406;" horiz-adv-x="305" 
d="M213 720v-720h-121v720h121z" />
    <glyph glyph-name="uni0407" unicode="&#x407;" horiz-adv-x="305" 
d="M213 720v-720h-121v720h121zM55 900c39 0 64 -17 64 -63c0 -47 -25 -63 -64 -63c-38 0 -63 16 -63 63c0 46 25 63 63 63zM250 900c39 0 63 -17 63 -63c0 -47 -24 -63 -63 -63c-38 0 -63 16 -63 63c0 46 25 63 63 63z" />
    <glyph glyph-name="uni0408" unicode="&#x408;" horiz-adv-x="416" 
d="M99 97c89 0 116 38 116 159v464h118v-461c0 -188 -49 -270 -212 -270c-40 0 -82 7 -108 15l15 101c22 -5 47 -8 71 -8z" />
    <glyph glyph-name="uni0409" unicode="&#x409;" horiz-adv-x="1070" 
d="M248 161c-14 -117 -51 -170 -160 -170c-21 0 -46 2 -65 7v106c13 0 29 1 40 2c47 5 64 23 71 73c12 82 17 214 18 340l2 201h465v-262c51 5 102 8 151 8c175 0 256 -54 256 -227c0 -168 -66 -239 -269 -239h-258v607h-230l-2 -91c-3 -135 -7 -253 -19 -355zM619 110h142
c110 0 146 32 146 127s-38 122 -144 122c-50 0 -94 -2 -144 -7v-242z" />
    <glyph glyph-name="uni040A" unicode="&#x40a;" horiz-adv-x="1102" 
d="M651 110h142c109 0 146 32 146 127s-38 122 -145 122c-49 0 -93 -2 -143 -7v-242zM212 316v-316h-120v720h120v-290h319v290h120v-261c51 5 102 8 151 8c175 0 255 -55 255 -228c0 -168 -65 -239 -268 -239h-258v316h-319z" />
    <glyph glyph-name="uni040B" unicode="&#x40b;" horiz-adv-x="839" 
d="M363 0h-119v608h-208v112h581v-112h-254v-194c58 17 126 28 185 28c149 0 222 -52 222 -215v-227h-117v218c0 92 -36 121 -128 121c-51 0 -110 -9 -162 -25v-314z" />
    <glyph glyph-name="uni040C" unicode="&#x40c;" horiz-adv-x="682" 
d="M527 0l-216 319l-99 -35v-284h-120v720h120v-327l110 39l203 288h139l-254 -347l260 -373h-143zM481 938l47 -90l-226 -99l-33 66z" />
    <glyph glyph-name="uni040D" unicode="&#x40d;" horiz-adv-x="754" 
d="M662 0h-116v535l-338 -535h-116v720h115v-536l339 536h116v-720zM260 935l213 -123l-34 -66l-225 99z" />
    <glyph glyph-name="uni0418" unicode="&#x418;" horiz-adv-x="754" 
d="M662 0h-116v535l-338 -535h-116v720h115v-536l339 536h116v-720z" />
    <glyph glyph-name="uni040E" unicode="&#x40e;" horiz-adv-x="701" 
d="M420 179l18 73c-34 -9 -72 -15 -116 -15c-108 0 -152 31 -183 132l-108 351h128l86 -310c14 -52 45 -68 102 -68c42 0 83 5 116 14l88 364h123l-150 -574c-31 -119 -92 -157 -217 -157c-52 0 -107 7 -154 19l10 109c48 -14 92 -18 134 -18c78 0 109 21 123 80zM357 751
c-129 0 -169 52 -177 139h97c7 -40 19 -66 80 -66s72 26 79 66h98c-8 -87 -49 -139 -177 -139z" />
    <glyph glyph-name="uni0423" unicode="&#x423;" horiz-adv-x="701" 
d="M420 179l18 73c-34 -9 -72 -15 -116 -15c-108 0 -152 31 -183 132l-108 351h128l86 -310c14 -52 45 -68 102 -68c42 0 83 5 116 14l88 364h123l-150 -574c-31 -119 -92 -157 -217 -157c-52 0 -107 7 -154 19l10 109c48 -14 92 -18 134 -18c78 0 109 21 123 80z" />
    <glyph glyph-name="uni040F" unicode="&#x40f;" horiz-adv-x="759" 
d="M667 0h-230v-132h-115v132h-230v720h120v-608h335v608h120v-720z" />
    <glyph glyph-name="uni0411" unicode="&#x411;" horiz-adv-x="673" 
d="M92 0v720h491v-113h-371v-179c48 3 106 6 157 6c172 0 251 -45 251 -213c0 -152 -69 -221 -251 -221h-277zM212 108h158c102 0 132 29 132 112c0 87 -37 109 -143 109c-46 0 -102 -1 -147 -4v-217z" />
    <glyph glyph-name="uni0414" unicode="&#x414;" horiz-adv-x="743" 
d="M279 438c-1 -109 -6 -144 -25 -209c-12 -40 -26 -76 -40 -116h289v494h-222zM601 -130v130h-470v-130h-114v243h73c16 41 34 84 49 130c18 53 26 97 26 195v282h457v-607h93v-243h-114z" />
    <glyph glyph-name="uni0416" unicode="&#x416;" horiz-adv-x="981" 
d="M548 720v-322l97 32l173 290h136l-218 -343l224 -377h-140l-181 320l-91 -28v-292h-117v292l-90 28l-181 -320h-139l223 377l-218 343h136l173 -290l96 -31v321h117z" />
    <glyph glyph-name="uni0417" unicode="&#x417;" horiz-adv-x="619" 
d="M272 -11c-75 0 -171 15 -222 35l20 105c54 -17 141 -30 200 -30c127 0 171 28 171 114c0 81 -32 103 -139 103h-122v104h123c88 0 119 29 119 100c0 74 -37 101 -143 101c-68 0 -136 -13 -195 -30l-21 105c60 22 154 35 216 35c190 0 261 -62 261 -186
c0 -66 -25 -118 -90 -166c85 -30 113 -86 113 -164c0 -163 -81 -226 -291 -226z" />
    <glyph glyph-name="uni0419" unicode="&#x419;" horiz-adv-x="754" 
d="M662 0h-116v535l-338 -535h-116v720h115v-536l339 536h116v-720zM377 756c-129 0 -169 52 -177 139h97c7 -40 19 -66 80 -66s72 26 79 66h98c-8 -87 -49 -139 -177 -139z" />
    <glyph glyph-name="uni041B" unicode="&#x41b;" horiz-adv-x="717" 
d="M269 607l-2 -91c-3 -135 -7 -253 -19 -355c-14 -117 -51 -170 -160 -170c-21 0 -46 2 -65 7v106c13 0 29 1 40 2c47 5 64 23 71 73c12 82 17 214 18 340l2 201h471v-720h-120v607h-236z" />
    <glyph glyph-name="uni041F" unicode="&#x41f;" horiz-adv-x="743" 
d="M92 720h560v-720h-120v607h-320v-607h-120v720z" />
    <glyph glyph-name="uni0424" unicode="&#x424;" horiz-adv-x="891" 
d="M389 -21v90l-40 1c-194 7 -294 68 -294 295c0 223 102 288 294 295l40 1v89h114v-89l39 -1c191 -7 294 -69 294 -295c0 -225 -101 -288 -294 -295l-39 -1v-90h-114zM353 172l37 -1v388l-37 -1c-131 -4 -182 -48 -182 -193c0 -146 50 -189 182 -193zM538 558l-36 1v-388
l36 1c130 4 182 48 182 193c0 144 -52 189 -182 193z" />
    <glyph glyph-name="uni0426" unicode="&#x426;" horiz-adv-x="764" 
d="M736 -130h-114v130h-530v720h120v-607h311v607h120v-607h93v-243z" />
    <glyph glyph-name="uni0427" unicode="&#x427;" horiz-adv-x="686" 
d="M595 0h-120v300c-56 -17 -127 -30 -192 -30c-165 0 -215 57 -215 233v217h120v-210c0 -98 17 -129 123 -129c49 0 120 12 164 28v311h120v-720z" />
    <glyph glyph-name="uni0428" unicode="&#x428;" horiz-adv-x="1030" 
d="M939 0h-847v720h120v-607h243v607h120v-607h244v607h120v-720z" />
    <glyph glyph-name="uni0429" unicode="&#x429;" horiz-adv-x="1060" 
d="M1032 113v-243h-114v130h-826v720h120v-607h243v607h120v-607h244v607h120v-607h93z" />
    <glyph glyph-name="uni042A" unicode="&#x42a;" horiz-adv-x="806" 
d="M229 0v607h-201v113h321v-261c50 5 108 8 157 8c175 0 255 -55 255 -228c0 -168 -65 -239 -268 -239h-264zM349 110h148c109 0 146 32 146 127s-39 122 -145 122c-49 0 -99 -2 -149 -7v-242z" />
    <glyph glyph-name="uni042C" unicode="&#x42c;" horiz-adv-x="669" 
d="M92 0v720h120v-261c50 5 108 8 157 8c175 0 255 -55 255 -228c0 -168 -65 -239 -268 -239h-264zM212 110h148c109 0 146 32 146 127s-39 122 -145 122c-49 0 -99 -2 -149 -7v-242z" />
    <glyph glyph-name="uni042B" unicode="&#x42b;" horiz-adv-x="925" 
d="M713 0v720h120v-720h-120zM92 0v720h120v-263c54 6 103 11 152 11c173 0 247 -56 247 -227c0 -176 -74 -241 -265 -241h-254zM212 110h138c109 0 144 32 144 129c0 96 -37 122 -139 122c-45 0 -93 -5 -143 -11v-240z" />
    <glyph glyph-name="uni042D" unicode="&#x42d;" horiz-adv-x="620" 
d="M149 314v103h287c-10 149 -65 204 -200 204c-55 0 -116 -8 -168 -23l-20 100c52 19 118 33 199 33c226 0 311 -111 311 -371c0 -252 -74 -371 -313 -371c-82 0 -154 15 -202 35l20 101c52 -18 117 -26 176 -26c139 0 190 60 198 215h-288z" />
    <glyph glyph-name="uni042E" unicode="&#x42e;" horiz-adv-x="997" 
d="M640 -11c-147 0 -225 52 -265 165c-16 44 -25 97 -28 159h-135v-313h-120v720h120v-295h136c3 55 12 103 27 144c40 111 124 162 265 162c146 0 227 -51 266 -162c19 -56 29 -119 29 -209c0 -85 -9 -151 -28 -206c-38 -113 -115 -165 -267 -165zM640 98
c95 0 135 36 154 109c11 39 19 87 19 153c0 71 -9 122 -20 160c-23 72 -61 102 -153 102c-90 0 -133 -32 -155 -105c-12 -38 -18 -88 -18 -157c0 -64 7 -115 18 -154c21 -73 60 -108 155 -108z" />
    <glyph glyph-name="uni042F" unicode="&#x42f;" horiz-adv-x="693" 
d="M67 485c0 172 79 235 260 235h275v-720h-118v256h-141l-164 -256h-141l185 275c-105 25 -156 85 -156 210zM342 363h142v247h-160c-94 0 -137 -31 -137 -121c0 -98 46 -126 155 -126z" />
    <glyph glyph-name="uni0431" unicode="&#x431;" horiz-adv-x="636" 
d="M353 430c-54 0 -117 -16 -177 -48c-4 -55 1 -117 10 -162c17 -86 57 -127 144 -127c103 0 145 52 145 173c0 118 -34 164 -122 164zM328 -11c-146 0 -222 60 -252 191c-11 46 -18 110 -19 176c1 257 62 357 242 395c81 18 182 31 253 36l12 -110
c-63 -6 -172 -19 -243 -34c-98 -22 -135 -62 -143 -169c64 34 128 58 205 58c133 0 208 -68 208 -260c0 -199 -88 -283 -263 -283z" />
    <glyph glyph-name="uni0432" unicode="&#x432;" horiz-adv-x="585" 
d="M334 -1c-54 0 -210 0 -258 1v590c53 1 171 1 231 1c84 0 133 -13 164 -35c37 -26 50 -67 50 -116c0 -54 -24 -92 -73 -127c83 -29 99 -77 99 -138c0 -54 -13 -99 -46 -130s-85 -46 -167 -46zM192 94h133c54 0 81 9 96 30c9 13 13 29 13 50c0 25 -5 44 -17 56
c-18 18 -43 23 -103 23h-122v-159zM192 496v-150h118c72 0 99 21 99 76c0 24 -4 42 -16 54c-14 14 -39 20 -80 20h-121z" />
    <glyph glyph-name="uni0433" unicode="&#x433;" horiz-adv-x="474" 
d="M76 590h378v-107h-261v-483h-117v590z" />
    <glyph glyph-name="uni0434" unicode="&#x434;" horiz-adv-x="637" 
d="M244 484c-1 -53 -1 -102 -4 -160c-2 -48 -6 -80 -19 -122c-10 -32 -23 -65 -35 -96h236v378h-178zM507 -120v120h-388v-120h-111v226h62c14 33 33 75 44 107c13 36 18 61 19 105c3 79 3 180 3 272h401v-484h81v-226h-111z" />
    <glyph glyph-name="uni0436" unicode="&#x436;" horiz-adv-x="849" 
d="M373 0v228l-80 29l-148 -257h-136l190 311l-172 279h131l128 -228l87 -34v262h110v-262l88 36l132 226h131l-177 -281l183 -309h-135l-144 259l-78 -31v-228h-110z" />
    <glyph glyph-name="uni0437" unicode="&#x437;" horiz-adv-x="526" 
d="M144 253v95h110c71 0 103 19 103 74c0 59 -30 77 -119 77c-53 0 -120 -10 -172 -26l-16 99c51 18 134 29 200 29c160 0 220 -50 220 -158c0 -62 -31 -99 -81 -131c67 -24 100 -63 100 -137c0 -138 -84 -186 -254 -186c-67 0 -152 15 -198 34l17 101
c46 -18 122 -32 184 -32c97 0 135 20 135 83c0 64 -37 78 -121 78h-108z" />
    <glyph glyph-name="uni0438" unicode="&#x438;" horiz-adv-x="649" 
d="M188 590v-425l267 425h118v-590h-113v424l-266 -424h-118v590h112z" />
    <glyph glyph-name="uni0439" unicode="&#x439;" horiz-adv-x="649" 
d="M188 590v-425l267 425h118v-590h-113v424l-266 -424h-118v590h112zM325 630c-109 0 -161 44 -166 136h95c6 -47 26 -63 71 -63c46 0 66 16 72 63h95c-5 -92 -57 -136 -167 -136z" />
    <glyph glyph-name="uni043A" unicode="&#x43a;" horiz-adv-x="594" 
d="M444 0l-166 267l-85 -33v-234h-117v590h117v-255l98 38l154 217h135l-203 -274l205 -316h-138z" />
    <glyph glyph-name="uni043B" unicode="&#x43b;" horiz-adv-x="618" 
d="M231 403c-3 -91 -3 -171 -10 -251c-11 -107 -43 -160 -149 -160c-18 0 -41 3 -56 6v97c9 0 21 0 33 2c44 5 59 24 65 77c8 66 9 151 11 242c1 29 2 151 2 174h415v-590h-117v484h-192c0 -12 -1 -59 -2 -81z" />
    <glyph glyph-name="uni043C" unicode="&#x43c;" horiz-adv-x="778" 
d="M427 138h-79l-162 299v-437h-110v590h141l174 -326l172 326h139v-590h-111v438z" />
    <glyph glyph-name="uni043D" unicode="&#x43d;" horiz-adv-x="650" 
d="M456 359v231h118v-590h-118v252h-263v-252h-117v590h117v-231h263z" />
    <glyph glyph-name="uni043F" unicode="&#x43f;" horiz-adv-x="641" 
d="M76 590h490v-590h-118v483h-255v-483h-117v590z" />
    <glyph glyph-name="uni0442" unicode="&#x442;" horiz-adv-x="555" 
d="M532 483h-196v-483h-117v483h-196v107h509v-107z" />
    <glyph glyph-name="uni0443" unicode="&#x443;" horiz-adv-x="635" 
d="M471 590h120c-15 -151 -40 -368 -59 -523c-26 -201 -77 -258 -247 -258c-53 0 -114 8 -165 24l16 103c38 -11 85 -21 140 -21c98 0 129 31 143 153l2 21c-47 -21 -98 -33 -156 -33c-119 0 -163 51 -179 180c-15 115 -28 234 -40 354h119c10 -114 21 -230 33 -332
c9 -68 27 -97 92 -97c48 0 94 8 142 28c14 136 30 290 39 401z" />
    <glyph glyph-name="uni0444" unicode="&#x444;" horiz-adv-x="855" 
d="M485 -180h-115v175l-60 2c-190 9 -262 93 -262 298c0 199 72 289 263 298l59 2v175h115v-175l60 -2c190 -9 263 -99 263 -298c-1 -205 -73 -289 -263 -298l-60 -2v-175zM314 101l57 -2v392l-58 -2c-102 -4 -149 -55 -149 -194c0 -140 47 -189 150 -194zM543 489l-59 2
v-392l57 2c109 5 150 53 150 193s-41 190 -148 195z" />
    <glyph glyph-name="uni0445" unicode="&#x445;" horiz-adv-x="595" 
d="M451 0l-148 227l-146 -227h-135l204 297l-202 293h139l141 -217l136 217h135l-192 -288l205 -302h-137z" />
    <glyph glyph-name="uni0446" unicode="&#x446;" horiz-adv-x="667" 
d="M648 -120h-111v120h-461v590h117v-484h254v484h118v-484h83v-226z" />
    <glyph glyph-name="uni0447" unicode="&#x447;" horiz-adv-x="592" 
d="M516 0h-117v222c-56 -16 -110 -28 -167 -28c-133 0 -181 55 -181 193v203h117v-197c0 -73 26 -92 96 -92c47 0 90 8 135 22v267h117v-590z" />
    <glyph glyph-name="uni0448" unicode="&#x448;" horiz-adv-x="888" 
d="M812 0h-736v590h117v-484h192v484h118v-484h192v484h117v-590z" />
    <glyph glyph-name="uni0449" unicode="&#x449;" horiz-adv-x="918" 
d="M899 -120h-111v120h-712v590h117v-484h192v484h118v-484h192v484h117v-484h87v-226z" />
    <glyph glyph-name="uni044A" unicode="&#x44a;" horiz-adv-x="709" 
d="M436 0h-235v483h-181v107h298v-195c48 6 90 10 139 10c143 0 212 -46 212 -199s-60 -206 -233 -206zM438 101c95 0 118 32 118 104c0 78 -30 101 -113 101c-34 0 -82 -3 -125 -9v-196h120z" />
    <glyph glyph-name="uni044C" unicode="&#x44c;" horiz-adv-x="584" 
d="M311 0h-235v590h117v-195c48 6 90 10 139 10c143 0 212 -46 212 -199s-60 -206 -233 -206zM313 101c95 0 118 32 118 104c0 78 -30 101 -113 101c-34 0 -82 -3 -125 -9v-196h120z" />
    <glyph glyph-name="uni044B" unicode="&#x44b;" horiz-adv-x="801" 
d="M725 590v-590h-117v590h117zM305 0h-229v590h117v-195c43 6 88 10 137 10c139 0 203 -50 203 -200s-58 -205 -228 -205zM307 101c93 0 116 32 116 103c0 78 -26 102 -107 102c-36 0 -78 -3 -123 -9v-196h114z" />
    <glyph glyph-name="uni044D" unicode="&#x44d;" horiz-adv-x="538" 
d="M214 95c113 0 155 44 163 156h-234v95h234c-8 106 -48 149 -158 149c-56 0 -117 -11 -161 -26l-16 99c50 21 123 33 184 33c179 0 265 -86 265 -306c0 -203 -70 -306 -269 -306c-60 0 -134 12 -181 33l17 99c41 -14 98 -26 156 -26z" />
    <glyph glyph-name="uni044E" unicode="&#x44e;" horiz-adv-x="866" 
d="M562 602c108 0 178 -35 215 -104c27 -52 41 -115 41 -203c0 -87 -13 -152 -40 -203c-37 -71 -109 -104 -217 -104c-106 0 -179 33 -216 103c-23 43 -35 94 -39 160h-113v-251h-117v590h117v-234h114c5 58 18 103 40 142c37 68 108 104 215 104zM561 496
c-55 0 -91 -15 -113 -51c-20 -33 -29 -83 -29 -150s9 -116 28 -150c21 -37 59 -51 114 -51c58 0 93 15 114 52c18 33 27 84 27 149c0 67 -9 117 -29 150c-21 36 -56 51 -112 51z" />
    <glyph glyph-name="uni044F" unicode="&#x44f;" horiz-adv-x="600" 
d="M409 0v206h-104l-139 -206h-137l157 219c-94 22 -131 76 -131 182c0 148 90 191 232 190c69 0 184 0 237 -1v-590h-115zM409 491h-123c-77 0 -115 -21 -115 -90c0 -73 28 -96 127 -96h111v186z" />
    <glyph glyph-name="uni0450" unicode="&#x450;" horiz-adv-x="576" 
d="M222 825l196 -131l-38 -63l-209 106zM508 123l16 -100c-54 -24 -126 -34 -203 -34c-207 0 -273 98 -273 308c0 221 101 304 277 304c136 0 212 -60 212 -174v-7c0 -87 -30 -129 -125 -148c-66 -14 -162 -27 -248 -37c11 -105 51 -140 168 -140c65 0 131 11 176 28z
M323 502c-98 0 -159 -35 -163 -178c84 11 174 26 223 37c34 9 45 26 45 57v5c0 53 -32 79 -105 79z" />
    <glyph glyph-name="uni0451" unicode="&#x451;" horiz-adv-x="576" 
d="M212 784c38 0 63 -17 63 -63c0 -47 -25 -63 -63 -63c-39 0 -64 16 -64 63c0 46 25 63 64 63zM404 784c39 0 63 -17 63 -63c0 -47 -24 -63 -63 -63c-38 0 -63 16 -63 63c0 46 25 63 63 63zM508 123l16 -100c-54 -24 -126 -34 -203 -34c-207 0 -273 98 -273 308
c0 221 101 304 277 304c136 0 212 -60 212 -174v-7c0 -87 -30 -129 -125 -148c-66 -14 -162 -27 -248 -37c11 -105 51 -140 168 -140c65 0 131 11 176 28zM323 502c-98 0 -159 -35 -163 -178c84 11 174 26 223 37c34 9 45 26 45 57v5c0 53 -32 79 -105 79z" />
    <glyph glyph-name="uni0452" unicode="&#x452;" horiz-adv-x="659" 
d="M209 466c63 35 125 58 196 58c117 0 187 -56 187 -197v-341c0 -123 -48 -176 -158 -176c-32 0 -64 4 -94 12l13 95c14 -3 34 -6 50 -6c46 0 72 15 72 69v336c0 76 -36 101 -110 101c-49 0 -105 -17 -154 -40v-377h-116v616h-80v77h80v82h114v-82h202v-77h-202v-150z" />
    <glyph glyph-name="uni0453" unicode="&#x453;" horiz-adv-x="474" 
d="M76 590h378v-107h-261v-483h-117v590zM381 822l52 -88l-210 -106l-37 63z" />
    <glyph glyph-name="uni0454" unicode="&#x454;" horiz-adv-x="538" 
d="M326 496c-103 0 -153 -38 -164 -150h244v-95h-245c8 -111 51 -157 163 -157c60 0 115 12 157 27l17 -99c-43 -20 -110 -33 -179 -33c-194 0 -271 95 -271 306s84 306 274 306c66 0 131 -13 175 -33l-16 -99c-42 14 -96 27 -155 27z" />
    <glyph glyph-name="uni0455" unicode="&#x455;" horiz-adv-x="533" 
d="M45 24l17 101c50 -18 130 -31 187 -31c94 0 137 19 137 75c0 39 -20 54 -67 66l-120 28c-86 21 -145 57 -145 163c0 131 97 175 236 175c78 0 140 -13 186 -32l-17 -97c-43 14 -108 26 -172 26c-76 0 -120 -19 -120 -70c0 -37 23 -53 71 -66l118 -29
c96 -24 144 -66 144 -161c0 -132 -88 -183 -248 -183c-74 1 -159 15 -207 35z" />
    <glyph glyph-name="uni0456" unicode="&#x456;" horiz-adv-x="269" 
d="M193 590v-590h-117v590h117zM135 650c-43 0 -70 21 -70 67s27 66 70 66s69 -20 69 -66s-26 -67 -69 -67z" />
    <glyph glyph-name="uni0457" unicode="&#x457;" horiz-adv-x="274" 
d="M78 590h118v-590h-118v590zM46 783c38 0 61 -18 61 -64c0 -45 -23 -64 -61 -64c-37 0 -60 19 -60 64c0 46 23 64 60 64zM228 783c37 0 60 -18 60 -64c0 -45 -23 -64 -60 -64c-38 0 -61 19 -61 64c0 46 23 64 61 64z" />
    <glyph glyph-name="uni0457_uni0457" horiz-adv-x="536" 
d="M341 590h117v-590h-117v590zM486 783c41 0 67 -16 67 -64c0 -49 -26 -65 -67 -65s-68 16 -68 65c0 48 27 64 68 64zM78 590h118v-590h-118v590zM47 783c41 0 67 -16 67 -64c0 -49 -26 -65 -67 -65s-68 16 -68 65c0 48 27 64 68 64zM269 783c41 0 67 -16 67 -64
c0 -49 -26 -65 -67 -65s-68 16 -68 65c0 48 27 64 68 64z" />
    <glyph glyph-name="uni0458" unicode="&#x458;" horiz-adv-x="278" 
d="M148 650c-43 0 -70 21 -70 67s27 66 70 66s69 -20 69 -66s-26 -67 -69 -67zM44 -191c-31 0 -62 4 -92 12l12 95c16 -3 35 -5 53 -5c45 0 71 15 71 73v606h118v-606c0 -126 -52 -175 -162 -175z" />
    <glyph glyph-name="uni0459" unicode="&#x459;" horiz-adv-x="933" 
d="M662 101c95 0 118 32 118 104c0 79 -30 103 -113 103c-34 0 -82 -3 -125 -9v-198h120zM125 413c1 29 2 154 2 177h415v-194c48 6 90 11 139 11c143 0 212 -48 212 -201c0 -152 -60 -206 -233 -206h-235v484h-192c0 -12 -1 -62 -2 -81c-1 -91 -3 -171 -10 -251
c-11 -107 -43 -160 -149 -160c-18 0 -41 3 -56 6v97c9 0 21 0 33 2c44 5 59 24 65 77c8 66 9 148 11 239z" />
    <glyph glyph-name="uni045A" unicode="&#x45a;" horiz-adv-x="965" 
d="M694 101c94 0 117 32 117 104c0 79 -29 103 -112 103c-34 0 -82 -3 -125 -9v-198h120zM193 252v-252h-117v590h117v-231h263v231h118v-194c47 6 90 11 138 11c143 0 213 -48 213 -201c0 -152 -61 -206 -233 -206h-236v252h-263z" />
    <glyph glyph-name="uni045B" unicode="&#x45b;" horiz-adv-x="660" 
d="M15 616v77h80v82h114v-82h202v-77h-202v-150c63 35 125 58 196 58c117 0 187 -56 187 -197v-327h-117v316c0 76 -36 101 -110 101c-49 0 -105 -17 -154 -40v-377h-116v616h-80z" />
    <glyph glyph-name="uni045C" unicode="&#x45c;" horiz-adv-x="594" 
d="M444 0l-166 267l-85 -33v-234h-117v590h117v-255l98 38l154 217h135l-203 -274l205 -316h-138zM437 814l52 -88l-210 -106l-37 63z" />
    <glyph glyph-name="uni045D" unicode="&#x45d;" horiz-adv-x="649" 
d="M188 590v-425l267 425h118v-590h-113v424l-266 -424h-118v590h112zM224 817l196 -131l-38 -63l-209 106z" />
    <glyph glyph-name="uni045E" unicode="&#x45e;" horiz-adv-x="635" 
d="M471 590h120c-15 -151 -40 -368 -59 -523c-26 -201 -77 -258 -247 -258c-53 0 -114 8 -165 24l16 103c38 -11 85 -21 140 -21c98 0 129 31 143 153l2 21c-47 -21 -98 -33 -156 -33c-119 0 -163 51 -179 180c-15 115 -28 234 -40 354h119c10 -114 21 -230 33 -332
c9 -68 27 -97 92 -97c48 0 94 8 142 28c14 136 30 290 39 401zM319 630c-109 0 -161 44 -166 136h95c6 -47 26 -63 71 -63c46 0 66 16 72 63h95c-5 -92 -57 -136 -167 -136z" />
    <glyph glyph-name="uni045F" unicode="&#x45f;" horiz-adv-x="651" 
d="M576 0h-196v-120h-109v120h-195v590h117v-484h265v484h118v-590z" />
    <glyph glyph-name="uni0490" unicode="&#x490;" horiz-adv-x="579" 
d="M209 0h-120v720h343l4 132h111v-244h-338v-608z" />
    <glyph glyph-name="uni0491" unicode="&#x491;" horiz-adv-x="491" 
d="M359 590l4 113h106l-1 -219h-275v-484h-117v590h283z" />
    <glyph glyph-name="uni04DC" unicode="&#x4dc;" horiz-adv-x="981" 
d="M548 720v-322l97 32l173 290h136l-218 -343l224 -377h-140l-181 320l-91 -28v-292h-117v292l-90 28l-181 -320h-139l223 377l-218 343h136l173 -290l96 -31v321h117zM392 900c39 0 64 -17 64 -63c0 -47 -25 -63 -64 -63c-38 0 -63 16 -63 63c0 46 25 63 63 63zM587 900
c39 0 63 -17 63 -63c0 -47 -24 -63 -63 -63c-38 0 -63 16 -63 63c0 46 25 63 63 63z" />
    <glyph glyph-name="uni04DD" unicode="&#x4dd;" horiz-adv-x="849" 
d="M373 0v228l-80 29l-148 -257h-136l190 311l-172 279h131l128 -228l87 -34v262h110v-262l88 36l132 226h131l-177 -281l183 -309h-135l-144 259l-78 -31v-228h-110zM333 781c38 0 63 -17 63 -63c0 -47 -25 -63 -63 -63c-39 0 -64 16 -64 63c0 46 25 63 64 63zM525 781
c39 0 63 -17 63 -63c0 -47 -24 -63 -63 -63c-38 0 -63 16 -63 63c0 46 25 63 63 63z" />
    <glyph glyph-name="uni04DE" unicode="&#x4de;" horiz-adv-x="619" 
d="M272 -11c-75 0 -171 15 -222 35l20 105c54 -17 141 -30 200 -30c127 0 171 28 171 114c0 81 -32 103 -139 103h-122v104h123c88 0 119 29 119 100c0 74 -37 101 -143 101c-68 0 -136 -13 -195 -30l-21 105c60 22 154 35 216 35c190 0 261 -62 261 -186
c0 -66 -25 -118 -90 -166c85 -30 113 -86 113 -164c0 -163 -81 -226 -291 -226zM195 907c39 0 64 -17 64 -63c0 -47 -25 -63 -64 -63c-38 0 -63 16 -63 63c0 46 25 63 63 63zM390 907c39 0 63 -17 63 -63c0 -47 -24 -63 -63 -63c-38 0 -63 16 -63 63c0 46 25 63 63 63z" />
    <glyph glyph-name="uni04DF" unicode="&#x4df;" horiz-adv-x="526" 
d="M144 253v95h110c71 0 103 19 103 74c0 59 -30 77 -119 77c-53 0 -120 -10 -172 -26l-16 99c51 18 134 29 200 29c160 0 220 -50 220 -158c0 -62 -31 -99 -81 -131c67 -24 100 -63 100 -137c0 -138 -84 -186 -254 -186c-67 0 -152 15 -198 34l17 101
c46 -18 122 -32 184 -32c97 0 135 20 135 83c0 64 -37 78 -121 78h-108zM150 783c38 0 63 -17 63 -63c0 -47 -25 -63 -63 -63c-39 0 -64 16 -64 63c0 46 25 63 64 63zM342 783c39 0 63 -17 63 -63c0 -47 -24 -63 -63 -63c-38 0 -63 16 -63 63c0 46 25 63 63 63z" />
    <glyph glyph-name="uni04E4" unicode="&#x4e4;" horiz-adv-x="754" 
d="M662 0h-116v535l-338 -535h-116v720h115v-536l339 536h116v-720zM276 900c39 0 64 -17 64 -63c0 -47 -25 -63 -64 -63c-38 0 -63 16 -63 63c0 46 25 63 63 63zM471 900c39 0 63 -17 63 -63c0 -47 -24 -63 -63 -63c-38 0 -63 16 -63 63c0 46 25 63 63 63z" />
    <glyph glyph-name="uni04E5" unicode="&#x4e5;" horiz-adv-x="649" 
d="M188 590v-425l267 425h118v-590h-113v424l-266 -424h-118v590h112zM230 776c38 0 63 -17 63 -63c0 -47 -25 -63 -63 -63c-39 0 -64 16 -64 63c0 46 25 63 64 63zM422 776c39 0 63 -17 63 -63c0 -47 -24 -63 -63 -63c-38 0 -63 16 -63 63c0 46 25 63 63 63z" />
    <glyph glyph-name="uni04E6" unicode="&#x4e6;" horiz-adv-x="727" 
d="M363 99c97 0 141 34 164 106c12 39 16 92 16 155c0 64 -4 116 -16 155c-23 72 -67 106 -164 106c-96 0 -140 -34 -162 -106c-13 -39 -17 -91 -17 -155c0 -63 4 -116 17 -155c22 -72 66 -106 162 -106zM363 731c151 0 232 -49 273 -161c21 -56 29 -128 29 -210
c0 -81 -8 -154 -29 -210c-41 -112 -122 -161 -273 -161c-149 0 -231 49 -272 161c-20 56 -29 129 -29 210c0 82 9 154 29 210c41 112 123 161 272 161zM266 907c39 0 64 -17 64 -63c0 -47 -25 -63 -64 -63c-38 0 -63 16 -63 63c0 46 25 63 63 63zM461 907
c39 0 63 -17 63 -63c0 -47 -24 -63 -63 -63c-38 0 -63 16 -63 63c0 46 25 63 63 63z" />
    <glyph glyph-name="uni04E7" unicode="&#x4e7;" horiz-adv-x="621" 
d="M310 -12c-109 0 -185 34 -222 105c-27 51 -40 114 -40 202s13 151 40 202c37 71 113 105 222 105c110 0 186 -34 223 -105c27 -51 40 -114 40 -202s-13 -151 -40 -202c-37 -71 -113 -105 -223 -105zM310 94c58 0 98 16 119 53c19 33 28 81 28 148s-9 115 -28 148
c-21 37 -61 53 -119 53s-97 -16 -118 -53c-19 -33 -28 -81 -28 -148s9 -115 28 -148c21 -37 60 -53 118 -53zM215 784c38 0 63 -17 63 -63c0 -47 -25 -63 -63 -63c-39 0 -64 16 -64 63c0 46 25 63 64 63zM407 784c39 0 63 -17 63 -63c0 -47 -24 -63 -63 -63
c-38 0 -63 16 -63 63c0 46 25 63 63 63z" />
    <glyph glyph-name="uni04F4" unicode="&#x4f4;" horiz-adv-x="686" 
d="M595 0h-120v300c-56 -17 -127 -30 -192 -30c-165 0 -215 57 -215 233v217h120v-210c0 -98 17 -129 123 -129c49 0 120 12 164 28v311h120v-720zM235 900c39 0 64 -17 64 -63c0 -47 -25 -63 -64 -63c-38 0 -63 16 -63 63c0 46 25 63 63 63zM430 900c39 0 63 -17 63 -63
c0 -47 -24 -63 -63 -63c-38 0 -63 16 -63 63c0 46 25 63 63 63z" />
    <glyph glyph-name="uni04F5" unicode="&#x4f5;" horiz-adv-x="592" 
d="M516 0h-117v222c-56 -16 -110 -28 -167 -28c-133 0 -181 55 -181 193v203h117v-197c0 -73 26 -92 96 -92c47 0 90 8 135 22v267h117v-590zM188 781c38 0 63 -17 63 -63c0 -47 -25 -63 -63 -63c-39 0 -64 16 -64 63c0 46 25 63 64 63zM380 781c39 0 63 -17 63 -63
c0 -47 -24 -63 -63 -63c-38 0 -63 16 -63 63c0 46 25 63 63 63z" />
    <glyph glyph-name="uni20A7" unicode="&#x20a7;" horiz-adv-x="1481" 
d="M89 0v720h228c181 0 254 -65 254 -234c0 -165 -77 -239 -263 -239c-25 0 -82 2 -99 4v-251h-120zM1007 24l17 100c50 -18 122 -31 175 -31c88 0 127 23 127 76c0 40 -19 57 -64 68c-40 10 -59 14 -106 27c-85 22 -142 57 -142 163c0 130 92 174 224 174
c70 0 130 -13 175 -32l-18 -96c-41 14 -98 26 -160 26c-72 0 -110 -19 -110 -71c0 -37 22 -52 71 -66c39 -11 63 -16 103 -27c95 -25 139 -68 139 -162c0 -131 -81 -184 -237 -184c-69 0 -146 15 -194 35zM813 178c0 -70 26 -87 82 -87c24 0 43 2 61 5l11 -92
c-26 -8 -58 -13 -95 -13c-110 0 -173 39 -173 183v296h-77v100h77v120h114v-120h143v-100h-143v-292zM209 359c21 -2 75 -2 93 -2c112 0 150 32 150 128c0 95 -35 125 -140 125h-103v-251z" />
    <glyph glyph-name="uni20A8" unicode="&#x20a8;" horiz-adv-x="1136" 
d="M89 0v720h253c186 0 256 -65 256 -230c0 -119 -50 -190 -150 -217l166 -273h-135l-153 260h-117v-260h-120zM661 24l17 100c50 -18 122 -31 175 -31c89 0 127 23 127 76c0 40 -19 57 -64 68c-40 10 -59 14 -105 27c-86 22 -142 57 -142 163c0 130 91 174 223 174
c70 0 130 -13 174 -32l-16 -96c-42 14 -99 26 -161 26c-71 0 -110 -19 -110 -71c0 -37 22 -52 71 -66c39 -11 63 -16 103 -27c96 -25 139 -68 139 -162c0 -131 -81 -184 -237 -184c-69 0 -146 15 -194 35zM209 366h120c110 0 150 37 150 123c0 90 -36 123 -142 123h-128
v-246z" />
    <glyph glyph-name="uni20A9" unicode="&#x20a9;" horiz-adv-x="1102" 
d="M248 0l-83 300h-128v78h110l-18 67h-92v78h69l-53 197h121l48 -197h208l54 197h126l55 -197h208l47 197h119l-52 -197h69v-78h-91l-18 -67h109v-78h-128l-78 -300h-142l-86 300h-149l-83 -300h-142zM685 445l18 -67h139l16 67h-173zM239 445l17 -67h138l18 67h-173z
M725 300l51 -187l46 187h-97zM276 300l47 -180l48 180h-95zM578 445h-70l-19 -67h117l-29 105zM547 590l-18 -67h37z" />
    <glyph glyph-name="uni20AE" unicode="&#x20ae;" horiz-adv-x="702" 
d="M56 210l235 71v66l-235 -70v86l235 71v173h-235v113h587v-113h-235v-138l235 71v-87l-235 -71v-66l235 71v-87l-235 -71v-229h-117v194l-235 -71v87z" />
    <glyph glyph-name="uni20B1" unicode="&#x20b1;" horiz-adv-x="747" 
d="M35 445h84v54h-84v56h84v165h262c149 0 232 -42 256 -165h78v-56h-72c1 -9 1 -17 1 -26c0 -10 0 -19 -1 -28h72v-57h-78c-24 -121 -108 -164 -264 -164c-34 0 -89 1 -136 5v-229h-118v388h-84v57zM529 472c0 9 -1 18 -1 27h-291v-54h291c1 8 1 17 1 27zM237 613v-58h280
c-18 43 -59 58 -137 58h-143zM237 333c47 -3 96 -4 135 -4c82 0 125 14 144 59h-279v-55z" />
    <glyph glyph-name="uni20B2" unicode="&#x20b2;" horiz-adv-x="667" 
d="M310 777h92v-63c76 -2 145 -15 188 -34l-19 -100c-49 15 -110 25 -172 26v-497c30 1 62 5 85 10v237h106v-318c-40 -18 -119 -31 -188 -35v-68h-92v69c-170 16 -250 114 -250 356c0 225 85 330 250 351v66zM181 360c0 -159 34 -231 132 -248v487
c-94 -21 -132 -91 -132 -239z" />
    <glyph glyph-name="uni20B3" unicode="&#x20b3;" horiz-adv-x="750" 
d="M581 0l-54 161h-303l-54 -161h-122l121 347h-109v81h137l102 292h152l102 -292h138v-81h-109l122 -347h-123zM286 347l-29 -88h237l-29 88h-179zM376 612l-62 -184h124z" />
    <glyph glyph-name="uni20B4" unicode="&#x20b4;" horiz-adv-x="708" 
d="M46 328h616v-83h-437c-3 -13 -5 -27 -5 -41c0 -72 48 -105 163 -105c68 0 159 13 214 31l19 -105c-52 -22 -159 -36 -234 -36c-194 0 -281 59 -281 211c0 16 1 31 4 45h-59v83zM333 731c183 0 276 -60 276 -203c0 -20 -4 -41 -9 -59h62v-82h-616v82h433c7 14 11 31 11 49
c0 76 -54 103 -164 103c-65 0 -134 -12 -185 -28l-20 103c45 20 134 35 212 35z" />
    <glyph glyph-name="uni20B5" unicode="&#x20b5;" horiz-adv-x="603" 
d="M320 777h88v-63c60 -4 114 -16 154 -34l-20 -99c-46 14 -90 22 -137 24v-493c46 2 93 10 137 23l20 -100c-39 -16 -94 -28 -154 -32v-68h-88v69c-180 15 -261 127 -261 355c0 226 85 337 261 354v64zM183 360c0 -164 41 -229 140 -245v486c-98 -17 -140 -87 -140 -241z
" />
    <glyph glyph-name="uni2116" unicode="&#x2116;" horiz-adv-x="1162" 
d="M92 0v720h127l329 -525v525h114v-720h-122l-334 537v-537h-114zM932 731c117 0 176 -72 176 -193c0 -120 -59 -192 -176 -192c-118 0 -176 72 -176 192c0 121 58 193 176 193zM932 430c58 0 83 36 83 108c0 74 -25 109 -83 109s-83 -35 -83 -109c0 -72 25 -108 83 -108z
M768 289h329v-91h-329v91z" />
    <glyph glyph-name="v" unicode="v" horiz-adv-x="597" 
d="M232 0l-213 590h121l167 -485l162 485h117l-210 -590h-144z" />
    <glyph glyph-name="w" unicode="w" horiz-adv-x="903" 
d="M190 0l-163 590h116l122 -470l124 470h132l128 -469l121 469h111l-163 -590h-135l-128 469l-125 -469h-140z" />
    <glyph glyph-name="x" unicode="x" horiz-adv-x="595" 
d="M451 0l-148 227l-146 -227h-135l204 297l-202 293h139l141 -217l136 217h135l-192 -288l205 -302h-137z" />
    <glyph glyph-name="y" unicode="y" horiz-adv-x="635" 
d="M471 590h120c-15 -151 -40 -368 -59 -523c-26 -201 -77 -258 -247 -258c-53 0 -114 8 -165 24l16 103c38 -11 85 -21 140 -21c98 0 129 31 143 153l2 21c-47 -21 -98 -33 -156 -33c-119 0 -163 51 -179 180c-15 115 -28 234 -40 354h119c10 -114 21 -230 33 -332
c9 -68 27 -97 92 -97c48 0 94 8 142 28c14 136 30 290 39 401z" />
    <glyph glyph-name="yen" unicode="&#xa5;" horiz-adv-x="691" 
d="M63 272h220v31l-24 38h-196v86h143l-179 293h136l183 -310l183 310h130l-183 -293h146v-86h-199l-23 -37v-32h222v-85h-222v-187h-117v187h-220v85z" />
    <glyph glyph-name="z" unicode="z" horiz-adv-x="565" 
d="M516 495l-328 -389h337v-106h-477v95l327 389h-318v106h459v-95z" />
    <glyph glyph-name="zero" unicode="0" horiz-adv-x="682" 
d="M341 98c119 0 161 58 161 262c0 205 -42 262 -160 262c-112 0 -162 -57 -162 -262c0 -204 43 -262 161 -262zM341 -11c-214 0 -282 119 -282 371c0 246 71 371 283 371c211 0 281 -125 281 -371c0 -252 -70 -371 -282 -371z" />
    <glyph glyph-name="zero.tnum_lnum" 
d="M320 98c110 0 153 58 153 262c0 205 -44 262 -152 262c-102 0 -154 -57 -154 -262c0 -204 45 -262 153 -262zM320 -11c-203 0 -274 119 -274 371c0 246 75 371 275 371c201 0 273 -125 273 -371c0 -252 -72 -371 -274 -371z" />
    </font>
</defs>
</svg>
