<?xml version="1.0" standalone="no"?>
<!DOCTYPE svg PUBLIC "-//W3C//DTD SVG 1.1//EN" "http://www.w3.org/Graphics/SVG/1.1/DTD/svg11.dtd" >
<svg xmlns="http://www.w3.org/2000/svg" xmlns:xlink="http://www.w3.org/1999/xlink" version="1.1">
<metadata>
Created by FontForge 20170924 at Mon May 25 23:07:25 2015
 By www-data
Copyright (c) 2015 by Contrast Type. All rights reserved.
</metadata>
<defs>
<font id="VestiSans-Bol" horiz-adv-x="640" >
  <font-face 
    font-family="VestiSans"
    font-weight="700"
    font-stretch="normal"
    units-per-em="1000"
    panose-1="2 0 8 3 0 0 0 2 0 4"
    ascent="800"
    descent="-200"
    x-height="590"
    cap-height="720"
    bbox="-60 -192 1492 970"
    underline-thickness="50"
    underline-position="-100"
    stemh="143"
    stemv="157"
    unicode-range="U+0020-2265"
  />
<missing-glyph horiz-adv-x="839" 
d="M749 -180h-659v950h659v-950zM601 -46v682h-363v-682h363z" />
    <glyph glyph-name=".notdef" horiz-adv-x="839" 
d="M749 -180h-659v950h659v-950zM601 -46v682h-363v-682h363z" />
    <glyph glyph-name="A" unicode="A" horiz-adv-x="729" 
d="M551 0l-51 155h-273l-51 -155h-164l251 720h202l252 -720h-166zM363 570l-88 -269h177z" />
    <glyph glyph-name="uni0410" unicode="&#x410;" horiz-adv-x="729" 
d="M551 0l-51 155h-273l-51 -155h-164l251 720h202l252 -720h-166zM363 570l-88 -269h177z" />
    <glyph glyph-name="B" unicode="B" horiz-adv-x="677" 
d="M75 0v720h282c178 0 250 -53 250 -176c0 -65 -29 -116 -88 -161c96 -30 116 -88 116 -169c0 -154 -72 -214 -271 -214h-289zM235 138h130c91 0 111 17 111 82c0 68 -25 81 -111 81h-130v-163zM235 437h124c66 0 93 14 93 73c0 53 -20 72 -92 72h-125v-145z" />
    <glyph glyph-name="uni0412" unicode="&#x412;" horiz-adv-x="677" 
d="M75 0v720h282c178 0 250 -53 250 -176c0 -65 -29 -116 -88 -161c96 -30 116 -88 116 -169c0 -154 -72 -214 -271 -214h-289zM235 138h130c91 0 111 17 111 82c0 68 -25 81 -111 81h-130v-163zM235 437h124c66 0 93 14 93 73c0 53 -20 72 -92 72h-125v-145z" />
    <glyph glyph-name="C" unicode="C" horiz-adv-x="593" 
d="M387 584c-140 0 -177 -58 -177 -223c0 -190 47 -225 176 -225c50 0 100 8 151 23l26 -134c-44 -22 -120 -37 -203 -37c-205 0 -314 73 -314 372c0 269 85 372 320 372c83 0 153 -16 197 -39l-26 -133c-48 15 -100 24 -150 24z" />
    <glyph glyph-name="uni0421" unicode="&#x421;" horiz-adv-x="593" 
d="M387 584c-140 0 -177 -58 -177 -223c0 -190 47 -225 176 -225c50 0 100 8 151 23l26 -134c-44 -22 -120 -37 -203 -37c-205 0 -314 73 -314 372c0 269 85 372 320 372c83 0 153 -16 197 -39l-26 -133c-48 15 -100 24 -150 24z" />
    <glyph glyph-name="D" unicode="D" horiz-adv-x="708" 
d="M332 147c87 0 129 16 148 78c10 33 16 76 16 136c0 56 -6 99 -15 131c-18 65 -59 81 -149 81h-94v-426h94zM332 0h-257v720h257c166 0 255 -38 298 -148c21 -53 32 -119 32 -212s-13 -165 -35 -221c-41 -100 -124 -139 -295 -139z" />
    <glyph glyph-name="E" unicode="E" horiz-adv-x="606" 
d="M75 0v720h477v-153h-317v-132h274v-143h-274v-139h326v-153h-486z" />
    <glyph glyph-name="uni0415" unicode="&#x415;" horiz-adv-x="606" 
d="M75 0v720h477v-153h-317v-132h274v-143h-274v-139h326v-153h-486z" />
    <glyph glyph-name="Euro" unicode="&#x20ac;" 
d="M485 384h-230v-23v-24h230v-106h-217c22 -77 73 -94 164 -94c38 0 99 7 152 22l25 -134c-44 -22 -120 -37 -202 -37c-173 0 -278 51 -307 243h-73v106h64v23v24h-64v106h73c27 173 120 242 313 242c82 0 152 -16 196 -39l-25 -133c-53 16 -103 23 -151 23
c-94 0 -142 -26 -164 -93h216v-106z" />
    <glyph glyph-name="F" unicode="F" horiz-adv-x="587" 
d="M75 0v720h477v-153h-317v-158h264v-146h-264v-263h-160z" />
    <glyph glyph-name="G" unicode="G" horiz-adv-x="659" 
d="M360 -12c-226 0 -314 98 -314 372c0 278 88 372 333 372c93 0 175 -17 219 -39l-26 -133c-53 15 -111 24 -172 24c-154 0 -190 -57 -190 -223c0 -158 32 -225 154 -225c24 0 53 1 76 4v215h158v-330c-44 -22 -161 -37 -238 -37z" />
    <glyph glyph-name="H" unicode="H" horiz-adv-x="739" 
d="M504 447v273h160v-720h-160v293h-269v-293h-160v720h160v-273h269z" />
    <glyph glyph-name="uni041D" unicode="&#x41d;" horiz-adv-x="739" 
d="M504 447v273h160v-720h-160v293h-269v-293h-160v720h160v-273h269z" />
    <glyph glyph-name="I" unicode="I" horiz-adv-x="313" 
d="M238 720v-720h-163v720h163z" />
    <glyph glyph-name="J" unicode="J" horiz-adv-x="450" 
d="M116 130c75 0 106 29 106 133v457h158v-449c0 -186 -57 -283 -230 -283c-58 0 -102 7 -135 18l21 133c25 -5 53 -9 80 -9z" />
    <glyph glyph-name="K" unicode="K" horiz-adv-x="708" 
d="M506 0l-189 302l-82 -29v-273h-160v720h160v-301l94 32l178 269h185l-240 -347l245 -373h-191z" />
    <glyph glyph-name="uni041A" unicode="&#x41a;" horiz-adv-x="705" 
d="M506 0l-189 302l-82 -29v-273h-160v720h160v-301l94 32l178 269h185l-240 -347l245 -373h-191z" />
    <glyph glyph-name="L" unicode="L" horiz-adv-x="572" 
d="M75 0v720h160v-566h307v-154h-467z" />
    <glyph glyph-name="Lira" unicode="&#x20a4;" horiz-adv-x="607" 
d="M582 146v-146h-541v140c40 16 73 45 83 86h-78v106h77c-1 15 -3 31 -5 47h-72v106h67c3 189 102 247 276 247c65 0 128 -11 171 -29l-26 -137c-30 7 -80 14 -117 14c-92 0 -132 -25 -144 -95h207v-106h-209l3 -47h206v-106h-207c-5 -29 -17 -56 -34 -80h343z" />
    <glyph glyph-name="M" unicode="M" horiz-adv-x="916" 
d="M229 0h-154v720h186l197 -345l198 345h185v-720h-155v490l-178 -308h-102l-177 308v-490z" />
    <glyph glyph-name="uni041C" unicode="&#x41c;" horiz-adv-x="916" 
d="M229 0h-154v720h186l197 -345l198 345h185v-720h-155v490l-178 -308h-102l-177 308v-490z" />
    <glyph glyph-name="N" unicode="N" horiz-adv-x="747" 
d="M75 0v720h161l284 -457v457h152v-720h-160l-285 463v-463h-152z" />
    <glyph glyph-name="O" unicode="O" horiz-adv-x="719" 
d="M359 136c84 0 118 30 136 90c10 34 14 78 14 135s-4 99 -14 133c-18 60 -52 90 -136 90c-83 0 -118 -30 -135 -90c-10 -34 -14 -76 -14 -133s4 -101 14 -135c17 -60 52 -90 135 -90zM359 732c157 0 237 -48 281 -156c24 -58 33 -137 33 -215s-9 -159 -33 -217
c-44 -108 -124 -156 -281 -156c-156 0 -236 48 -280 156c-24 58 -33 139 -33 217s9 157 33 215c44 108 124 156 280 156z" />
    <glyph glyph-name="uni041E" unicode="&#x41e;" horiz-adv-x="719" 
d="M359 136c84 0 118 30 136 90c10 34 14 78 14 135s-4 99 -14 133c-18 60 -52 90 -136 90c-83 0 -118 -30 -135 -90c-10 -34 -14 -76 -14 -133s4 -101 14 -135c17 -60 52 -90 135 -90zM359 732c157 0 237 -48 281 -156c24 -58 33 -137 33 -215s-9 -159 -33 -217
c-44 -108 -124 -156 -281 -156c-156 0 -236 48 -280 156c-24 58 -33 139 -33 217s9 157 33 215c44 108 124 156 280 156z" />
    <glyph glyph-name="P" unicode="P" horiz-adv-x="659" 
d="M75 0v720h277c197 0 270 -69 270 -241c0 -153 -63 -245 -265 -245c-1 0 -121 1 -122 1v-235h-160zM235 381h106c96 0 124 25 124 97c0 71 -27 95 -121 95h-109v-192z" />
    <glyph glyph-name="uni0420" unicode="&#x420;" horiz-adv-x="659" 
d="M75 0v720h277c197 0 270 -69 270 -241c0 -153 -63 -245 -265 -245c-1 0 -121 1 -122 1v-235h-160zM235 381h106c96 0 124 25 124 97c0 71 -27 95 -121 95h-109v-192z" />
    <glyph glyph-name="Q" unicode="Q" horiz-adv-x="719" 
d="M359 732c157 0 237 -48 281 -156c24 -58 33 -137 33 -215s-9 -159 -33 -217c-26 -63 -64 -106 -123 -130l102 -144h-181l-77 118h-2c-156 0 -236 48 -280 156c-24 58 -33 139 -33 217s9 157 33 215c44 108 124 156 280 156zM359 136c84 0 118 30 136 90
c10 34 14 78 14 135s-4 99 -14 133c-18 60 -52 90 -136 90c-83 0 -118 -30 -135 -90c-10 -34 -14 -76 -14 -133s4 -101 14 -135c17 -60 52 -90 135 -90z" />
    <glyph glyph-name="R" unicode="R" horiz-adv-x="677" 
d="M75 0v720h284c204 0 272 -67 272 -239c0 -118 -38 -194 -141 -224l166 -257h-189l-142 241h-90v-241h-160zM235 387h115c92 0 121 26 121 93c0 69 -30 93 -121 93h-115v-186z" />
    <glyph glyph-name="S" unicode="S" horiz-adv-x="633" 
d="M355 732c89 0 175 -17 219 -40l-25 -138c-53 16 -131 28 -197 28c-88 0 -131 -27 -131 -68c0 -36 26 -51 60 -60c58 -15 104 -27 162 -43c114 -32 156 -90 156 -196c0 -146 -89 -227 -297 -227c-81 0 -193 13 -254 41l23 146c55 -18 148 -36 217 -36c91 0 146 15 146 68
c0 37 -24 52 -64 62c-59 15 -99 25 -158 41c-104 28 -157 85 -157 193c0 168 107 229 300 229z" />
    <glyph glyph-name="T" unicode="T" horiz-adv-x="646" 
d="M403 0h-160v566h-213v154h586v-154h-213v-566z" />
    <glyph glyph-name="uni0422" unicode="&#x422;" horiz-adv-x="646" 
d="M403 0h-160v566h-213v154h586v-154h-213v-566z" />
    <glyph glyph-name="U" unicode="U" horiz-adv-x="741" 
d="M371 136c112 0 142 49 142 185v399h158v-400c0 -231 -71 -332 -300 -332c-225 0 -301 100 -301 331v401h160v-399c0 -136 28 -185 141 -185z" />
    <glyph glyph-name="V" unicode="V" horiz-adv-x="727" 
d="M265 0l-252 720h170l186 -569l190 569h164l-256 -720h-202z" />
    <glyph glyph-name="W" unicode="W" horiz-adv-x="1066" 
d="M204 0l-178 720h164l125 -545l119 545h203l124 -545l121 545h162l-176 -720h-210l-122 528l-122 -528h-210z" />
    <glyph glyph-name="X" unicode="X" horiz-adv-x="705" 
d="M516 0l-159 276l-159 -276h-187l225 366l-224 354h190l151 -262l147 262h184l-214 -347l231 -373h-185z" />
    <glyph glyph-name="uni0425" unicode="&#x425;" horiz-adv-x="705" 
d="M516 0l-159 276l-159 -276h-187l225 366l-224 354h190l151 -262l147 262h184l-214 -347l231 -373h-185z" />
    <glyph glyph-name="Y" unicode="Y" horiz-adv-x="681" 
d="M421 0h-163v287l-255 433h188l153 -272l153 272h181l-257 -430v-290z" />
    <glyph glyph-name="Z" unicode="Z" horiz-adv-x="663" 
d="M608 568l-354 -416h364v-152h-560v152l353 416h-353v152h550v-152z" />
    <glyph glyph-name="a" unicode="a" horiz-adv-x="608" 
d="M373 376v23c0 49 -28 63 -105 63c-58 0 -121 -10 -191 -30l-22 130c70 26 162 40 228 40c145 0 243 -32 243 -193v-241c0 -34 15 -49 45 -49h25v-119c-15 -4 -43 -10 -79 -10c-65 0 -103 14 -129 64c-62 -45 -113 -66 -189 -66c-109 0 -165 69 -165 174
c0 114 69 161 164 183c60 14 117 22 175 31zM374 263c-46 -8 -89 -17 -129 -28c-35 -10 -55 -26 -55 -64c0 -37 23 -52 56 -52c42 0 80 13 128 41v103z" />
    <glyph glyph-name="uni0430" unicode="&#x430;" horiz-adv-x="608" 
d="M373 376v23c0 49 -28 63 -105 63c-58 0 -121 -10 -191 -30l-22 130c70 26 162 40 228 40c145 0 243 -32 243 -193v-241c0 -34 15 -49 45 -49h25v-119c-15 -4 -43 -10 -79 -10c-65 0 -103 14 -129 64c-62 -45 -113 -66 -189 -66c-109 0 -165 69 -165 174
c0 114 69 161 164 183c60 14 117 22 175 31zM374 263c-46 -8 -89 -17 -129 -28c-35 -10 -55 -26 -55 -64c0 -37 23 -52 56 -52c42 0 80 13 128 41v103z" />
    <glyph glyph-name="acute" unicode="&#xb4;" horiz-adv-x="367" 
d="M258 843l64 -110l-221 -106l-49 80z" />
    <glyph glyph-name="acute.cap" horiz-adv-x="367" 
d="M269 970l56 -113l-246 -101l-42 84z" />
    <glyph glyph-name="ampersand" unicode="&#x26;" horiz-adv-x="727" 
d="M557 375l136 -18c-9 -96 -36 -175 -79 -236l113 -121h-186l-29 31c-51 -28 -113 -43 -183 -43c-178 0 -281 71 -281 221c0 93 44 147 133 183c-35 47 -51 87 -51 143c0 123 77 197 232 197c136 0 217 -65 217 -193c0 -96 -44 -153 -174 -193l112 -120c21 39 33 89 40 149
zM331 126c31 0 58 3 81 11c-55 59 -113 122 -153 164c-40 -19 -57 -43 -57 -84c0 -56 41 -91 129 -91zM441 533c0 43 -25 67 -80 67c-58 0 -84 -28 -84 -69c0 -30 13 -57 44 -91l3 -4c77 23 117 56 117 97z" />
    <glyph glyph-name="approxequal" unicode="&#x2248;" horiz-adv-x="616" 
d="M408 135c-92 0 -136 75 -190 75c-43 0 -52 -30 -69 -75l-114 28c19 137 92 184 166 184c85 0 143 -75 194 -75c38 0 58 23 76 76l110 -34c-30 -142 -94 -179 -173 -179zM408 358c-90 0 -135 76 -190 76c-40 0 -51 -29 -69 -76l-114 28c19 138 92 184 176 184
s133 -75 184 -75c38 0 58 23 76 76l110 -33c-30 -142 -94 -180 -173 -180z" />
    <glyph glyph-name="asciicircum" unicode="^" horiz-adv-x="568" 
d="M27 368l186 352h140l188 -352h-145l-112 225l-113 -225h-144z" />
    <glyph glyph-name="asciitilde" unicode="~" horiz-adv-x="646" 
d="M479 446h119c1 -150 -66 -232 -157 -232c-51 0 -87 15 -131 53c-35 30 -54 55 -81 55c-33 0 -58 -38 -64 -106h-117c4 161 80 233 170 233c49 0 89 -21 135 -63c35 -32 50 -45 70 -45c39 0 52 42 56 105z" />
    <glyph glyph-name="asterisk" unicode="*" horiz-adv-x="482" 
d="M186 523l-134 -45l-27 125l141 15l-84 113l111 64l57 -129l83 116l94 -85l-105 -95l135 -43l-52 -116l-122 70v-141l-126 13z" />
    <glyph glyph-name="at" unicode="@" horiz-adv-x="930" 
d="M542 381c-17 5 -34 7 -54 7c-51 0 -75 -26 -75 -93c0 -78 26 -93 65 -93c21 0 43 7 64 21v158zM668 21l26 -126c-44 -22 -139 -33 -205 -33c-279 0 -439 114 -439 429c0 298 174 429 443 429c254 0 397 -118 397 -362c0 -161 -67 -280 -205 -280c-46 0 -94 7 -129 61
c-22 -29 -56 -58 -117 -58c-109 0 -164 74 -164 209c0 167 93 218 214 218c70 0 132 -13 183 -35v-229c0 -24 10 -34 23 -34h3c32 0 55 40 55 145c0 171 -94 230 -261 230c-171 0 -292 -82 -292 -293c0 -230 108 -294 296 -294c59 0 121 9 172 23z" />
    <glyph glyph-name="b" unicode="b" horiz-adv-x="646" 
d="M322 -12c-89 0 -185 14 -258 35v747h157v-226c69 39 112 56 183 56c121 0 202 -77 202 -288c0 -218 -69 -324 -284 -324zM329 128c101 0 120 59 120 181c0 127 -40 148 -107 148c-39 0 -86 -12 -121 -31v-286c29 -7 65 -12 108 -12z" />
    <glyph glyph-name="backslash" unicode="\" horiz-adv-x="454" 
d="M2 770h150l300 -950h-150z" />
    <glyph glyph-name="backslash.cap" horiz-adv-x="416" 
d="M2 790h151l261 -865h-151z" />
    <glyph glyph-name="bar" unicode="|" horiz-adv-x="350" 
d="M101 770h148v-950h-148v950z" />
    <glyph glyph-name="bar.cap" horiz-adv-x="355" 
d="M102 790h151v-865h-151v865z" />
    <glyph glyph-name="braceleft" unicode="{" horiz-adv-x="405" 
d="M64 229h-34v130h34c54 0 66 30 66 85v136c0 142 65 193 210 193c18 0 36 -2 50 -4v-133c-14 1 -28 1 -43 1c-42 0 -70 -16 -70 -68v-127c0 -69 -22 -127 -77 -148c54 -21 77 -78 77 -147v-126c0 -52 28 -69 70 -69c17 0 28 0 43 1v-132c-13 -3 -31 -5 -50 -5
c-145 0 -210 52 -210 194v135c0 55 -12 84 -66 84z" />
    <glyph glyph-name="braceleft.cap" horiz-adv-x="408" 
d="M60 294h-30v119h30c54 0 65 24 65 77v126c0 142 62 197 199 197c27 0 44 -1 64 -3v-126c-15 1 -29 1 -47 1c-42 0 -64 -20 -64 -63v-133c0 -68 -20 -113 -74 -135c54 -22 74 -68 74 -135v-131c0 -43 22 -63 64 -63c14 0 32 0 47 1v-126c-22 -2 -35 -3 -64 -3
c-137 0 -199 53 -199 195v126c0 53 -11 76 -65 76z" />
    <glyph glyph-name="braceright" unicode="}" horiz-adv-x="405" 
d="M341 230c-54 0 -66 -30 -66 -85v-136c0 -142 -65 -193 -210 -193c-18 0 -36 2 -50 4v133c14 -1 28 -1 43 -1c42 0 70 16 70 68v127c0 69 21 126 77 147c-55 22 -77 79 -77 148v126c0 52 -28 69 -70 69c-17 0 -28 0 -43 -1v132c13 3 31 5 50 5c145 0 210 -52 210 -194
v-135c0 -55 12 -84 66 -84h34v-130h-34z" />
    <glyph glyph-name="braceright.cap" horiz-adv-x="408" 
d="M348 413h30v-119h-30c-54 0 -65 -23 -65 -76v-126c0 -142 -62 -195 -199 -195c-29 0 -42 1 -64 3v126c15 -1 33 -1 47 -1c42 0 64 20 64 63v131c0 67 20 113 74 135c-54 22 -74 67 -74 135v133c0 43 -22 63 -64 63c-18 0 -32 0 -47 -1v126c20 2 37 3 64 3
c137 0 199 -55 199 -197v-126c0 -53 11 -77 65 -77z" />
    <glyph glyph-name="bracketleft" unicode="[" horiz-adv-x="378" 
d="M85 -180v950h263v-131h-116v-688h116v-131h-263z" />
    <glyph glyph-name="bracketleft.cap" horiz-adv-x="373" 
d="M85 -101v911h263v-131h-116v-649h116v-131h-263z" />
    <glyph glyph-name="bracketright" unicode="]" horiz-adv-x="378" 
d="M293 770v-950h-263v131h116v688h-116v131h263z" />
    <glyph glyph-name="bracketright.cap" horiz-adv-x="373" 
d="M288 810v-911h-263v131h116v649h-116v131h263z" />
    <glyph glyph-name="brokenbar" unicode="&#xa6;" horiz-adv-x="350" 
d="M101 770h148v-411h-148v411zM101 252h148v-432h-148v432z" />
    <glyph glyph-name="brokenbar.cap" horiz-adv-x="355" 
d="M102 790h151v-371h-151v371zM102 312h151v-387h-151v387z" />
    <glyph glyph-name="bullet" unicode="&#x2022;" horiz-adv-x="331" 
d="M165 257c-67 0 -115 40 -115 114c0 75 48 115 115 115c70 0 116 -40 116 -115c0 -74 -46 -114 -116 -114z" />
    <glyph glyph-name="c" unicode="c" horiz-adv-x="540" 
d="M349 454c-101 0 -151 -26 -151 -159c0 -129 39 -159 149 -159c33 0 92 6 137 21l21 -134c-36 -20 -127 -35 -181 -35c-186 0 -284 75 -284 307c0 223 99 307 284 307c58 0 145 -15 181 -35l-22 -134c-44 13 -101 21 -134 21z" />
    <glyph glyph-name="uni0441" unicode="&#x441;" horiz-adv-x="540" 
d="M349 454c-101 0 -151 -26 -151 -159c0 -129 39 -159 149 -159c33 0 92 6 137 21l21 -134c-36 -20 -127 -35 -181 -35c-186 0 -284 75 -284 307c0 223 99 307 284 307c58 0 145 -15 181 -35l-22 -134c-44 13 -101 21 -134 21z" />
    <glyph glyph-name="cent" unicode="&#xa2;" horiz-adv-x="555" 
d="M256 -12v75c-139 19 -211 102 -211 302c0 191 73 280 211 301v66h117v-62c51 -5 109 -18 137 -33l-22 -134c-44 13 -101 21 -134 21c-101 0 -151 -26 -151 -159c0 -129 39 -159 149 -159c33 0 92 6 137 21l21 -134c-28 -15 -87 -28 -137 -33v-72h-117z" />
    <glyph glyph-name="colon" unicode=":" horiz-adv-x="286" 
d="M143 168c58 0 88 -22 88 -90s-30 -90 -88 -90s-88 22 -88 90s30 90 88 90zM143 590c58 0 88 -22 88 -90s-30 -90 -88 -90s-88 22 -88 90s30 90 88 90z" />
    <glyph glyph-name="period" unicode="." horiz-adv-x="286" 
d="M143 168c58 0 88 -22 88 -90s-30 -90 -88 -90s-88 22 -88 90s30 90 88 90z" />
    <glyph glyph-name="comma" unicode="," horiz-adv-x="290" 
d="M98 -163l-59 76c35 30 68 58 90 85c-60 4 -81 31 -81 83c0 57 32 87 93 87c64 0 90 -39 90 -115c0 -54 -14 -95 -39 -129s-53 -59 -94 -87z" />
    <glyph glyph-name="copyright" unicode="&#xa9;" horiz-adv-x="812" 
d="M408 39c182 0 296 116 296 320c0 201 -111 320 -296 320c-188 0 -300 -119 -300 -320c0 -202 115 -320 300 -320zM409 -14c-224 0 -359 146 -359 373c0 229 135 373 359 373c221 0 353 -146 353 -373s-132 -373 -353 -373zM441 484c-78 0 -117 -21 -117 -122
c0 -97 40 -121 116 -121c27 0 74 5 110 17l18 -114c-29 -16 -95 -28 -145 -28c-136 0 -227 59 -227 246s89 246 227 246c50 0 116 -12 145 -28l-20 -113c-35 11 -81 17 -107 17z" />
    <glyph glyph-name="currency" unicode="&#xa4;" horiz-adv-x="753" 
d="M713 129l-87 -94l-100 94c-38 -28 -88 -42 -148 -42c-62 0 -112 15 -150 42l-100 -98l-88 90l116 109c-12 33 -18 71 -18 115c0 42 6 80 17 113l-115 105l88 95l100 -98c39 28 90 43 150 43c61 0 110 -15 148 -43l100 98l87 -91l-117 -104c12 -34 18 -73 18 -118
c0 -42 -6 -79 -16 -112zM461 345c0 81 -24 114 -83 114c-63 0 -87 -33 -88 -114c-1 -80 25 -114 88 -114c59 0 83 34 83 114z" />
    <glyph glyph-name="cyrbreve" horiz-adv-x="496" 
d="M249 647c-124 0 -176 49 -183 151h121c5 -44 22 -60 62 -60s57 16 62 60h121c-7 -102 -59 -151 -183 -151z" />
    <glyph glyph-name="cyrbreve.cap" horiz-adv-x="500" 
d="M251 778c-135 0 -179 51 -188 146h124c7 -41 22 -58 64 -58s57 17 64 58h124c-9 -95 -53 -146 -188 -146z" />
    <glyph glyph-name="d" unicode="d" horiz-adv-x="645" 
d="M334 459c-81 0 -138 -29 -138 -167c0 -131 42 -159 107 -159c42 0 88 13 121 31v285c-25 6 -53 10 -90 10zM428 45c-60 -38 -115 -55 -174 -55c-140 0 -214 89 -214 300c0 218 97 310 275 310c28 0 70 -5 109 -13v183h157v-770h-153v45z" />
    <glyph glyph-name="dagger" unicode="&#x2020;" horiz-adv-x="549" 
d="M338 428l12 -483h-151l12 483h-171l10 142l160 -17l-9 179h147l-9 -179l160 17l10 -142h-171z" />
    <glyph glyph-name="daggerdbl" unicode="&#x2021;" horiz-adv-x="569" 
d="M509 117l-161 17l10 -189h-147l10 189l-161 -17l-10 139l170 3v169h-170l10 142l161 -17l-10 179h147l-10 -179l161 17l10 -142h-170v-169l170 -3z" />
    <glyph glyph-name="degree" unicode="&#xb0;" horiz-adv-x="419" 
d="M210 625c-37 0 -57 -21 -57 -71s19 -71 56 -71s57 22 57 71c0 50 -19 71 -56 71zM209 732c121 0 175 -65 175 -178c0 -106 -52 -178 -175 -178c-124 0 -174 73 -174 178c0 113 50 178 174 178z" />
    <glyph glyph-name="dieresis" unicode="&#xa8;" horiz-adv-x="455" 
d="M128 801c45 0 77 -22 77 -75c0 -54 -32 -76 -77 -76s-78 22 -78 76c0 53 33 75 78 75zM328 801c45 0 77 -22 77 -75c0 -54 -32 -76 -77 -76s-78 22 -78 76c0 53 33 75 78 75z" />
    <glyph glyph-name="dieresis.cap" horiz-adv-x="463" 
d="M130 915c45 0 77 -22 77 -75c0 -54 -32 -76 -77 -76s-78 22 -78 76c0 53 33 75 78 75zM331 915c45 0 77 -22 77 -75c0 -54 -32 -76 -77 -76s-78 22 -78 76c0 53 33 75 78 75z" />
    <glyph glyph-name="divide" unicode="&#xf7;" horiz-adv-x="614" 
d="M60 427v-141h494v141h-494zM306 626c45 0 77 -22 77 -75c0 -54 -32 -76 -77 -76s-78 22 -78 76c0 53 33 75 78 75zM306 237c45 0 77 -22 77 -75c0 -54 -32 -76 -77 -76s-78 22 -78 76c0 53 33 75 78 75z" />
    <glyph glyph-name="dollar" unicode="$" horiz-adv-x="616" 
d="M391 -45h-145v55c-74 4 -158 18 -203 38l23 142c53 -16 142 -30 216 -30c84 0 132 11 132 56c0 33 -20 46 -62 56c-57 14 -83 18 -141 32c-110 26 -170 77 -170 187c0 126 72 191 206 208v64h144v-62c65 -6 127 -19 160 -36l-26 -140c-52 16 -121 28 -187 28
c-74 0 -133 -9 -133 -52c0 -32 25 -40 59 -49c61 -17 81 -18 142 -34c128 -34 169 -93 169 -194c0 -126 -70 -187 -184 -207v-62z" />
    <glyph glyph-name="dotlessj" horiz-adv-x="296" 
d="M51 -192c-38 0 -71 3 -111 13l15 127c19 -3 35 -5 52 -5c42 0 68 13 68 64v583h157v-583c0 -145 -58 -199 -181 -199z" />
    <glyph glyph-name="e" unicode="e" horiz-adv-x="593" 
d="M520 157l21 -134c-58 -27 -150 -35 -215 -35c-214 0 -286 95 -286 307c0 205 97 307 288 307c142 0 228 -59 228 -183v-9c0 -100 -34 -139 -146 -160c-59 -12 -138 -21 -213 -30c12 -62 47 -88 143 -88c59 0 135 10 180 25zM323 469c-78 0 -129 -32 -134 -133
c73 11 136 21 180 31c31 7 40 21 40 41v5c0 37 -24 56 -86 56z" />
    <glyph glyph-name="uni0435" unicode="&#x435;" horiz-adv-x="593" 
d="M520 157l21 -134c-58 -27 -150 -35 -215 -35c-214 0 -286 95 -286 307c0 205 97 307 288 307c142 0 228 -59 228 -183v-9c0 -100 -34 -139 -146 -160c-59 -12 -138 -21 -213 -30c12 -62 47 -88 143 -88c59 0 135 10 180 25zM323 469c-78 0 -129 -32 -134 -133
c73 11 136 21 180 31c31 7 40 21 40 41v5c0 37 -24 56 -86 56z" />
    <glyph glyph-name="eight" unicode="8" horiz-adv-x="658" 
d="M613 208c0 -134 -84 -222 -286 -222c-187 0 -282 80 -282 216c0 80 30 136 108 170c-55 26 -92 72 -92 158c0 144 107 204 265 204c174 0 270 -60 270 -199c0 -86 -32 -126 -95 -161c75 -29 112 -71 112 -166zM329 130c77 0 119 28 119 86c0 64 -42 88 -119 88
c-71 0 -118 -24 -118 -88c0 -58 40 -86 118 -86zM222 507c0 -58 45 -76 107 -76c67 0 110 18 110 76c0 65 -50 83 -108 83c-57 0 -109 -18 -109 -83z" />
    <glyph glyph-name="eight.tnum_lnum" 
d="M600 208c0 -134 -80 -222 -282 -222c-187 0 -278 80 -278 216c0 80 30 136 108 170c-55 26 -92 72 -92 158c0 144 103 204 261 204c174 0 266 -60 266 -199c0 -86 -32 -126 -95 -161c75 -29 112 -71 112 -166zM320 130c77 0 115 28 115 86c0 64 -38 88 -115 88
c-71 0 -114 -24 -114 -88c0 -58 36 -86 114 -86zM217 507c0 -58 41 -76 103 -76c67 0 106 18 106 76c0 65 -46 83 -104 83c-57 0 -105 -18 -105 -83z" />
    <glyph glyph-name="ellipsis" unicode="&#x2026;" horiz-adv-x="766" 
d="M143 168c58 0 88 -22 88 -90s-30 -90 -88 -90s-88 22 -88 90s30 90 88 90zM383 168c58 0 88 -22 88 -90s-30 -90 -88 -90s-88 22 -88 90s30 90 88 90zM623 168c58 0 88 -22 88 -90s-30 -90 -88 -90s-88 22 -88 90s30 90 88 90z" />
    <glyph glyph-name="emdash" unicode="&#x2014;" horiz-adv-x="845" 
d="M52 385h741v-141h-741v141z" />
    <glyph glyph-name="emdash.cap" horiz-adv-x="845" 
d="M52 440h741v-141h-741v141z" />
    <glyph glyph-name="endash" unicode="&#x2013;" horiz-adv-x="555" 
d="M52 385h451v-141h-451v141z" />
    <glyph glyph-name="endash.cap" horiz-adv-x="555" 
d="M52 440h451v-141h-451v141z" />
    <glyph glyph-name="equal" unicode="=" horiz-adv-x="580" 
d="M60 172v141h460v-141h-460zM60 397v141h460v-141h-460z" />
    <glyph glyph-name="exclam" unicode="!" horiz-adv-x="317" 
d="M220 237h-121l-10 101c-11 108 -13 142 -15 207c-2 56 -1 119 1 177h169c2 -58 3 -121 1 -177c-2 -65 -4 -99 -15 -207zM158 168c58 0 88 -22 88 -90s-30 -90 -88 -90s-88 22 -88 90s30 90 88 90z" />
    <glyph glyph-name="f" unicode="f" horiz-adv-x="407" 
d="M391 570v-136h-146v-434h-155v434h-62v136h62v21c0 148 79 191 204 191c48 0 84 -7 113 -14l-16 -130c-18 4 -50 8 -74 8c-45 0 -72 -10 -72 -71v-5h146z" />
    <glyph glyph-name="five" unicode="5" horiz-adv-x="605" 
d="M546 568h-322l-4 -128c35 10 77 16 125 16c158 0 234 -59 234 -228c0 -150 -81 -240 -284 -240c-89 0 -188 17 -250 44l29 145c56 -21 139 -36 202 -36c99 0 142 20 142 86c0 62 -34 87 -114 87c-40 0 -86 -7 -124 -19l-108 47l11 378h463v-152z" />
    <glyph glyph-name="five.tnum_lnum" 
d="M553 568h-322l-4 -128c35 10 77 16 125 16c158 0 234 -59 234 -228c0 -150 -81 -240 -284 -240c-89 0 -188 17 -250 44l29 145c56 -21 139 -36 202 -36c99 0 142 20 142 86c0 62 -34 87 -114 87c-40 0 -86 -7 -124 -19l-108 47l11 378h463v-152z" />
    <glyph glyph-name="four" unicode="4" horiz-adv-x="644" 
d="M385 0v137h-355v134l288 449h214v-446h91v-137h-91v-137h-147zM192 274h193v302z" />
    <glyph glyph-name="four.tnum_lnum" 
d="M381 0v137h-355v134l288 449h214v-446h91v-137h-91v-137h-147zM188 274h193v302z" />
    <glyph glyph-name="franc" unicode="&#x20a3;" horiz-adv-x="754" 
d="M76 0v720h477v-154h-317v-146h323v-50c19 14 31 23 51 35c25 17 56 25 87 25c18 0 32 -2 45 -5l-11 -142c-11 1 -21 2 -35 2c-21 0 -43 -3 -70 -14c-21 -8 -40 -18 -62 -31v-240h-145v280h-183v-280h-160z" />
    <glyph glyph-name="g" unicode="g" horiz-adv-x="645" 
d="M335 464c-82 0 -138 -31 -138 -144c0 -92 30 -129 100 -129c45 0 93 11 129 31v231c-28 7 -57 11 -91 11zM285 -50c105 0 142 29 142 109v42c-53 -29 -105 -48 -176 -48c-141 0 -211 92 -211 267c0 203 105 282 300 282c84 0 174 -12 241 -33v-499
c0 -189 -83 -262 -274 -262c-70 0 -156 12 -216 35l21 133c51 -15 121 -26 173 -26z" />
    <glyph glyph-name="grave" unicode="`" horiz-adv-x="367" 
d="M116 843l206 -136l-49 -80l-221 106z" />
    <glyph glyph-name="grave.cap" horiz-adv-x="367" 
d="M93 970l232 -130l-42 -84l-246 101z" />
    <glyph glyph-name="greater" unicode="&#x3e;" horiz-adv-x="525" 
d="M475 446v-187l-415 -146v146l293 92l-293 96v151z" />
    <glyph glyph-name="greaterequal" unicode="&#x2265;" horiz-adv-x="545" 
d="M490 530v-176l-425 -138v139l307 86l-307 82v138zM65 189h425v-130h-425v130z" />
    <glyph glyph-name="guillemotleft" unicode="&#xab;" horiz-adv-x="508" 
d="M136 76l-111 227l110 226h138l-105 -226l105 -227h-137zM346 76l-111 227l110 226h138l-105 -226l105 -227h-137z" />
    <glyph glyph-name="guillemotleft.cap" horiz-adv-x="508" 
d="M136 132l-111 227l110 226h138l-105 -226l105 -227h-137zM346 132l-111 227l110 226h138l-105 -226l105 -227h-137z" />
    <glyph glyph-name="guillemotright" unicode="&#xbb;" horiz-adv-x="508" 
d="M372 529l111 -227l-110 -226h-138l104 226l-104 227h137zM162 529l111 -227l-110 -226h-138l104 226l-104 227h137z" />
    <glyph glyph-name="guillemotright.cap" horiz-adv-x="508" 
d="M372 585l111 -227l-110 -226h-138l104 226l-104 227h137zM162 585l111 -227l-110 -226h-138l104 226l-104 227h137z" />
    <glyph glyph-name="guilsinglleft" unicode="&#x2039;" horiz-adv-x="328" 
d="M156 76l-131 227l130 226h148l-133 -226l133 -227h-147z" />
    <glyph glyph-name="guilsinglleft.cap" horiz-adv-x="328" 
d="M156 132l-131 227l130 226h148l-133 -226l133 -227h-147z" />
    <glyph glyph-name="guilsinglright" unicode="&#x203a;" horiz-adv-x="328" 
d="M172 529l131 -227l-130 -226h-148l133 226l-133 227h147z" />
    <glyph glyph-name="guilsinglright.cap" horiz-adv-x="328" 
d="M172 585l131 -227l-130 -226h-148l133 226l-133 227h147z" />
    <glyph glyph-name="h" unicode="h" horiz-adv-x="654" 
d="M221 0h-157v770h157v-226c59 36 119 56 185 56c121 0 188 -65 188 -207v-393h-157v374c0 61 -27 83 -95 83c-36 0 -86 -12 -121 -31v-426z" />
    <glyph glyph-name="n" unicode="n" horiz-adv-x="654" 
d="M221 0h-157v590h155v-47c60 37 121 57 187 57c121 0 188 -65 188 -207v-393h-157v374c0 61 -27 83 -95 83c-36 0 -86 -12 -121 -31v-426z" />
    <glyph glyph-name="hyphen" unicode="-" horiz-adv-x="385" 
d="M52 385h281v-141h-281v141z" />
    <glyph glyph-name="hyphen.cap" horiz-adv-x="385" 
d="M52 440h281v-141h-281v141z" />
    <glyph glyph-name="i" unicode="i" horiz-adv-x="285" 
d="M221 590v-590h-157v590h157zM143 628c-51 0 -88 20 -88 80c0 59 37 79 88 79s87 -20 87 -79c0 -60 -36 -80 -87 -80z" />
    <glyph glyph-name="infinity" unicode="&#x221e;" horiz-adv-x="897" 
d="M658 134c-88 0 -147 35 -211 114c-57 -73 -111 -114 -203 -114c-117 0 -204 76 -204 225c0 146 90 221 203 221c93 0 148 -48 207 -130c52 78 113 130 203 130c118 0 204 -77 204 -219c0 -150 -85 -227 -199 -227zM249 262c59 0 93 32 130 83c-47 72 -88 107 -130 107
c-44 0 -76 -34 -76 -93c0 -62 28 -97 76 -97zM651 452c-63 0 -96 -46 -133 -100c43 -56 79 -90 132 -90c44 0 74 35 74 98c0 55 -30 92 -73 92z" />
    <glyph glyph-name="j" unicode="j" horiz-adv-x="296" 
d="M155 628c-51 0 -88 20 -88 80c0 59 37 79 88 79s87 -20 87 -79c0 -60 -36 -80 -87 -80zM51 -192c-38 0 -71 3 -111 13l15 127c19 -3 35 -5 52 -5c42 0 68 13 68 64v583h157v-583c0 -145 -58 -199 -181 -199z" />
    <glyph glyph-name="k" unicode="k" horiz-adv-x="631" 
d="M64 0v770h157v-419l85 32l131 207h178l-184 -275l190 -315h-185l-138 248l-77 -30v-218h-157z" />
    <glyph glyph-name="l" unicode="l" horiz-adv-x="285" 
d="M221 770v-770h-157v770h157z" />
    <glyph glyph-name="less" unicode="&#x3c;" horiz-adv-x="525" 
d="M50 259v187l415 152v-151l-294 -96l294 -92v-146z" />
    <glyph glyph-name="lessequal" unicode="&#x2264;" horiz-adv-x="545" 
d="M55 530l425 131v-138l-307 -82l307 -86v-139l-425 138v176zM480 189v-130h-425v130h425z" />
    <glyph glyph-name="logicalnot" unicode="&#xac;" horiz-adv-x="588" 
d="M392 154v170h-340v141h471v-311h-131z" />
    <glyph glyph-name="m" unicode="m" horiz-adv-x="1007" 
d="M221 0h-157v590h155v-47c54 33 114 57 179 57c62 0 114 -18 148 -65c73 43 137 65 209 65c123 0 192 -59 192 -218v-382h-157v374c0 62 -30 83 -92 83c-31 0 -61 -5 -117 -26c2 -14 3 -30 3 -46v-385h-157v374c0 62 -31 83 -89 83c-40 0 -83 -13 -117 -31v-426z" />
    <glyph glyph-name="minus" unicode="&#x2212;" horiz-adv-x="580" 
d="M60 431h460v-150h-460v150z" />
    <glyph glyph-name="multiply" unicode="&#xd7;" horiz-adv-x="566" 
d="M135 117l-90 91l147 147l-144 145l92 92l144 -145l147 147l90 -90l-147 -147l146 -146l-92 -91l-145 145z" />
    <glyph glyph-name="nine" unicode="9" horiz-adv-x="641" 
d="M261 139c124 0 168 34 178 152c-48 -20 -101 -29 -171 -29c-134 0 -223 66 -223 222c0 176 105 248 268 248c221 0 283 -131 283 -368c0 -251 -81 -376 -327 -376c-81 0 -147 16 -199 39l27 138c43 -14 107 -26 164 -26zM314 404c43 0 83 7 125 21
c-8 130 -43 163 -123 163c-79 0 -116 -32 -116 -96c0 -56 21 -88 114 -88z" />
    <glyph glyph-name="nine.tnum_lnum" 
d="M259 139c124 0 168 34 178 152c-48 -20 -101 -29 -171 -29c-134 0 -223 66 -223 222c0 176 105 248 268 248c221 0 283 -131 283 -368c0 -251 -81 -376 -327 -376c-81 0 -147 16 -199 39l27 138c43 -14 107 -26 164 -26zM312 404c43 0 83 7 125 21
c-8 130 -43 163 -123 163c-79 0 -116 -32 -116 -96c0 -56 21 -88 114 -88z" />
    <glyph glyph-name="notequal" unicode="&#x2260;" horiz-adv-x="611" 
d="M70 524h308l80 115l70 -49l-46 -66h59v-134h-152l-60 -87h212v-134h-305l-79 -115l-70 48l46 67h-63v134h156l60 87h-216v134z" />
    <glyph glyph-name="numbersign" unicode="#" horiz-adv-x="732" 
d="M75 439l16 139h99l17 154h134l-17 -154h131l17 154h134l-17 -154h103l-15 -139h-103l-16 -155h101l-16 -139h-100l-17 -157h-134l17 157h-131l-17 -157h-135l17 157h-103l17 139h101l17 155h-100zM309 439l-16 -155h131l16 155h-131z" />
    <glyph glyph-name="o" unicode="o" horiz-adv-x="632" 
d="M316 -14c-110 0 -192 29 -232 101c-28 50 -44 116 -44 208s16 158 44 208c40 72 122 101 232 101s192 -29 232 -101c28 -50 44 -116 44 -208s-16 -158 -44 -208c-40 -72 -122 -101 -232 -101zM316 129c43 0 74 10 93 38c17 26 26 72 26 128s-9 102 -26 128
c-19 28 -50 38 -93 38s-74 -10 -93 -38c-17 -26 -26 -72 -26 -128s9 -102 26 -128c19 -28 50 -38 93 -38z" />
    <glyph glyph-name="uni043E" unicode="&#x43e;" horiz-adv-x="632" 
d="M316 -14c-110 0 -192 29 -232 101c-28 50 -44 116 -44 208s16 158 44 208c40 72 122 101 232 101s192 -29 232 -101c28 -50 44 -116 44 -208s-16 -158 -44 -208c-40 -72 -122 -101 -232 -101zM316 129c43 0 74 10 93 38c17 26 26 72 26 128s-9 102 -26 128
c-19 28 -50 38 -93 38s-74 -10 -93 -38c-17 -26 -26 -72 -26 -128s9 -102 26 -128c19 -28 50 -38 93 -38z" />
    <glyph glyph-name="one" unicode="1" horiz-adv-x="441" 
d="M15 610l220 110h126v-720h-156v541l-158 -67z" />
    <glyph glyph-name="one.tnum_lnum" 
d="M75 0v149h209v382l-198 -88l-36 145l264 132h126v-571h175v-149h-540z" />
    <glyph glyph-name="p" unicode="p" horiz-adv-x="646" 
d="M332 -10c-32 0 -77 8 -111 14v-184h-157v770h153v-49c70 43 122 59 176 59c148 0 213 -94 213 -298c0 -228 -85 -312 -274 -312zM326 128c90 0 123 42 123 170c0 107 -25 160 -107 160c-36 0 -86 -13 -121 -32v-286c34 -8 70 -12 105 -12z" />
    <glyph glyph-name="uni0440" unicode="&#x440;" horiz-adv-x="646" 
d="M332 -10c-32 0 -77 8 -111 14v-184h-157v770h153v-49c70 43 122 59 176 59c148 0 213 -94 213 -298c0 -228 -85 -312 -274 -312zM326 128c90 0 123 42 123 170c0 107 -25 160 -107 160c-36 0 -86 -13 -121 -32v-286c34 -8 70 -12 105 -12z" />
    <glyph glyph-name="paragraph" unicode="&#xb6;" horiz-adv-x="783" 
d="M538 575h-76v-755h-135v295c-18 -1 -40 -2 -57 -2c-139 0 -228 75 -228 304c0 227 89 303 228 303h483v-145h-69v-755h-146v755z" />
    <glyph glyph-name="parenleft" unicode="(" horiz-adv-x="368" 
d="M55 296c0 242 98 394 218 484l80 -106c-72 -70 -144 -198 -144 -378c0 -190 64 -310 144 -380l-80 -106c-120 90 -218 230 -218 486z" />
    <glyph glyph-name="parenleft.cap" horiz-adv-x="363" 
d="M268 -111c-120 90 -213 220 -213 466c0 232 93 374 213 464l80 -106c-72 -70 -139 -188 -139 -358c0 -180 59 -290 139 -360z" />
    <glyph glyph-name="parenright" unicode=")" horiz-adv-x="368" 
d="M313 294c0 -242 -98 -394 -218 -484l-80 106c72 70 144 198 144 378c0 190 -64 310 -144 380l80 106c120 -90 218 -230 218 -486z" />
    <glyph glyph-name="parenright.cap" horiz-adv-x="363" 
d="M95 819c120 -90 213 -220 213 -466c0 -232 -93 -374 -213 -464l-80 106c72 70 139 188 139 358c0 180 -59 290 -139 360z" />
    <glyph glyph-name="percent" unicode="%" horiz-adv-x="884" 
d="M696 720l-360 -720h-147l360 720h147zM200 473c38 0 56 25 56 75c0 51 -18 75 -56 75s-57 -24 -57 -75c0 -50 19 -75 57 -75zM199 730c121 0 175 -68 175 -182c0 -111 -54 -182 -176 -182c-120 0 -173 71 -173 182c0 114 53 182 174 182zM685 95c38 0 56 25 56 75
c0 51 -18 75 -56 75s-57 -24 -57 -75c0 -50 19 -75 57 -75zM684 352c121 0 175 -68 175 -182c0 -111 -54 -182 -176 -182c-120 0 -173 71 -173 182c0 114 53 182 174 182z" />
    <glyph glyph-name="perthousand" unicode="&#x2030;" horiz-adv-x="1279" 
d="M1080 95c38 0 56 25 56 75c0 51 -18 75 -56 75s-57 -24 -57 -75c0 -50 19 -75 57 -75zM1079 352c121 0 175 -68 175 -182c0 -111 -54 -182 -176 -182c-120 0 -173 71 -173 182c0 114 53 182 174 182zM696 720l-360 -720h-147l360 720h147zM200 473c38 0 56 25 56 75
c0 51 -18 75 -56 75s-57 -24 -57 -75c0 -50 19 -75 57 -75zM199 730c121 0 175 -68 175 -182c0 -111 -54 -182 -176 -182c-120 0 -173 71 -173 182c0 114 53 182 174 182zM685 95c38 0 56 25 56 75c0 51 -18 75 -56 75s-57 -24 -57 -75c0 -50 19 -75 57 -75zM684 352
c121 0 175 -68 175 -182c0 -111 -54 -182 -176 -182c-120 0 -173 71 -173 182c0 114 53 182 174 182z" />
    <glyph glyph-name="plus" unicode="+" horiz-adv-x="611" 
d="M372 106h-133v181h-179v139h179v181h133v-181h179v-139h-179v-181z" />
    <glyph glyph-name="plusminus" unicode="&#xb1;" horiz-adv-x="597" 
d="M232 226v150h-172v134h172v150h133v-150h172v-134h-172v-150h-133zM537 189v-130h-477v130h477z" />
    <glyph glyph-name="q" unicode="q" horiz-adv-x="646" 
d="M346 457c-92 0 -150 -27 -150 -165c0 -120 29 -159 106 -159c42 0 87 12 123 31v283c-30 7 -51 10 -79 10zM582 -180h-157v223c-53 -33 -101 -53 -175 -53c-136 0 -210 91 -210 298c0 220 96 314 314 314c94 0 162 -13 228 -33v-749z" />
    <glyph glyph-name="question" unicode="?" horiz-adv-x="501" 
d="M20 695c54 22 135 37 201 37c175 0 250 -69 250 -205c0 -56 -18 -103 -70 -155c-22 -22 -62 -59 -81 -79c-22 -24 -30 -37 -32 -71l-126 -2c-3 15 -4 32 -4 46c0 31 9 64 35 93c30 32 67 67 87 86c24 22 31 42 31 70c0 46 -31 69 -104 69c-51 0 -105 -10 -159 -28z
M223 168c58 0 88 -22 88 -90s-30 -90 -88 -90s-88 22 -88 90s30 90 88 90z" />
    <glyph glyph-name="quotedbl" unicode="&#x22;" horiz-adv-x="449" 
d="M187 439h-127l-10 331h147zM389 439h-127l-10 331h147z" />
    <glyph glyph-name="quotesingle" unicode="'" horiz-adv-x="247" 
d="M187 439h-127l-10 331h147z" />
    <glyph glyph-name="quotedbl.cap" horiz-adv-x="449" 
d="M187 401h-127l-10 331h147zM389 401h-127l-10 331h147z" />
    <glyph glyph-name="quotedblbase" unicode="&#x201e;" horiz-adv-x="471" 
d="M87 -169l-59 76c35 33 68 61 90 85c-60 4 -81 31 -81 83c0 57 32 87 93 87c64 0 90 -39 90 -115c0 -54 -14 -95 -39 -129s-53 -59 -94 -87zM312 -169l-59 76c35 33 68 61 90 85c-60 4 -81 31 -81 83c0 57 32 87 93 87c64 0 90 -39 90 -115c0 -54 -14 -95 -39 -129
s-53 -59 -94 -87z" />
    <glyph glyph-name="quotesinglbase" unicode="&#x201a;" horiz-adv-x="246" 
d="M87 -169l-59 76c35 33 68 61 90 85c-60 4 -81 31 -81 83c0 57 32 87 93 87c64 0 90 -39 90 -115c0 -54 -14 -95 -39 -129s-53 -59 -94 -87z" />
    <glyph glyph-name="quotedblleft" unicode="&#x201c;" horiz-adv-x="470" 
d="M162 789l59 -76c-35 -33 -68 -61 -90 -85c60 -4 81 -31 81 -83c0 -57 -32 -87 -93 -87c-64 0 -90 39 -90 115c0 54 14 95 39 129s53 59 94 87zM386 789l59 -76c-35 -33 -68 -61 -90 -85c60 -4 81 -31 81 -83c0 -57 -32 -87 -93 -87c-64 0 -90 39 -90 115
c0 54 14 95 39 129s53 59 94 87z" />
    <glyph glyph-name="quoteleft" unicode="&#x2018;" horiz-adv-x="246" 
d="M162 789l59 -76c-35 -33 -68 -61 -90 -85c60 -4 81 -31 81 -83c0 -57 -32 -87 -93 -87c-64 0 -90 39 -90 115c0 54 14 95 39 129s53 59 94 87z" />
    <glyph glyph-name="quotedblleft.cap" horiz-adv-x="470" 
d="M162 749l59 -76c-35 -33 -68 -61 -90 -85c60 -4 81 -31 81 -83c0 -57 -32 -87 -93 -87c-64 0 -90 39 -90 115c0 54 14 95 39 129s53 59 94 87zM386 749l59 -76c-35 -33 -68 -61 -90 -85c60 -4 81 -31 81 -83c0 -57 -32 -87 -93 -87c-64 0 -90 39 -90 115
c0 54 14 95 39 129s53 59 94 87z" />
    <glyph glyph-name="quotedblright" unicode="&#x201d;" horiz-adv-x="471" 
d="M87 451l-59 76c35 33 68 61 90 85c-60 4 -81 31 -81 83c0 57 32 87 93 87c64 0 90 -39 90 -115c0 -54 -14 -95 -39 -129s-53 -59 -94 -87zM312 451l-59 76c35 33 68 61 90 85c-60 4 -81 31 -81 83c0 57 32 87 93 87c64 0 90 -39 90 -115c0 -54 -14 -95 -39 -129
s-53 -59 -94 -87z" />
    <glyph glyph-name="quotedblright.cap" horiz-adv-x="471" 
d="M87 411l-59 76c35 33 68 61 90 85c-60 4 -81 31 -81 83c0 57 32 87 93 87c64 0 90 -39 90 -115c0 -54 -14 -95 -39 -129s-53 -59 -94 -87zM312 411l-59 76c35 33 68 61 90 85c-60 4 -81 31 -81 83c0 57 32 87 93 87c64 0 90 -39 90 -115c0 -54 -14 -95 -39 -129
s-53 -59 -94 -87z" />
    <glyph glyph-name="quoteleft.cap" horiz-adv-x="246" 
d="M162 749l59 -76c-35 -33 -68 -61 -90 -85c60 -4 81 -31 81 -83c0 -57 -32 -87 -93 -87c-64 0 -90 39 -90 115c0 54 14 95 39 129s53 59 94 87z" />
    <glyph glyph-name="quoteright" unicode="&#x2019;" horiz-adv-x="246" 
d="M87 451l-59 76c35 33 68 61 90 85c-60 4 -81 31 -81 83c0 57 32 87 93 87c64 0 90 -39 90 -115c0 -54 -14 -95 -39 -129s-53 -59 -94 -87z" />
    <glyph glyph-name="quoteright.cap" horiz-adv-x="246" 
d="M87 411l-59 76c35 33 68 61 90 85c-60 4 -81 31 -81 83c0 57 32 87 93 87c64 0 90 -39 90 -115c0 -54 -14 -95 -39 -129s-53 -59 -94 -87z" />
    <glyph glyph-name="quotesingle.cap" horiz-adv-x="247" 
d="M187 401h-127l-10 331h147z" />
    <glyph glyph-name="r" unicode="r" horiz-adv-x="442" 
d="M221 0h-157v590h157v-59c18 14 31 26 51 39c32 21 62 30 105 30c23 0 40 -3 55 -6l-13 -143c-11 1 -18 1 -34 1c-34 0 -67 -6 -96 -19c-21 -9 -46 -23 -68 -37v-396z" />
    <glyph glyph-name="registered" unicode="&#xae;" horiz-adv-x="603" 
d="M303 234c-154 0 -258 96 -258 264s104 264 258 264c151 0 255 -96 255 -264s-104 -264 -255 -264zM302 283c118 0 203 73 203 215c0 141 -85 215 -203 215c-121 0 -204 -74 -204 -215c0 -142 83 -215 204 -215zM270 358h-74v288h115c76 0 111 -31 111 -95
c0 -48 -19 -75 -56 -86l65 -107h-83l-53 95h-25v-95zM270 516h39c27 0 41 7 41 31c0 28 -12 32 -42 32h-38v-63z" />
    <glyph glyph-name="rubel" unicode="&#x20bd;" horiz-adv-x="700" 
d="M50 399h77v321h268c205 0 278 -61 278 -235c0 -153 -77 -221 -269 -221h-119v-47h309v-116h-309v-101h-158v101h-77v116h77v50h-77v132zM285 399h113c83 0 112 21 112 85c0 66 -31 82 -116 82h-109v-167z" />
    <glyph glyph-name="s" unicode="s" horiz-adv-x="546" 
d="M42 24l21 133c52 -16 121 -27 187 -27c71 0 110 10 110 47c0 25 -13 37 -49 46c-37 9 -71 16 -120 29c-82 22 -145 55 -145 168c0 139 102 182 257 182c82 0 150 -15 192 -34l-22 -129c-45 13 -105 25 -172 25c-60 0 -96 -8 -96 -43c0 -21 16 -32 46 -40
c36 -10 72 -18 111 -28c110 -28 157 -68 157 -170c0 -144 -90 -195 -260 -195c-84 2 -171 15 -217 36z" />
    <glyph glyph-name="section" unicode="&#xa7;" horiz-adv-x="600" 
d="M543 296c0 -72 -27 -119 -77 -153c56 -31 76 -80 76 -142c0 -136 -88 -193 -252 -193c-79 0 -188 15 -225 34l22 133c46 -16 122 -28 189 -28c63 0 106 12 106 51c0 24 -17 37 -52 44c-52 10 -66 12 -116 24c-95 23 -148 80 -148 179c0 88 29 130 79 158
c-52 28 -76 72 -76 146c0 139 109 183 256 183c83 0 158 -13 196 -31l-23 -130c-45 13 -121 20 -173 20c-69 0 -101 -9 -101 -43c0 -25 19 -34 46 -41c43 -11 77 -19 126 -30c103 -23 147 -79 147 -181zM346 348l-76 18c-40 -16 -60 -46 -60 -96c0 -41 20 -63 65 -73
c22 -5 50 -10 80 -17c25 16 45 51 45 91s-16 67 -54 77z" />
    <glyph glyph-name="semicolon" unicode=";" horiz-adv-x="286" 
d="M107 -163l-59 76c35 30 68 58 90 85c-60 4 -81 31 -81 83c0 57 32 87 93 87c64 0 90 -39 90 -115c0 -54 -14 -95 -39 -129s-53 -59 -94 -87zM143 590c58 0 88 -22 88 -90s-30 -90 -88 -90s-88 22 -88 90s30 90 88 90z" />
    <glyph glyph-name="seven" unicode="7" horiz-adv-x="586" 
d="M40 720h516v-140l-267 -580h-171l272 568h-350v152z" />
    <glyph glyph-name="seven.tnum_lnum" 
d="M53 720h535v-140l-276 -580h-169l279 568h-369v152z" />
    <glyph glyph-name="six" unicode="6" horiz-adv-x="638" 
d="M384 581c-109 0 -166 -35 -181 -152c52 17 115 26 162 26c154 0 233 -64 233 -214c0 -173 -89 -253 -260 -253c-231 0 -293 121 -293 372c0 260 106 372 336 372c66 0 139 -16 190 -38l-27 -138c-40 13 -94 25 -160 25zM335 318c-48 0 -95 -8 -134 -20
c7 -124 39 -164 126 -164c91 0 117 34 117 95c0 62 -27 89 -109 89z" />
    <glyph glyph-name="six.tnum_lnum" 
d="M389 581c-109 0 -166 -35 -181 -152c52 17 115 26 162 26c154 0 233 -64 233 -214c0 -173 -89 -253 -260 -253c-231 0 -293 121 -293 372c0 260 106 372 336 372c66 0 139 -16 190 -38l-27 -138c-40 13 -94 25 -160 25zM340 318c-48 0 -95 -8 -134 -20
c7 -124 39 -164 126 -164c91 0 117 34 117 95c0 62 -27 89 -109 89z" />
    <glyph glyph-name="slash" unicode="/" horiz-adv-x="454" 
d="M452 770l-300 -950h-150l300 950h150z" />
    <glyph glyph-name="slash.cap" horiz-adv-x="416" 
d="M414 790l-261 -865h-151l261 865h151z" />
    <glyph glyph-name="space" unicode=" " horiz-adv-x="220" 
 />
    <glyph glyph-name="sterling" unicode="&#xa3;" horiz-adv-x="607" 
d="M582 146v-146h-541v140c49 20 87 57 87 113c0 13 -1 26 -2 40h-80v125h69c-1 19 -2 38 -2 56c0 198 99 258 276 258c65 0 128 -11 171 -29l-26 -137c-30 7 -80 14 -117 14c-111 0 -147 -36 -147 -147v-15h200v-125h-194c1 -11 1 -21 1 -29c0 -46 -14 -84 -38 -118h343z
" />
    <glyph glyph-name="t" unicode="t" horiz-adv-x="415" 
d="M246 197c0 -46 15 -68 68 -68c24 0 50 3 68 6l15 -128c-32 -11 -77 -17 -125 -17c-111 0 -180 42 -180 200v244h-72v136h72v120h154v-120h143v-136h-143v-237z" />
    <glyph glyph-name="three" unicode="3" horiz-adv-x="609" 
d="M554 575l-201 -149c126 0 226 -40 226 -201c0 -156 -89 -237 -294 -237c-91 0 -191 21 -248 47l28 141c63 -19 138 -34 208 -34c105 0 145 21 145 84c0 55 -30 74 -114 74c-30 0 -70 -4 -108 -9l-32 129l185 148h-299v152h504v-145z" />
    <glyph glyph-name="three.tnum_lnum" 
d="M562 575l-201 -149c126 0 226 -40 226 -201c0 -156 -89 -237 -294 -237c-91 0 -196 21 -253 47l28 141c63 -19 143 -34 213 -34c105 0 145 21 145 84c0 55 -30 74 -114 74c-30 0 -75 -4 -113 -9l-32 129l189 148h-303v152h509v-145z" />
    <glyph glyph-name="trademark" unicode="&#x2122;" horiz-adv-x="925" 
d="M527 344h-100v376h127l93 -172l92 172h126v-376h-101v236l-83 -151h-70l-84 152v-237zM152 344v274h-117v102h341v-102h-117v-274h-107z" />
    <glyph glyph-name="two" unicode="2" horiz-adv-x="597" 
d="M281 732c181 0 269 -65 269 -205c0 -95 -41 -153 -113 -217l-175 -156h307v-154h-524v138l281 265c41 39 57 65 57 99c0 47 -27 76 -126 76c-57 0 -127 -15 -183 -37l-28 141c56 27 159 50 235 50z" />
    <glyph glyph-name="two.tnum_lnum" 
d="M292 732c181 0 269 -65 269 -205c0 -95 -41 -153 -113 -217l-175 -156h307v-154h-524v138l281 265c41 39 57 65 57 99c0 47 -27 76 -126 76c-57 0 -127 -15 -183 -37l-28 141c56 27 159 50 235 50z" />
    <glyph glyph-name="u" unicode="u" horiz-adv-x="654" 
d="M433 590h157v-590h-155v47c-53 -33 -115 -57 -182 -57c-117 0 -193 54 -193 218v382h157v-374c0 -66 35 -83 91 -83c43 0 91 13 125 31v426z" />
    <glyph glyph-name="underscore" unicode="_" horiz-adv-x="491" 
d="M0 -180v141h491v-141h-491z" />
    <glyph glyph-name="uni0400" unicode="&#x400;" horiz-adv-x="606" 
d="M217 963l232 -130l-42 -84l-246 101zM75 0v720h477v-153h-317v-132h274v-143h-274v-139h326v-153h-486z" />
    <glyph glyph-name="uni0401" unicode="&#x401;" horiz-adv-x="606" 
d="M75 0v720h477v-153h-317v-132h274v-143h-274v-139h326v-153h-486zM215 916c45 0 77 -22 77 -75c0 -54 -32 -76 -77 -76s-78 22 -78 76c0 53 33 75 78 75zM416 916c45 0 77 -22 77 -75c0 -54 -32 -76 -77 -76s-78 22 -78 76c0 53 33 75 78 75z" />
    <glyph glyph-name="uni0402" unicode="&#x402;" horiz-adv-x="833" 
d="M382 0h-158v570h-194v150h585v-150h-233v-154c52 16 122 28 177 28c146 0 220 -53 220 -221v-216c0 -138 -47 -197 -177 -197c-41 0 -77 4 -117 13l16 125c15 -2 34 -5 51 -5c48 0 71 14 71 63v198c0 77 -29 104 -106 104c-38 0 -93 -7 -135 -21v-287z" />
    <glyph glyph-name="uni0403" unicode="&#x403;" horiz-adv-x="568" 
d="M75 720h463v-154h-303v-566h-160v720zM442 959l56 -113l-246 -101l-42 84z" />
    <glyph glyph-name="uni0413" unicode="&#x413;" horiz-adv-x="568" 
d="M75 720h463v-154h-303v-566h-160v720z" />
    <glyph glyph-name="uni0404" unicode="&#x404;" horiz-adv-x="612" 
d="M384 584c-114 0 -159 -41 -171 -152h262v-135h-263c11 -123 57 -161 178 -161c49 0 108 7 161 22l26 -133c-54 -22 -126 -37 -209 -37c-231 0 -322 87 -322 372c0 261 92 372 328 372c90 0 164 -16 208 -39l-26 -132c-53 16 -113 23 -172 23z" />
    <glyph glyph-name="uni0405" unicode="&#x405;" horiz-adv-x="633" 
d="M355 732c89 0 175 -17 219 -40l-25 -138c-53 16 -131 28 -197 28c-88 0 -131 -27 -131 -68c0 -36 26 -51 60 -60c58 -15 104 -27 162 -43c114 -32 156 -90 156 -196c0 -146 -89 -227 -297 -227c-81 0 -193 13 -254 41l23 146c55 -18 148 -36 217 -36c91 0 146 15 146 68
c0 37 -24 52 -64 62c-59 15 -99 25 -158 41c-104 28 -157 85 -157 193c0 168 107 229 300 229z" />
    <glyph glyph-name="uni0406" unicode="&#x406;" horiz-adv-x="313" 
d="M238 720v-720h-163v720h163z" />
    <glyph glyph-name="uni0407" unicode="&#x407;" horiz-adv-x="313" 
d="M238 720v-720h-163v720h163zM57 916c45 0 77 -22 77 -75c0 -54 -32 -76 -77 -76s-78 22 -78 76c0 53 33 75 78 75zM258 916c45 0 77 -22 77 -75c0 -54 -32 -76 -77 -76s-78 22 -78 76c0 53 33 75 78 75z" />
    <glyph glyph-name="uni0408" unicode="&#x408;" horiz-adv-x="450" 
d="M116 130c75 0 106 29 106 133v457h158v-449c0 -186 -57 -283 -230 -283c-58 0 -102 7 -135 18l21 133c25 -5 53 -9 80 -9z" />
    <glyph glyph-name="uni0409" unicode="&#x409;" horiz-adv-x="1082" 
d="M280 184c-14 -129 -45 -196 -180 -196c-25 0 -59 3 -84 10v140c14 0 35 1 44 2c41 4 59 20 66 66c11 65 16 204 17 303l2 211h505v-245c45 5 99 8 138 8c176 0 256 -61 256 -236c0 -195 -87 -247 -279 -247h-275v566h-192l-1 -57c-2 -109 -5 -227 -17 -325zM650 147h118
c81 0 118 17 118 97c0 72 -30 96 -112 96c-42 0 -88 -3 -124 -7v-186z" />
    <glyph glyph-name="uni040A" unicode="&#x40a;" horiz-adv-x="1096" 
d="M663 147h119c81 0 118 17 118 97c0 72 -30 96 -113 96c-41 0 -87 -3 -124 -7v-186zM235 293v-293h-160v720h160v-273h268v273h160v-245c46 5 99 8 139 8c176 0 256 -61 256 -236c0 -195 -87 -247 -280 -247h-275v293h-268z" />
    <glyph glyph-name="uni040B" unicode="&#x40b;" horiz-adv-x="833" 
d="M382 0h-158v570h-194v150h585v-150h-233v-154c52 16 122 28 177 28c146 0 220 -53 220 -221v-223h-156v204c0 77 -29 104 -106 104c-38 0 -93 -7 -135 -21v-287z" />
    <glyph glyph-name="uni040C" unicode="&#x40c;" horiz-adv-x="705" 
d="M506 0l-189 302l-82 -29v-273h-160v720h160v-301l94 32l178 269h185l-240 -347l245 -373h-191zM495 952l56 -113l-246 -101l-42 84z" />
    <glyph glyph-name="uni040D" unicode="&#x40d;" horiz-adv-x="748" 
d="M673 0h-156v467l-284 -467h-158v720h156v-466l284 466h158v-720zM253 942l232 -130l-42 -84l-246 101z" />
    <glyph glyph-name="uni0418" unicode="&#x418;" horiz-adv-x="748" 
d="M673 0h-156v467l-284 -467h-158v720h156v-466l284 466h158v-720z" />
    <glyph glyph-name="uni040E" unicode="&#x40e;" horiz-adv-x="708" 
d="M403 195l14 60c-31 -9 -70 -15 -111 -15c-107 0 -154 33 -185 138l-102 342h172l73 -285c10 -40 35 -54 86 -54c36 0 69 4 99 13l75 326h166l-147 -567c-32 -124 -94 -165 -224 -165c-57 0 -121 5 -171 17l13 145c46 -11 93 -14 131 -14c69 0 102 18 111 59zM359 747
c-135 0 -179 51 -188 146h124c7 -41 22 -58 64 -58s57 17 64 58h124c-9 -95 -53 -146 -188 -146z" />
    <glyph glyph-name="uni0423" unicode="&#x423;" horiz-adv-x="708" 
d="M403 195l14 60c-31 -9 -70 -15 -111 -15c-107 0 -154 33 -185 138l-102 342h172l73 -285c10 -40 35 -54 86 -54c36 0 69 4 99 13l75 326h166l-147 -567c-32 -124 -94 -165 -224 -165c-57 0 -121 5 -171 17l13 145c46 -11 93 -14 131 -14c69 0 102 18 111 59z" />
    <glyph glyph-name="uni040F" unicode="&#x40f;" horiz-adv-x="742" 
d="M667 0h-218v-130h-155v130h-219v720h160v-570h272v570h160v-720z" />
    <glyph glyph-name="uni0411" unicode="&#x411;" horiz-adv-x="669" 
d="M75 0v720h516v-152h-356v-129c41 3 93 6 136 6c174 0 255 -41 255 -218c0 -157 -70 -227 -270 -227h-281zM235 145h124c82 0 110 20 110 81c0 69 -36 80 -112 80c-32 0 -85 -1 -122 -4v-157z" />
    <glyph glyph-name="uni0414" unicode="&#x414;" horiz-adv-x="771" 
d="M322 430c-1 -85 -7 -115 -23 -173c-10 -36 -21 -66 -35 -105h234v416h-174zM592 -130v130h-412v-130h-154v282h72c18 42 33 78 47 118c18 50 24 88 24 160v290h487v-568h90v-282h-154z" />
    <glyph glyph-name="uni0416" unicode="&#x416;" horiz-adv-x="1004" 
d="M580 720v-298l76 24l153 274h178l-210 -340l217 -380h-184l-164 301l-66 -20v-281h-157v281l-66 20l-163 -301h-184l217 380l-211 340h178l155 -274l74 -24v298h157z" />
    <glyph glyph-name="uni0417" unicode="&#x417;" horiz-adv-x="628" 
d="M279 -12c-67 0 -177 15 -231 38l27 142c56 -18 145 -32 204 -32c112 0 143 23 143 84s-25 81 -119 81h-127v136h128c81 0 105 21 105 73c0 51 -25 74 -120 74c-84 0 -145 -15 -202 -31l-27 141c54 23 160 38 226 38c205 0 280 -53 280 -194c0 -57 -29 -107 -92 -157
c75 -28 112 -79 112 -164c0 -187 -105 -229 -307 -229z" />
    <glyph glyph-name="uni0419" unicode="&#x419;" horiz-adv-x="748" 
d="M673 0h-156v467l-284 -467h-158v720h156v-466l284 466h158v-720zM376 744c-135 0 -179 51 -188 146h124c7 -41 22 -58 64 -58s57 17 64 58h124c-9 -95 -53 -146 -188 -146z" />
    <glyph glyph-name="uni041B" unicode="&#x41b;" horiz-adv-x="725" 
d="M298 566l-1 -57c-2 -109 -5 -227 -17 -325c-14 -129 -45 -196 -180 -196c-25 0 -59 3 -84 10v140c14 0 35 1 44 2c41 4 59 20 66 66c11 65 16 204 17 303l2 211h505v-720h-160v566h-192z" />
    <glyph glyph-name="uni041F" unicode="&#x41f;" horiz-adv-x="731" 
d="M75 720h581v-720h-160v566h-261v-566h-160v720z" />
    <glyph glyph-name="uni0424" unicode="&#x424;" horiz-adv-x="915" 
d="M382 -17v87l-32 1c-203 7 -308 62 -308 297c0 232 110 293 308 299l32 1v89h152v-89l31 -1c196 -6 308 -62 308 -299c0 -230 -108 -291 -308 -297l-31 -1v-87h-152zM356 206l27 -1v327l-27 -1c-114 -4 -157 -41 -157 -163c0 -123 43 -158 157 -162zM559 531l-26 1v-327
l26 1c112 4 157 41 157 162c0 122 -45 159 -157 163z" />
    <glyph glyph-name="uni0426" unicode="&#x426;" horiz-adv-x="765" 
d="M740 -130h-155v130h-510v720h160v-568h255v568h160v-568h90v-282z" />
    <glyph glyph-name="uni0427" unicode="&#x427;" horiz-adv-x="702" 
d="M627 0h-160v279c-57 -18 -113 -30 -179 -30c-172 0 -223 61 -223 251v220h160v-205c0 -92 14 -116 104 -116c41 0 95 10 138 27v294h160v-720z" />
    <glyph glyph-name="uni0428" unicode="&#x428;" horiz-adv-x="1026" 
d="M951 0h-876v720h160v-568h198v568h160v-568h198v568h160v-720z" />
    <glyph glyph-name="uni0429" unicode="&#x429;" horiz-adv-x="1067" 
d="M1042 152v-282h-154v130h-813v720h160v-568h198v568h160v-568h198v568h160v-568h91z" />
    <glyph glyph-name="uni042A" unicode="&#x42a;" horiz-adv-x="812" 
d="M219 0v566h-194v154h354v-245c45 5 99 8 139 8c176 0 256 -61 256 -236c0 -195 -87 -247 -280 -247h-275zM379 147h118c82 0 119 17 119 97c0 72 -31 96 -113 96c-41 0 -88 -3 -124 -7v-186z" />
    <glyph glyph-name="uni042C" unicode="&#x42c;" horiz-adv-x="668" 
d="M75 0v720h160v-245c45 5 99 8 139 8c176 0 256 -61 256 -236c0 -195 -87 -247 -280 -247h-275zM235 147h118c82 0 119 17 119 97c0 72 -31 96 -113 96c-41 0 -88 -3 -124 -7v-186z" />
    <glyph glyph-name="uni042B" unicode="&#x42b;" horiz-adv-x="935" 
d="M700 0v720h160v-720h-160zM75 0v720h160v-245c45 5 94 9 133 9c184 0 247 -62 247 -237c0 -193 -83 -247 -275 -247h-265zM235 148h108c82 0 114 16 114 96c0 72 -28 96 -107 96c-31 0 -79 -4 -115 -8v-184z" />
    <glyph glyph-name="uni042D" unicode="&#x42d;" horiz-adv-x="615" 
d="M141 296v135h263c-12 116 -60 153 -177 153c-50 0 -109 -7 -162 -22l-26 133c54 22 126 37 209 37c229 0 321 -100 321 -372c0 -254 -71 -372 -327 -372c-89 0 -163 16 -207 39l25 132c53 -16 113 -23 172 -23c117 0 162 43 172 160h-263z" />
    <glyph glyph-name="uni042E" unicode="&#x42e;" horiz-adv-x="991" 
d="M640 -12c-151 0 -227 51 -271 159c-17 41 -26 91 -30 145h-104v-292h-160v720h160v-274h105c4 46 13 89 28 126c44 108 125 160 272 160c150 0 233 -52 274 -159c23 -58 31 -134 31 -213s-9 -154 -32 -213c-42 -109 -117 -159 -273 -159zM640 134c77 0 109 33 126 92
c10 34 15 78 15 135c0 62 -5 104 -15 137c-18 59 -50 88 -126 88c-74 0 -108 -29 -126 -88c-10 -33 -16 -80 -16 -137c0 -52 4 -101 14 -135c18 -60 49 -92 128 -92z" />
    <glyph glyph-name="uni042F" unicode="&#x42f;" horiz-adv-x="684" 
d="M50 472c0 184 85 248 285 248h274v-720h-158v235h-92l-149 -235h-189l176 266c-100 28 -147 91 -147 206zM328 379h123v193h-124c-74 0 -114 -24 -114 -95c0 -72 37 -98 115 -98z" />
    <glyph glyph-name="uni0431" unicode="&#x431;" horiz-adv-x="647" 
d="M351 390c-41 0 -96 -14 -141 -38c-2 -37 3 -89 9 -121c13 -69 46 -103 117 -103c80 0 116 39 116 132c0 87 -20 130 -101 130zM333 -12c-153 0 -232 59 -263 190c-12 49 -20 111 -20 179c0 278 79 366 260 400c79 15 182 28 261 32l15 -147c-69 -6 -179 -16 -256 -32
c-82 -17 -114 -51 -119 -139c60 32 120 54 189 54c133 0 207 -70 207 -252c0 -198 -91 -285 -274 -285z" />
    <glyph glyph-name="uni0432" unicode="&#x432;" horiz-adv-x="593" 
d="M328 -3c-82 0 -211 1 -264 3v590c53 2 165 3 247 3c80 0 137 -11 170 -31c43 -26 58 -66 58 -119c0 -54 -27 -94 -71 -128c76 -35 95 -76 95 -140c0 -57 -16 -107 -59 -139c-37 -26 -91 -39 -176 -39zM218 121h103c50 0 70 7 82 24c7 10 10 22 10 36s-1 25 -8 35
c-11 17 -34 23 -86 23h-101v-118zM218 469v-109h91c55 0 82 12 82 55c0 18 -4 33 -14 41c-11 9 -31 13 -63 13h-96z" />
    <glyph glyph-name="uni0433" unicode="&#x433;" horiz-adv-x="485" 
d="M64 590h401v-143h-244v-447h-157v590z" />
    <glyph glyph-name="uni0434" unicode="&#x434;" horiz-adv-x="654" 
d="M274 448c-1 -34 -3 -88 -5 -124c-2 -39 -6 -62 -15 -95c-7 -25 -19 -56 -32 -87h187v306h-135zM491 -120v120h-333v-120h-148v262h58c14 29 33 71 43 98c9 23 13 40 15 66c5 77 5 195 6 284h431v-448h76v-262h-148z" />
    <glyph glyph-name="uni0436" unicode="&#x436;" horiz-adv-x="879" 
d="M366 0v211l-60 24l-122 -235h-184l177 307l-164 283h176l107 -218l70 -28v246h148v-245l71 29l108 216h175l-164 -282l175 -308h-185l-121 237l-59 -25v-212h-148z" />
    <glyph glyph-name="uni0437" unicode="&#x437;" horiz-adv-x="536" 
d="M142 239v123h115c63 0 82 12 82 51c0 40 -20 54 -98 54c-55 0 -109 -7 -171 -25l-22 132c59 18 144 28 216 28c153 0 227 -39 227 -157c0 -60 -34 -100 -83 -132c67 -23 100 -63 100 -133c0 -145 -80 -192 -264 -192c-75 0 -161 17 -209 37l22 135
c56 -21 124 -36 192 -36c75 0 105 12 105 60c0 44 -27 55 -98 55h-114z" />
    <glyph glyph-name="uni0438" unicode="&#x438;" horiz-adv-x="663" 
d="M217 590v-370l219 370h163v-590h-153v369l-219 -369h-163v590h153z" />
    <glyph glyph-name="uni0439" unicode="&#x439;" horiz-adv-x="663" 
d="M217 590v-370l219 370h163v-590h-153v369l-219 -369h-163v590h153zM333 617c-124 0 -176 49 -183 151h121c5 -44 22 -60 62 -60s57 16 62 60h121c-7 -102 -59 -151 -183 -151z" />
    <glyph glyph-name="uni043A" unicode="&#x43a;" horiz-adv-x="631" 
d="M436 0l-138 248l-77 -30v-218h-157v590h157v-239l85 32l131 207h178l-184 -275l190 -315h-185z" />
    <glyph glyph-name="uni043B" unicode="&#x43b;" horiz-adv-x="639" 
d="M265 399c-1 -72 -2 -156 -10 -236c-12 -118 -49 -173 -169 -173c-19 0 -50 4 -68 8v130c9 0 25 1 36 3c38 6 53 19 59 67c7 61 8 132 9 212l3 180h450v-590h-157v448h-152z" />
    <glyph glyph-name="uni043C" unicode="&#x43c;" horiz-adv-x="791" 
d="M439 132h-88l-139 242v-374h-148v590h175l159 -279l153 279h176v-590h-149v374z" />
    <glyph glyph-name="uni043D" unicode="&#x43d;" horiz-adv-x="658" 
d="M437 374v216h157v-590h-157v231h-216v-231h-157v590h157v-216h216z" />
    <glyph glyph-name="uni043F" unicode="&#x43f;" horiz-adv-x="648" 
d="M64 590h520v-590h-157v447h-206v-447h-157v590z" />
    <glyph glyph-name="uni0442" unicode="&#x442;" horiz-adv-x="561" 
d="M541 447h-182v-447h-157v447h-182v143h521v-143z" />
    <glyph glyph-name="uni0443" unicode="&#x443;" horiz-adv-x="648" 
d="M447 590h162c-15 -164 -32 -329 -49 -495c-22 -208 -66 -287 -263 -287c-58 0 -121 5 -184 23l21 139c36 -10 87 -18 144 -18c87 0 120 23 129 134v4c-42 -18 -89 -29 -145 -29c-127 0 -175 53 -190 198c-12 111 -24 222 -34 331h161c8 -101 15 -203 26 -304
c7 -60 23 -85 82 -85c37 0 71 5 112 21c10 126 20 248 28 368z" />
    <glyph glyph-name="uni0444" unicode="&#x444;" horiz-adv-x="886" 
d="M520 -180h-154v173l-53 2c-201 8 -273 97 -273 300c0 198 72 291 274 300l52 2v173h154v-173l52 -2c203 -9 274 -102 274 -300c0 -203 -71 -291 -273 -300l-53 -2v-173zM319 135l48 -2v324l-48 -2c-78 -3 -122 -44 -122 -160c0 -123 44 -157 122 -160zM567 455l-48 2
v-324l48 2c92 4 122 37 122 160c0 116 -30 156 -122 160z" />
    <glyph glyph-name="uni0445" unicode="&#x445;" horiz-adv-x="629" 
d="M437 0l-117 200l-118 -200h-184l194 296l-193 294h189l113 -193l108 193h185l-183 -291l193 -299h-187z" />
    <glyph glyph-name="uni0446" unicode="&#x446;" horiz-adv-x="672" 
d="M657 -120h-148v120h-445v590h157v-448h198v448h157v-448h81v-262z" />
    <glyph glyph-name="uni0447" unicode="&#x447;" horiz-adv-x="612" 
d="M548 0h-157v204c-49 -14 -97 -24 -155 -24c-145 0 -191 65 -191 213v197h157v-184c0 -66 26 -84 84 -84c34 0 67 6 105 19v249h157v-590z" />
    <glyph glyph-name="uni0448" unicode="&#x448;" horiz-adv-x="905" 
d="M841 0h-777v590h157v-448h153v448h157v-448h153v448h157v-590z" />
    <glyph glyph-name="uni0449" unicode="&#x449;" horiz-adv-x="946" 
d="M931 -120h-148v120h-719v590h157v-448h153v448h157v-448h153v448h157v-448h90v-262z" />
    <glyph glyph-name="uni044A" unicode="&#x44a;" horiz-adv-x="721" 
d="M438 0h-249v447h-169v143h326v-180c48 6 86 10 125 10c148 0 215 -53 215 -207c0 -165 -69 -213 -248 -213zM438 132c74 0 96 24 96 80c0 59 -23 79 -88 79c-29 0 -66 -3 -100 -8v-151h92z" />
    <glyph glyph-name="uni044C" unicode="&#x44c;" horiz-adv-x="596" 
d="M313 0h-249v590h157v-180c48 6 86 10 125 10c148 0 215 -53 215 -207c0 -165 -69 -213 -248 -213zM313 132c74 0 96 24 96 80c0 59 -23 79 -88 79c-29 0 -66 -3 -100 -8v-151h92z" />
    <glyph glyph-name="uni044B" unicode="&#x44b;" horiz-adv-x="828" 
d="M764 590v-590h-156v590h156zM303 0h-239v590h157v-180c38 5 78 10 117 10c147 0 207 -57 207 -207c0 -160 -64 -213 -242 -213zM303 132c74 0 96 26 96 80c0 57 -21 79 -82 79c-29 0 -61 -3 -96 -8v-151h82z" />
    <glyph glyph-name="uni044D" unicode="&#x44d;" horiz-adv-x="550" 
d="M212 131c96 0 134 31 146 104h-216v123h216c-11 72 -49 101 -142 101c-53 0 -110 -9 -155 -24l-21 132c53 23 134 35 188 35c185 0 282 -75 282 -307c0 -197 -73 -307 -280 -307c-54 0 -144 12 -190 35l22 132c44 -13 100 -24 150 -24z" />
    <glyph glyph-name="uni044E" unicode="&#x44e;" horiz-adv-x="890" 
d="M580 604c104 0 179 -28 220 -96c31 -52 50 -119 50 -213c0 -91 -17 -158 -44 -207c-40 -73 -120 -102 -228 -102c-106 0 -183 29 -223 101c-21 38 -36 84 -41 145h-93v-232h-157v590h157v-218h94c8 55 23 99 46 135c42 67 117 97 219 97zM579 461c-41 0 -70 -13 -87 -38
c-18 -27 -28 -69 -28 -128c0 -56 9 -102 26 -128c19 -28 47 -38 89 -38c43 0 72 11 89 40c15 26 25 70 25 126c0 59 -9 102 -27 129c-17 25 -46 37 -87 37z" />
    <glyph glyph-name="uni044F" unicode="&#x44f;" horiz-adv-x="614" 
d="M396 0v183h-71l-113 -183h-182l136 202c-85 24 -120 79 -120 187c0 154 95 205 250 204c76 0 196 -1 254 -2v-591h-154zM396 459h-102c-62 0 -92 -17 -92 -72s23 -74 106 -74h88v146z" />
    <glyph glyph-name="uni0450" unicode="&#x450;" horiz-adv-x="593" 
d="M229 835l206 -136l-49 -80l-221 106zM520 157l21 -134c-58 -27 -150 -35 -215 -35c-214 0 -286 95 -286 307c0 205 97 307 288 307c142 0 228 -59 228 -183v-9c0 -100 -34 -139 -146 -160c-59 -12 -138 -21 -213 -30c12 -62 47 -88 143 -88c59 0 135 10 180 25zM323 469
c-78 0 -129 -32 -134 -133c73 11 136 21 180 31c31 7 40 21 40 41v5c0 37 -24 56 -86 56z" />
    <glyph glyph-name="uni0451" unicode="&#x451;" horiz-adv-x="593" 
d="M209 788c45 0 77 -22 77 -75c0 -54 -32 -76 -77 -76s-78 22 -78 76c0 53 33 75 78 75zM409 788c45 0 77 -22 77 -75c0 -54 -32 -76 -77 -76s-78 22 -78 76c0 53 33 75 78 75zM520 157l21 -134c-58 -27 -150 -35 -215 -35c-214 0 -286 95 -286 307c0 205 97 307 288 307
c142 0 228 -59 228 -183v-9c0 -100 -34 -139 -146 -160c-59 -12 -138 -21 -213 -30c12 -62 47 -88 143 -88c59 0 135 10 180 25zM323 469c-78 0 -129 -32 -134 -133c73 11 136 21 180 31c31 7 40 21 40 41v5c0 37 -24 56 -86 56z" />
    <glyph glyph-name="uni0452" unicode="&#x452;" horiz-adv-x="681" 
d="M251 467c60 37 121 57 187 57c121 0 188 -65 188 -207v-303c0 -143 -48 -204 -181 -204c-41 0 -79 4 -119 14l16 127c15 -3 36 -6 53 -6c49 0 74 15 74 66v287c0 61 -27 83 -95 83c-36 0 -86 -12 -121 -31v-350h-155v600h-80v100h80v82h153v-82h174v-100h-174v-133z" />
    <glyph glyph-name="uni0453" unicode="&#x453;" horiz-adv-x="485" 
d="M64 590h401v-143h-244v-447h-157v590zM382 828l64 -110l-221 -106l-49 80z" />
    <glyph glyph-name="uni0454" unicode="&#x454;" horiz-adv-x="551" 
d="M343 460c-80 0 -132 -22 -149 -102h225v-123h-226c13 -81 57 -105 148 -105c53 0 104 9 148 24l22 -131c-36 -20 -114 -35 -178 -35c-189 0 -293 75 -293 307c0 223 106 307 292 307c68 0 140 -15 179 -35l-21 -131c-44 13 -94 24 -147 24z" />
    <glyph glyph-name="uni0455" unicode="&#x455;" horiz-adv-x="546" 
d="M42 24l21 133c52 -16 121 -27 187 -27c71 0 110 10 110 47c0 25 -13 37 -49 46c-37 9 -71 16 -120 29c-82 22 -145 55 -145 168c0 139 102 182 257 182c82 0 150 -15 192 -34l-22 -129c-45 13 -105 25 -172 25c-60 0 -96 -8 -96 -43c0 -21 16 -32 46 -40
c36 -10 72 -18 111 -28c110 -28 157 -68 157 -170c0 -144 -90 -195 -260 -195c-84 2 -171 15 -217 36z" />
    <glyph glyph-name="uni0456" unicode="&#x456;" horiz-adv-x="285" 
d="M221 590v-590h-157v590h157zM143 628c-51 0 -88 20 -88 80c0 59 37 79 88 79s87 -20 87 -79c0 -60 -36 -80 -87 -80z" />
    <glyph glyph-name="uni0457" unicode="&#x457;" horiz-adv-x="297" 
d="M70 590h157v-590h-157v590zM62 787c43 0 71 -26 71 -77s-28 -78 -71 -78s-72 27 -72 78s29 77 72 77zM236 787c43 0 71 -26 71 -77s-28 -78 -71 -78s-72 27 -72 78s29 77 72 77z" />
    <glyph glyph-name="uni0457_uni0457" horiz-adv-x="582" 
d="M355 590h157v-590h-157v590zM516 787c51 0 86 -21 86 -78c0 -58 -35 -79 -86 -79s-87 21 -87 79c0 57 36 78 87 78zM70 590h157v-590h-157v590zM67 787c51 0 86 -21 86 -78c0 -58 -35 -79 -86 -79s-87 21 -87 79c0 57 36 78 87 78zM292 787c51 0 86 -21 86 -78
c0 -58 -35 -79 -86 -79s-87 21 -87 79c0 57 36 78 87 78z" />
    <glyph glyph-name="uni0458" unicode="&#x458;" horiz-adv-x="296" 
d="M155 628c-51 0 -88 20 -88 80c0 59 37 79 88 79s87 -20 87 -79c0 -60 -36 -80 -87 -80zM51 -192c-38 0 -71 3 -111 13l15 127c19 -3 35 -5 52 -5c42 0 68 13 68 64v583h157v-583c0 -145 -58 -199 -181 -199z" />
    <glyph glyph-name="uni0459" unicode="&#x459;" horiz-adv-x="950" 
d="M667 132c74 0 96 24 96 80c0 59 -23 79 -88 79c-29 0 -66 -3 -100 -8v-151h92zM122 410l3 180h450v-180c48 6 86 10 125 10c148 0 215 -53 215 -207c0 -165 -69 -213 -248 -213h-249v448h-152l-1 -49c-1 -72 -2 -156 -10 -236c-12 -118 -49 -173 -169 -173
c-19 0 -50 4 -68 8v130c9 0 25 1 36 3c38 6 53 19 59 67c7 61 8 132 9 212z" />
    <glyph glyph-name="uni045A" unicode="&#x45a;" horiz-adv-x="969" 
d="M686 132c74 0 96 24 96 80c0 59 -23 79 -88 79c-29 0 -66 -3 -100 -8v-151h92zM221 231v-231h-157v590h157v-216h216v216h157v-180c48 6 86 10 125 10c148 0 215 -53 215 -207c0 -165 -69 -213 -248 -213h-249v231h-216z" />
    <glyph glyph-name="uni045B" unicode="&#x45b;" horiz-adv-x="681" 
d="M18 600v100h80v82h153v-82h174v-100h-174v-133c60 37 121 57 187 57c121 0 188 -65 188 -207v-317h-157v298c0 61 -27 83 -95 83c-36 0 -86 -12 -121 -31v-350h-155v600h-80z" />
    <glyph glyph-name="uni045C" unicode="&#x45c;" horiz-adv-x="631" 
d="M436 0l-138 248l-77 -30v-218h-157v590h157v-239l85 32l131 207h178l-184 -275l190 -315h-185zM448 823l64 -110l-221 -106l-49 80z" />
    <glyph glyph-name="uni045D" unicode="&#x45d;" horiz-adv-x="663" 
d="M217 590v-370l219 370h163v-590h-153v369l-219 -369h-163v590h153zM233 830l206 -136l-49 -80l-221 106z" />
    <glyph glyph-name="uni045E" unicode="&#x45e;" horiz-adv-x="648" 
d="M447 590h162c-15 -164 -32 -329 -49 -495c-22 -208 -66 -287 -263 -287c-58 0 -121 5 -184 23l21 139c36 -10 87 -18 144 -18c87 0 120 23 129 134v4c-42 -18 -89 -29 -145 -29c-127 0 -175 53 -190 198c-12 111 -24 222 -34 331h161c8 -101 15 -203 26 -304
c7 -60 23 -85 82 -85c37 0 71 5 112 21c10 126 20 248 28 368zM324 622c-124 0 -176 49 -183 151h121c5 -44 22 -60 62 -60s57 16 62 60h121c-7 -102 -59 -151 -183 -151z" />
    <glyph glyph-name="uni045F" unicode="&#x45f;" horiz-adv-x="658" 
d="M594 0h-193v-120h-144v120h-193v590h156v-449h217v449h157v-590z" />
    <glyph glyph-name="uni0490" unicode="&#x490;" horiz-adv-x="583" 
d="M235 0h-160v720h320l5 130h148v-280h-313v-570z" />
    <glyph glyph-name="uni0491" unicode="&#x491;" horiz-adv-x="510" 
d="M342 590l3 116h140v-255h-264v-451h-157v590h278z" />
    <glyph glyph-name="uni04DC" unicode="&#x4dc;" horiz-adv-x="1004" 
d="M580 720v-298l76 24l153 274h178l-210 -340l217 -380h-184l-164 301l-66 -20v-281h-157v281l-66 20l-163 -301h-184l217 380l-211 340h178l155 -274l74 -24v298h157zM402 916c45 0 77 -22 77 -75c0 -54 -32 -76 -77 -76s-78 22 -78 76c0 53 33 75 78 75zM603 916
c45 0 77 -22 77 -75c0 -54 -32 -76 -77 -76s-78 22 -78 76c0 53 33 75 78 75z" />
    <glyph glyph-name="uni04DD" unicode="&#x4dd;" horiz-adv-x="879" 
d="M366 0v211l-60 24l-122 -235h-184l177 307l-164 283h176l107 -218l70 -28v246h148v-245l71 29l108 216h175l-164 -282l175 -308h-185l-121 237l-59 -25v-212h-148zM341 783c45 0 77 -22 77 -75c0 -54 -32 -76 -77 -76s-78 22 -78 76c0 53 33 75 78 75zM541 783
c45 0 77 -22 77 -75c0 -54 -32 -76 -77 -76s-78 22 -78 76c0 53 33 75 78 75z" />
    <glyph glyph-name="uni04DE" unicode="&#x4de;" horiz-adv-x="628" 
d="M279 -12c-67 0 -177 15 -231 38l27 142c56 -18 145 -32 204 -32c112 0 143 23 143 84s-25 81 -119 81h-127v136h128c81 0 105 21 105 73c0 51 -25 74 -120 74c-84 0 -145 -15 -202 -31l-27 141c54 23 160 38 226 38c205 0 280 -53 280 -194c0 -57 -29 -107 -92 -157
c75 -28 112 -79 112 -164c0 -187 -105 -229 -307 -229zM408 926c45 0 77 -22 77 -75c0 -54 -32 -76 -77 -76s-78 22 -78 76c0 53 33 75 78 75zM207 926c45 0 77 -22 77 -75c0 -54 -32 -76 -77 -76s-78 22 -78 76c0 53 33 75 78 75z" />
    <glyph glyph-name="uni04DF" unicode="&#x4df;" horiz-adv-x="536" 
d="M142 239v123h115c63 0 82 12 82 51c0 40 -20 54 -98 54c-55 0 -109 -7 -171 -25l-22 132c59 18 144 28 216 28c153 0 227 -39 227 -157c0 -60 -34 -100 -83 -132c67 -23 100 -63 100 -133c0 -145 -80 -192 -264 -192c-75 0 -161 17 -209 37l22 135
c56 -21 124 -36 192 -36c75 0 105 12 105 60c0 44 -27 55 -98 55h-114zM357 787c45 0 77 -22 77 -75c0 -54 -32 -76 -77 -76s-78 22 -78 76c0 53 33 75 78 75zM157 787c45 0 77 -22 77 -75c0 -54 -32 -76 -77 -76s-78 22 -78 76c0 53 33 75 78 75z" />
    <glyph glyph-name="uni04E4" unicode="&#x4e4;" horiz-adv-x="748" 
d="M673 0h-156v467l-284 -467h-158v720h156v-466l284 466h158v-720zM475 916c45 0 77 -22 77 -75c0 -54 -32 -76 -77 -76s-78 22 -78 76c0 53 33 75 78 75zM274 916c45 0 77 -22 77 -75c0 -54 -32 -76 -77 -76s-78 22 -78 76c0 53 33 75 78 75z" />
    <glyph glyph-name="uni04E5" unicode="&#x4e5;" horiz-adv-x="663" 
d="M217 590v-370l219 370h163v-590h-153v369l-219 -369h-163v590h153zM431 783c45 0 77 -22 77 -75c0 -54 -32 -76 -77 -76s-78 22 -78 76c0 53 33 75 78 75zM231 783c45 0 77 -22 77 -75c0 -54 -32 -76 -77 -76s-78 22 -78 76c0 53 33 75 78 75z" />
    <glyph glyph-name="uni04E6" unicode="&#x4e6;" horiz-adv-x="719" 
d="M359 136c84 0 118 30 136 90c10 34 14 78 14 135s-4 99 -14 133c-18 60 -52 90 -136 90c-83 0 -118 -30 -135 -90c-10 -34 -14 -76 -14 -133s4 -101 14 -135c17 -60 52 -90 135 -90zM359 732c157 0 237 -48 281 -156c24 -58 33 -137 33 -215s-9 -159 -33 -217
c-44 -108 -124 -156 -281 -156c-156 0 -236 48 -280 156c-24 58 -33 139 -33 217s9 157 33 215c44 108 124 156 280 156zM260 926c45 0 77 -22 77 -75c0 -54 -32 -76 -77 -76s-78 22 -78 76c0 53 33 75 78 75zM461 926c45 0 77 -22 77 -75c0 -54 -32 -76 -77 -76
s-78 22 -78 76c0 53 33 75 78 75z" />
    <glyph glyph-name="uni04E7" unicode="&#x4e7;" horiz-adv-x="632" 
d="M316 -14c-110 0 -192 29 -232 101c-28 50 -44 116 -44 208s16 158 44 208c40 72 122 101 232 101s192 -29 232 -101c28 -50 44 -116 44 -208s-16 -158 -44 -208c-40 -72 -122 -101 -232 -101zM316 129c43 0 74 10 93 38c17 26 26 72 26 128s-9 102 -26 128
c-19 28 -50 38 -93 38s-74 -10 -93 -38c-17 -26 -26 -72 -26 -128s9 -102 26 -128c19 -28 50 -38 93 -38zM215 788c45 0 77 -22 77 -75c0 -54 -32 -76 -77 -76s-78 22 -78 76c0 53 33 75 78 75zM415 788c45 0 77 -22 77 -75c0 -54 -32 -76 -77 -76s-78 22 -78 76
c0 53 33 75 78 75z" />
    <glyph glyph-name="uni04F4" unicode="&#x4f4;" horiz-adv-x="702" 
d="M627 0h-160v279c-57 -18 -113 -30 -179 -30c-172 0 -223 61 -223 251v220h160v-205c0 -92 14 -116 104 -116c41 0 95 10 138 27v294h160v-720zM248 916c45 0 77 -22 77 -75c0 -54 -32 -76 -77 -76s-78 22 -78 76c0 53 33 75 78 75zM449 916c45 0 77 -22 77 -75
c0 -54 -32 -76 -77 -76s-78 22 -78 76c0 53 33 75 78 75z" />
    <glyph glyph-name="uni04F5" unicode="&#x4f5;" horiz-adv-x="612" 
d="M548 0h-157v204c-49 -14 -97 -24 -155 -24c-145 0 -191 65 -191 213v197h157v-184c0 -66 26 -84 84 -84c34 0 67 6 105 19v249h157v-590zM198 783c45 0 77 -22 77 -75c0 -54 -32 -76 -77 -76s-78 22 -78 76c0 53 33 75 78 75zM398 783c45 0 77 -22 77 -75
c0 -54 -32 -76 -77 -76s-78 22 -78 76c0 53 33 75 78 75z" />
    <glyph glyph-name="uni20A7" unicode="&#x20a7;" horiz-adv-x="1515" 
d="M76 0v720h247c199 0 272 -69 272 -241c0 -153 -64 -245 -268 -245c-1 0 -91 1 -91 1v-235h-160zM1044 24l21 131c52 -16 117 -27 173 -27c62 0 99 11 99 49c0 25 -13 39 -49 48c-37 9 -50 12 -99 25c-82 22 -141 58 -141 170c0 139 96 182 240 182c72 0 138 -15 180 -34
l-22 -127c-44 13 -102 25 -160 25c-51 0 -85 -9 -85 -45c0 -21 16 -34 47 -42l90 -24c109 -28 154 -71 154 -172c0 -144 -85 -195 -245 -195c-74 0 -157 15 -203 36zM863 196c0 -47 15 -69 68 -69c24 0 50 3 68 6l15 -126c-32 -11 -77 -17 -125 -17c-111 0 -178 42 -178 199
v247h-72v134h72v120h152v-120h143v-134h-143v-240zM236 381h76c95 0 123 25 123 97c0 71 -27 95 -121 95h-78v-192z" />
    <glyph glyph-name="uni20A8" unicode="&#x20a8;" horiz-adv-x="1125" 
d="M76 0v720h264c204 0 272 -67 272 -239c0 -115 -36 -189 -132 -222l147 -259h-177l-128 241h-86v-241h-160zM653 24l21 131c52 -16 117 -27 173 -27c63 0 100 11 100 49c0 25 -14 39 -50 48c-37 9 -50 12 -98 25c-83 22 -141 58 -141 170c0 139 95 182 240 182
c72 0 137 -15 179 -34l-21 -127c-45 13 -103 25 -160 25c-51 0 -86 -9 -86 -45c0 -21 17 -34 48 -42l89 -24c110 -28 155 -71 155 -172c0 -144 -86 -195 -246 -195c-74 0 -157 15 -203 36zM236 384h95c92 0 121 28 121 96c0 71 -28 95 -121 95h-95v-191z" />
    <glyph glyph-name="uni20A9" unicode="&#x20a9;" horiz-adv-x="1123" 
d="M237 0l-75 293h-122v103h100l-12 50h-88v103h58l-43 171h163l39 -171h176l43 171h170l44 -171h178l38 171h162l-43 -171h58v-103h-86l-13 -50h99v-103h-124l-73 -293h-194l-78 293h-103l-77 -293h-197zM712 446l13 -50h114l11 50h-138zM275 446l12 -50h113l13 50h-138z
M562 536l-34 -140h69zM752 293l34 -135l30 135h-64zM311 293l30 -134l34 134h-64z" />
    <glyph glyph-name="uni20AE" unicode="&#x20ae;" horiz-adv-x="687" 
d="M50 216l214 58v49l-214 -58v110l214 58v133h-214v154h586v-154h-214v-90l214 59v-110l-214 -59v-49l214 59v-110l-214 -59v-207h-158v164l-214 -58v110z" />
    <glyph glyph-name="uni20B1" unicode="&#x20b1;" horiz-adv-x="741" 
d="M32 435h74v38h-74v61h74v186h267c169 0 256 -47 277 -186h71v-61h-65v-17c0 -7 -1 -14 -1 -21h66v-61h-71c-19 -128 -95 -183 -273 -183c-24 0 -76 2 -113 6v-197h-158v374h-74v61zM500 455v18h-236v-38h235c1 6 1 13 1 20zM264 335c36 -3 78 -4 108 -4
c65 0 99 10 115 43h-223v-39zM264 576v-42h223c-16 31 -49 42 -115 42h-108z" />
    <glyph glyph-name="uni20B2" unicode="&#x20b2;" horiz-adv-x="661" 
d="M298 763h120v-54c79 -4 144 -20 182 -38l-25 -132c-49 14 -109 22 -165 23v-414c20 1 39 3 53 5v202h137v-314c-35 -17 -113 -30 -182 -35v-69h-120v70c-163 19 -251 117 -251 353c0 225 90 323 251 345v58zM212 361c0 -125 23 -186 92 -206v396
c-68 -22 -92 -77 -92 -190z" />
    <glyph glyph-name="uni20B3" unicode="&#x20b3;" horiz-adv-x="774" 
d="M576 0l-48 145h-278l-47 -145h-166l116 336h-106v106h142l97 278h202l99 -278h142v-106h-105l120 -336h-168zM311 336l-21 -65h197l-21 65h-155zM388 573l-42 -131h85z" />
    <glyph glyph-name="uni20B4" unicode="&#x20b4;" horiz-adv-x="710" 
d="M40 330h630v-102h-413v-17c0 -53 43 -74 124 -74c84 0 167 15 220 31l24 -141c-54 -24 -165 -39 -246 -39c-200 0 -286 60 -286 219v21h-53v102zM334 732c199 0 290 -64 290 -210c0 -15 -2 -31 -5 -46h51v-101h-630v101h413c4 8 6 19 6 32c0 57 -45 75 -135 75
c-69 0 -131 -13 -184 -29l-26 139c44 23 135 39 220 39z" />
    <glyph glyph-name="uni20B5" unicode="&#x20b5;" horiz-adv-x="594" 
d="M307 763h120v-58c56 -6 105 -18 137 -35l-26 -131c-40 12 -78 19 -119 22v-409c40 3 80 10 119 21l26 -132c-32 -16 -81 -28 -137 -34v-70h-120v69c-190 18 -261 141 -261 352c0 207 71 329 261 348v57zM212 359c0 -117 21 -181 101 -201v396c-74 -19 -101 -80 -101 -195
z" />
    <glyph glyph-name="uni2116" unicode="&#x2116;" horiz-adv-x="1151" 
d="M75 0v720h161l284 -457v457h152v-720h-160l-285 463v-463h-152zM930 732c123 0 175 -76 175 -183c0 -106 -52 -182 -175 -182s-174 76 -174 182c0 107 51 183 174 183zM772 322h323v-118h-323v118zM930 473c39 0 58 25 58 76c0 52 -19 77 -58 77c-38 0 -57 -25 -57 -77
c0 -51 19 -76 57 -76z" />
    <glyph glyph-name="v" unicode="v" horiz-adv-x="617" 
d="M214 0l-202 590h164l141 -446l136 446h159l-199 -590h-199z" />
    <glyph glyph-name="w" unicode="w" horiz-adv-x="927" 
d="M169 0l-144 590h156l94 -434l104 434h174l107 -433l96 433h151l-148 -590h-188l-104 421l-102 -421h-196z" />
    <glyph glyph-name="x" unicode="x" horiz-adv-x="629" 
d="M437 0l-117 200l-118 -200h-184l194 296l-193 294h189l113 -193l108 193h185l-183 -291l193 -299h-187z" />
    <glyph glyph-name="y" unicode="y" horiz-adv-x="648" 
d="M447 590h162c-15 -164 -32 -329 -49 -495c-22 -208 -66 -287 -263 -287c-58 0 -121 5 -184 23l21 139c36 -10 87 -18 144 -18c87 0 120 23 129 134v4c-42 -18 -89 -29 -145 -29c-127 0 -175 53 -190 198c-12 111 -24 222 -34 331h161c8 -101 15 -203 26 -304
c7 -60 23 -85 82 -85c37 0 71 5 112 21c10 126 20 248 28 368z" />
    <glyph glyph-name="yen" unicode="&#xa5;" horiz-adv-x="697" 
d="M60 274h208v35l-10 15h-198v110h130l-179 286h188l153 -268l154 268h180l-181 -286h130v-110h-199l-9 -14v-36h208v-106h-208v-168h-159v168h-208v106z" />
    <glyph glyph-name="z" unicode="z" horiz-adv-x="582" 
d="M533 462l-289 -319h298v-143h-495v128l286 319h-277v143h477v-128z" />
    <glyph glyph-name="zero" unicode="0" horiz-adv-x="684" 
d="M343 139c103 0 130 51 130 222c0 172 -28 220 -130 220c-94 0 -132 -48 -132 -220c0 -171 34 -222 132 -222zM343 -12c-235 0 -298 137 -298 372c0 228 65 372 298 372c234 0 296 -144 296 -372c0 -235 -63 -372 -296 -372z" />
    <glyph glyph-name="zero.tnum_lnum" 
d="M321 139c93 0 121 51 121 222c0 172 -29 220 -121 220c-84 0 -123 -48 -123 -220c0 -171 35 -222 123 -222zM321 -12c-225 0 -289 137 -289 372c0 228 71 372 289 372c224 0 287 -144 287 -372c0 -235 -64 -372 -287 -372z" />
    </font>
</defs>
</svg>
